<svg
    width="100%"
    height="100%"
    viewBox="0 0 832 731"
    version="1.1"
    xmlns="http://www.w3.org/2000/svg"
    xmlns:xlink="http://www.w3.org/1999/xlink"
    xml:space="preserve"
    xmlns:serif="http://www.serif.com/"
    style="
        fill-rule: evenodd;
        clip-rule: evenodd;
        stroke-linejoin: round;
        stroke-miterlimit: 2;
    "
>
    <g>
        <path
            d="M820.321,550.904c1.8,21.45 -0.738,44.088 -8.413,65.454c-7.621,21.359 -20.254,41.259 -36.475,57.621c-16.354,16.225 -36.258,28.854 -57.616,36.479c-21.346,7.684 -44.05,10.213 -65.425,8.417c-21.559,-1.754 -41.771,-8.117 -59.159,-17.354c-17.441,-9.204 -31.954,-21.279 -43.32,-34.063c-11.326,-12.866 -19.542,-26.416 -25.121,-39.087c-0.459,-1.034 -0.875,-2.05 -1.3,-3.071c0.77,-0.225 1.537,-0.454 2.312,-0.683c0.413,0.9 0.813,1.791 1.25,2.7c5.921,12.27 14.417,25.241 25.713,37.554c11.4,12.187 25.77,23.558 42.77,32.204c16.963,8.646 36.634,14.392 57.255,15.908c20.745,1.567 42.366,-1.262 62.825,-8.621c20.445,-7.375 39.458,-19.55 55.079,-35.125c15.579,-15.612 27.75,-34.633 35.125,-55.075c7.371,-20.437 10.187,-42.12 8.629,-62.795c-1.525,-20.688 -7.258,-40.313 -15.913,-57.288c-8.645,-17.004 -20.016,-31.379 -32.208,-42.775c-12.308,-11.296 -25.279,-19.796 -37.554,-25.712c-12.279,-5.925 -23.721,-9.538 -33.313,-11.638c-9.608,-2.108 -17.32,-2.854 -22.575,-3.342c-5.279,-0.258 -8.095,-0.395 -8.095,-0.395c-0,-0 2.82,0.008 8.104,0.033c5.279,0.283 13.079,0.583 22.825,2.429c9.742,1.8 21.425,5.054 34.104,10.663c12.667,5.583 26.217,13.795 39.083,25.12c12.779,11.367 24.859,25.875 34.059,43.317c9.233,17.375 15.608,37.629 17.354,59.125Zm-392.913,84.067c-1.408,-1.063 -2.962,-2.042 -4.321,-3.35c-2.899,-2.396 -5.479,-5.467 -7.787,-8.859c-2.296,-3.416 -4.042,-7.329 -5.392,-11.429c-1.258,-4.146 -1.846,-8.525 -1.966,-12.921c0.112,-4.337 0.704,-8.783 1.966,-12.916c1.346,-4.1 3.092,-8.013 5.388,-11.434c2.308,-3.391 4.887,-6.462 7.791,-8.858c0.98,-0.942 2.059,-1.712 3.117,-2.471l0.554,0.984c-0.971,0.733 -1.962,1.487 -2.854,2.4c-2.762,2.404 -5.158,5.462 -7.387,8.741c-2.196,3.325 -3.842,7.125 -5.113,11.088c-1.179,4.021 -1.696,8.183 -1.787,12.466c0.083,4.234 0.608,8.459 1.787,12.467c1.267,3.967 2.917,7.767 5.113,11.092c2.225,3.279 4.62,6.337 7.383,8.741c1.287,1.309 2.775,2.3 4.121,3.375c1.408,0.988 2.846,1.842 4.212,2.667c1.442,0.692 2.784,1.45 4.134,2c1.366,0.513 2.637,1.088 3.887,1.467c1.258,0.35 2.433,0.683 3.521,0.987c1.108,0.221 2.133,0.379 3.058,0.55c1.842,0.396 3.346,0.354 4.346,0.479c1.008,0.084 1.546,0.125 1.546,0.125c-0,0 -0.538,-0.012 -1.55,-0.033c-0.504,-0.012 -1.129,-0.025 -1.863,-0.042c-0.366,-0.008 -0.758,-0.004 -1.179,-0.033c-0.416,-0.054 -0.862,-0.112 -1.333,-0.175c-0.938,-0.125 -1.983,-0.242 -3.117,-0.421c-1.116,-0.258 -2.32,-0.541 -3.608,-0.846c-1.279,-0.325 -2.592,-0.854 -4.008,-1.312c-1.404,-0.5 -2.784,-1.254 -4.28,-1.917c-1.416,-0.804 -2.912,-1.637 -4.379,-2.612Zm-198.545,-211.488c-1.826,7.538 -4.021,16.313 -6.455,25.692c-1.225,4.683 -2.496,9.525 -3.783,14.446c-1.304,4.904 -2.692,9.941 -4.258,14.9c-1.655,4.937 -3.38,9.866 -5.438,14.579c-2.037,4.717 -4.275,9.267 -6.662,13.525c-2.35,4.279 -4.83,8.287 -7.238,12.037c-2.383,3.763 -4.746,7.242 -6.933,10.446c-4.367,6.417 -8.15,11.654 -10.729,15.371c-2.609,3.7 -4.134,5.792 -4.134,5.792c0,-0 1.284,-2.25 3.592,-6.142c2.333,-3.875 5.667,-9.408 9.667,-16.05c2.012,-3.312 4.171,-6.904 6.42,-10.717c2.259,-3.808 4.525,-7.879 6.767,-12.129c2.275,-4.237 4.304,-8.762 6.271,-13.391c1.983,-4.625 3.637,-9.475 5.229,-14.346c1.563,-4.892 2.975,-9.804 4.317,-14.725c1.379,-4.896 2.737,-9.713 4.054,-14.375c2.65,-9.321 5.2,-17.996 7.442,-25.421c2.212,-7.429 4.208,-13.579 5.533,-17.904c1.358,-4.317 2.183,-6.771 2.183,-6.771c0,-0 -0.533,2.533 -1.546,6.942c-1.049,4.4 -2.441,10.716 -4.299,18.241Zm76.224,68.296c9.234,17.375 15.609,37.629 17.355,59.125c1.8,21.45 -0.738,44.088 -8.413,65.454c-7.621,21.359 -20.254,41.259 -36.471,57.621c-16.358,16.225 -36.262,28.854 -57.62,36.479c-21.346,7.684 -44.051,10.213 -65.425,8.417c-21.559,-1.754 -41.771,-8.117 -59.159,-17.354c-17.442,-9.204 -31.954,-21.279 -43.321,-34.063c-11.325,-12.866 -19.541,-26.416 -25.121,-39.087c-5.604,-12.679 -8.862,-24.367 -10.658,-34.104c-1.846,-9.75 -2.146,-17.546 -2.429,-22.821c-0.021,-5.288 -0.033,-8.113 -0.033,-8.113c-0,0 0.137,2.817 0.4,8.092c0.487,5.258 1.233,12.975 3.341,22.579c2.104,9.592 5.717,21.033 11.642,33.313c5.921,12.27 14.417,25.241 25.712,37.554c11.4,12.187 25.771,23.558 42.771,32.204c16.963,8.646 36.634,14.392 57.254,15.908c20.746,1.567 42.367,-1.262 62.83,-8.621c20.441,-7.375 39.454,-19.55 55.075,-35.125c15.579,-15.612 27.754,-34.633 35.125,-55.075c7.375,-20.437 10.187,-42.12 8.629,-62.795c-1.525,-20.688 -7.259,-40.313 -15.913,-57.288c-8.645,-17.004 -20.012,-31.379 -32.204,-42.775c-9.512,-8.729 -19.417,-15.771 -29.092,-21.254c0.276,-0.921 0.546,-1.842 0.817,-2.737c10.2,5.287 20.733,12.245 30.85,21.149c12.779,11.367 24.859,25.875 34.058,43.317Zm-244.412,-25.062l77.467,81.32l-17.509,-3.004l-79.058,-51.804c5.367,-9.558 11.771,-18.462 19.1,-26.512Zm29.421,-24.7l68.004,95.479l-0.646,13.854l-15.441,-2.646l-79.717,-83.687c8.25,-8.78 17.587,-16.513 27.8,-23Zm108.062,-18.892l-34.2,108.992l-2.875,-8.225l4.854,-104.205c0.325,0 0.65,-0.025 0.975,-0.025c10.734,0 21.18,1.221 31.246,3.463Zm-32.9,112.7l35.196,-112.167c6.859,1.646 13.525,3.784 19.963,6.379c-1.138,3.963 -2.317,8.071 -3.455,12.309c-1.545,5.687 -3.162,11.621 -4.708,17.633c-0.375,1.5 -0.758,3.004 -1.137,4.513c-0.388,1.421 -0.775,2.845 -1.163,4.275c-0.362,1.425 -0.812,2.833 -1.275,4.241c-0.471,1.404 -0.875,2.829 -1.392,4.225c-1.983,5.609 -4.254,11.171 -6.729,16.588c-2.579,5.383 -5.15,10.7 -7.925,15.766c-2.729,5.08 -5.512,9.963 -8.15,14.613c-2.7,4.646 -5.25,9.033 -7.608,13.087c-2.583,4.392 -4.904,8.405 -6.925,11.938l-4.692,-13.4Zm36.867,-1.217l64.117,-74.929c8.354,8.008 15.741,17.008 21.975,26.817l-86.092,48.112Zm-9.438,11.029l5.025,-5.87l91.775,-51.292c6.217,10.137 11.205,21.1 14.771,32.687l-111.571,24.475Zm-1.179,22.984l-11.758,-7.35c-0.025,-0.142 -0.038,-0.292 -0.067,-0.434l10.475,-12.241l114.742,-25.171c3.217,11.092 5.125,22.729 5.554,34.742l-118.946,10.454Zm101.529,63.454l-80.479,-50.3l93.721,16.45c-2.991,11.942 -7.467,23.296 -13.242,33.85Zm-22.191,30.3l-77.346,-83.942l12.9,2.263l85.467,53.416c-5.846,10.28 -12.917,19.763 -21.021,28.263Zm-28.929,23.446l-67.734,-101.367l0.454,-9.333l15.05,2.641l79.534,86.317c-8.171,8.296 -17.333,15.613 -27.304,21.742Zm-36.2,15.821l-32.55,-96.45l0.825,-16.8l65.904,98.629c-10.6,6.275 -22.067,11.216 -34.179,14.621Zm-32.863,-90.042l30.6,90.683c-11.275,2.967 -23.092,4.584 -35.262,4.692l4.662,-95.375Zm-7.212,-21.367l5.158,15.284l-4.963,101.462c-11.6,-0.083 -22.874,-1.55 -33.675,-4.246l33.48,-112.5Zm-14.963,-8.75l10.171,-5.454l3.492,10.346l-34.455,115.771c-11.545,-3.084 -22.516,-7.571 -32.729,-13.271l53.521,-107.392Zm-19.587,10.5l16,-8.579l-51.975,104.3c-10.05,-5.825 -19.33,-12.829 -27.655,-20.825l63.63,-74.896Zm-5.655,3.034l-59.675,70.237c-8.108,-8.046 -15.258,-17.054 -21.279,-26.833l80.954,-43.404Zm16.467,-19.388l-12.308,14.492l-86.317,46.283c-5.737,-9.675 -10.387,-20.062 -13.746,-31.012l112.371,-29.763Zm-4.946,-17.087l12.505,8.195l-4.892,5.759l-115.679,30.633c-3.184,-11.021 -5.084,-22.575 -5.517,-34.504l113.583,-10.083Zm8.246,-3.088l-7.637,0.675l-12.017,-7.871l15.304,2.625l4.35,4.571Zm11.763,-1.046l-8.771,0.779l-3.475,-3.641l12.475,2.141l-0.229,0.721Zm4.029,-12.846l-0.863,2.763l0.171,-3.733l0.692,0.97Zm2.591,-0.412l0.496,-1.575l1.563,4.462l-2.059,-2.887Zm20.142,6.454l0.017,-0.029l8.041,-4.496l-2.904,3.396l-5.154,1.129Zm-5.008,10.271l3.696,-7.579l3.933,-0.863l-7.483,8.746c-0.042,-0.104 -0.096,-0.2 -0.146,-0.304Zm6.267,11.317l-4.088,-4.434l6.725,4.204l-2.637,0.23Zm2.008,2.183l3.937,-0.346l10.163,6.35l-10.217,-1.792l-3.883,-4.212Zm-10.654,0.933l7.7,-0.675l3.025,3.288l-11.35,-1.996c0.212,-0.2 0.425,-0.4 0.625,-0.617Zm-6.88,5.088l0.405,-1.354c0.841,-0.2 1.65,-0.475 2.416,-0.83l-0.291,5.967l-2.53,-3.783Zm-0.866,2.921l3.204,4.795l-0.683,13.992l-4.313,-12.775l1.792,-6.012Zm-2.65,-3.963l0.954,1.429l-1.396,4.692l-2.221,-6.583c0.855,0.245 1.746,0.4 2.663,0.462Zm-10.575,-4.287l1.437,-0.384c0.775,0.925 1.667,1.738 2.659,2.421l-6.975,3.742l2.879,-5.779Zm-3.025,0.8l-3.438,6.9l-13.658,7.325l10.633,-12.513l6.463,-1.712Zm1.592,-3.196l-0.2,0.396l-5.192,1.379l2.892,-3.413l2.5,1.638Zm-0.009,-4.563c0.096,0.692 0.233,1.375 0.433,2.029l-1.387,-0.908l0.954,-1.121Zm-1.404,-1.975l-1.533,1.8l-10.259,-6.725l6.538,-0.583l5.254,5.508Zm1.446,-1.875l-3.704,-3.896l5.233,-0.466c-0.754,1.325 -1.275,2.796 -1.529,4.362Zm12.891,-10.987c-2.283,-0 -4.425,0.587 -6.291,1.612l-0.333,-0.054l2.47,-7.867l4.504,6.325c-0.116,-0.004 -0.233,-0.016 -0.35,-0.016Zm-3.174,15.941c-0.567,-0.775 -0.705,-1.566 -0.717,-2.079c-0,-0.521 0.087,-0.8 0.087,-0.8c0,0 0.055,0.292 0.234,0.734c0.191,0.437 0.537,1.02 1.112,1.5c0.559,0.475 1.379,0.82 2.192,0.82c0.471,0.017 0.866,-0.091 1.279,-0.237c0.408,-0.154 0.779,-0.404 1.087,-0.717c0.313,-0.304 0.563,-0.679 0.717,-1.083c0.079,-0.2 0.138,-0.421 0.179,-0.592c0.029,-0.071 0.034,-0.246 0.05,-0.366c0.017,-0.067 0.004,-0.205 0.009,-0.3c-0,-0.855 -0.346,-1.65 -0.825,-2.217c-0.475,-0.575 -1.059,-0.921 -1.496,-1.104c-0.434,-0.179 -0.734,-0.242 -0.734,-0.242c0.009,0.017 0.267,-0.083 0.8,-0.083c0.509,0.008 1.305,0.15 2.075,0.716c0.771,0.542 1.5,1.555 1.65,2.813c0.013,0.162 0.038,0.292 0.034,0.492c-0.004,0.145 0.012,0.241 -0.013,0.437c-0.033,0.363 -0.091,0.679 -0.208,0.996c-0.217,0.633 -0.579,1.229 -1.054,1.721c-0.492,0.475 -1.088,0.837 -1.721,1.054c-0.621,0.229 -1.325,0.258 -1.904,0.187c-1.3,-0.15 -2.284,-0.875 -2.833,-1.65Zm1.079,7.305c-1.296,-0.205 -3.271,-0.713 -5.084,-2.263c-1.795,-1.492 -3.466,-3.996 -3.741,-7.046c-0.017,-0.387 -0.084,-0.737 -0.05,-1.162c0.021,-0.371 -0.009,-0.692 0.062,-1.113c0.092,-0.816 0.246,-1.583 0.534,-2.337c0.533,-1.509 1.408,-2.921 2.55,-4.084c1.162,-1.141 2.574,-2.02 4.087,-2.554c1.496,-0.546 3.129,-0.687 4.588,-0.546c0.133,0.009 0.258,0.038 0.387,0.055c-0.275,0.487 -0.542,0.954 -0.804,1.416c-1.234,-0.033 -2.446,0.175 -3.625,0.6c-1.279,0.471 -2.471,1.234 -3.45,2.213c-0.979,0.979 -1.742,2.171 -2.213,3.45c-0.245,0.633 -0.4,1.312 -0.504,1.933c-0.075,0.296 -0.066,0.7 -0.104,1.042c-0.033,0.296 0.012,0.654 0.004,0.971c0.138,2.629 1.354,4.979 2.909,6.466c0.783,0.742 1.579,1.354 2.37,1.767c0.784,0.437 1.534,0.683 2.155,0.871c0.624,0.137 1.129,0.271 1.487,0.296c0.35,0.045 0.537,0.07 0.537,0.07c0,0 -0.187,0.009 -0.541,0.021c-0.354,0.025 -0.875,0.004 -1.554,-0.066Zm12.275,-12.271c0.075,0.666 0.096,1.191 0.066,1.546c-0.012,0.354 -0.016,0.541 -0.016,0.541c-0,0 -0.025,-0.183 -0.075,-0.537c-0.021,-0.35 -0.155,-0.854 -0.292,-1.484c-0.192,-0.625 -0.438,-1.37 -0.879,-2.15c-0.125,-0.241 -0.3,-0.483 -0.459,-0.72c0.167,-0.217 0.334,-0.442 0.505,-0.663c0.704,1.296 1.008,2.55 1.15,3.467Zm4.991,8.208l-3.816,0.333c0.55,-0.962 0.971,-2.004 1.262,-3.104l2.554,2.771Zm-21.241,-39.283l1.991,5.696l-0.908,2.887l-1.392,-1.962l0.309,-6.621Zm-34.155,-104.721c11.767,-3.442 24.15,-5.408 36.942,-5.704l-4.571,98.216l-32.371,-92.512Zm32.076,98.792l-0.438,9.454l-66.2,-92.95c10.029,-6.146 20.858,-11.1 32.3,-14.65l34.338,98.146Zm-131.305,4.804c2.925,-11.9 7.317,-23.229 13.009,-33.767l74.408,48.758l-87.417,-14.991Zm-4.166,34.287c-0,-11 1.283,-21.7 3.637,-31.996l92.867,15.925l14.041,9.205l-110.47,9.804c-0.021,-0.979 -0.075,-1.95 -0.075,-2.938Zm287.341,0c0,11.217 -1.333,22.121 -3.775,32.6l-99.554,-17.471l-12.441,-7.775l115.699,-10.166c0.021,0.937 0.071,1.871 0.071,2.812Zm-73.441,-125.266c9.916,5.583 19.112,12.3 27.4,19.991l-68.342,79.863l-9.375,5.241c2.721,-3.679 5.617,-7.679 8.629,-11.962c1.554,-2.25 3.154,-4.558 4.788,-6.917c1.579,-2.412 3.233,-4.837 4.825,-7.396c3.271,-5.037 6.441,-10.45 9.495,-16.07c2.971,-5.68 5.888,-11.567 8.33,-17.713c0.637,-1.525 1.166,-3.1 1.75,-4.646c0.583,-1.55 1.15,-3.108 1.629,-4.696c0.496,-1.57 0.996,-3.137 1.491,-4.7c0.442,-1.491 0.888,-2.979 1.325,-4.462c1.751,-5.892 3.476,-11.688 5.142,-17.3c0.846,-2.846 1.679,-5.642 2.492,-8.375l0.421,-0.858Zm-62.121,-27.817c5.275,0.283 13.075,0.583 22.825,2.429c7.496,1.384 16.15,3.646 25.516,7.167c-0.204,0.696 -0.412,1.387 -0.616,2.1c-9.183,-3.817 -17.733,-6.367 -25.163,-7.992c-9.608,-2.108 -17.32,-2.854 -22.575,-3.342c-5.279,-0.258 -8.096,-0.395 -8.096,-0.395c0,-0 2.821,0.008 8.109,0.033Zm53.221,-37.629c-0.967,-0.046 -2.392,-0.075 -4.196,-0.217c-3.609,-0.275 -8.788,-0.646 -14.942,-1.671c-3.075,-0.521 -6.404,-1.166 -9.875,-2.091c-3.475,-0.917 -7.117,-2.055 -10.754,-3.625c-3.625,-1.588 -7.312,-3.517 -10.65,-6.175c-3.325,-2.613 -6.313,-6.055 -8.188,-10.021c-1.912,-3.813 -3.216,-8.017 -3.804,-12.221c-0.591,-4.221 -0.333,-8.492 0.655,-12.433c0.958,-3.955 2.72,-7.53 4.845,-10.55c2.146,-3.013 4.654,-5.463 7.192,-7.384c2.542,-1.925 5.096,-3.333 7.437,-4.362c2.346,-1.017 4.446,-1.746 6.2,-2.229c0.196,-0.059 0.371,-0.1 0.555,-0.15c0.575,0.008 1.145,0.02 1.708,0.029c-0.613,0.221 -1.288,0.475 -2.046,0.762c-3.337,1.292 -8.012,3.554 -12.596,7.5c-2.262,1.992 -4.446,4.425 -6.308,7.275c-1.804,2.888 -3.242,6.204 -4.029,9.804c-0.792,3.596 -0.867,7.446 -0.325,11.275c0.567,3.846 1.808,7.605 3.579,11.184c1.633,3.533 4.167,6.521 7.196,8.958c2.996,2.459 6.375,4.417 9.796,6.017c3.441,1.562 6.887,2.891 10.237,3.929c3.346,1.037 6.559,1.908 9.554,2.617c5.996,1.4 11.071,2.35 14.638,2.916c3.566,0.584 5.608,0.913 5.608,0.913c0,-0 -0.517,-0.017 -1.487,-0.05Zm-90.288,-67.563c-0.271,0.671 -0.608,1.475 -0.933,2.417c-0.179,0.467 -0.342,0.971 -0.496,1.504c-0.171,0.529 -0.342,1.088 -0.483,1.679c-0.317,1.171 -0.555,2.463 -0.78,3.821c-0.191,1.371 -0.325,2.821 -0.387,4.325c-0.083,1.509 -0.004,3.071 0.029,4.663c0.079,1.587 0.204,3.216 0.383,4.825c0.155,1.633 0.338,3.266 0.567,4.85c0.221,1.6 0.438,3.179 0.596,4.779c0.158,1.579 0.158,3.283 -0.392,4.833c-0.537,1.55 -1.55,2.704 -2.5,3.567c-1.937,1.729 -3.771,2.733 -5.033,3.462c-1.275,0.709 -2.021,1.071 -2.021,1.071c0,0 0.633,-0.537 1.742,-1.475c1.087,-0.941 2.721,-2.262 4.287,-4.05c0.775,-0.896 1.446,-1.946 1.75,-3.125c0.317,-1.179 0.188,-2.546 -0.016,-4.029c-0.213,-1.479 -0.555,-3.054 -0.809,-4.675c-0.262,-1.633 -0.479,-3.288 -0.666,-4.938c-0.325,-3.35 -0.471,-6.729 -0.134,-9.912c0.129,-1.588 0.413,-3.108 0.75,-4.533c0.35,-1.421 0.759,-2.742 1.25,-3.913c0.454,-1.187 0.971,-2.233 1.475,-3.125c0.475,-0.908 0.979,-1.65 1.379,-2.262c0.392,-0.613 0.771,-1.05 0.996,-1.367c0.238,-0.313 0.363,-0.479 0.363,-0.479c-0,-0 -0.334,0.758 -0.917,2.087Zm1.088,-6.383c-0.838,-1.096 -1.517,-2.413 -2.05,-3.846c-0.413,-1.462 -0.83,-3.05 -0.63,-4.704c0.067,-0.767 0.213,-1.55 0.446,-2.308c0.084,1.666 0.471,3.366 1.271,5c0.088,0.529 0.196,1.05 0.321,1.562c0.321,0.917 0.696,1.788 1.121,2.613c0.55,1.716 1.404,3.433 2.617,4.979c-0.18,-0.146 -0.351,-0.267 -0.521,-0.429c-0.467,-0.371 -0.88,-0.842 -1.317,-1.313c-0.462,-0.454 -0.858,-0.996 -1.258,-1.554Zm448.933,143.342l41.533,58.312l-45.116,-56.004c1.175,-0.796 2.383,-1.546 3.583,-2.308Zm73.867,90.1l-2.879,-8.221l4.854,-104.209c0.325,0 0.65,-0.025 0.975,-0.025c10.733,0 21.179,1.221 31.245,3.463l-34.195,108.992Zm17.995,13.766l-5.854,3.271c-2.104,-1.45 -4.541,-2.442 -7.175,-2.837l-3.671,-10.488l35.196,-112.171c12.221,2.934 23.85,7.404 34.642,13.246l-53.138,108.979Zm14.242,-7.962l-10.654,5.954l51.596,-105.808c9.917,5.583 19.112,12.3 27.4,19.991l-68.342,79.863Zm5.925,-3.309l64.117,-74.933c8.354,8.008 15.741,17.008 21.975,26.817l-86.092,48.116Zm-9.437,11.025l5.025,-5.87l91.775,-51.292c6.216,10.137 11.208,21.1 14.771,32.687l-111.571,24.475Zm-1.179,22.984l-7.938,-4.963c0,-0.108 0.017,-0.212 0.017,-0.325c-0,-2.054 -0.375,-4.021 -1.038,-5.85l7.604,-8.883l114.75,-25.175c3.213,11.092 5.121,22.729 5.55,34.742l-118.945,10.454Zm101.529,63.454l-80.484,-50.3l93.725,16.45c-2.991,11.942 -7.466,23.296 -13.241,33.85Zm-22.192,30.3l-77.346,-83.942l12.9,2.263l85.467,53.416c-5.846,10.28 -12.917,19.763 -21.021,28.263Zm-28.929,23.446l-67.734,-101.367l0.271,-5.512c0.238,-0.08 0.409,-0.134 0.45,-0.146l-0.141,-0.438c1.279,-0.716 2.45,-1.596 3.5,-2.6l11.425,2.004l79.533,86.317c-8.171,8.296 -17.333,15.613 -27.304,21.742Zm-36.2,15.821l-32.546,-96.45l0.821,-16.8l65.9,98.629c-10.596,6.275 -22.063,11.216 -34.175,14.621Zm-32.863,-90.042l30.6,90.683c-11.275,2.967 -23.091,4.584 -35.262,4.692l4.662,-95.375Zm-7.212,-21.371l5.158,15.288l-4.962,101.462c-11.6,-0.083 -22.875,-1.55 -33.675,-4.246l33.479,-112.504Zm-17.979,-2.692c5.983,-1.908 11.196,-3.579 15.408,-4.933l1.271,3.767l-34.454,115.775c-11.546,-3.084 -22.517,-7.571 -32.734,-13.271l50.509,-101.338Zm-17.521,5.567c5.129,-1.625 9.95,-3.158 14.4,-4.575l-49.425,99.171c-10.05,-5.821 -19.329,-12.825 -27.654,-20.825l62.679,-73.771Zm-4.704,1.913l-59.675,70.237c-8.109,-8.046 -15.263,-17.054 -21.28,-26.833l80.955,-43.404Zm-67.805,20.658c19.884,-6.063 39.913,-12.3 57.659,-17.883l-72.013,38.612c-1.587,-2.675 -3.075,-5.404 -4.491,-8.183c9.179,-3.121 15.295,-7.204 18.845,-12.546Zm-107.004,8.871c0.005,0.112 0.025,0.216 0.025,0.333l0,12.863c-4.045,-0.43 -7.908,-1.471 -11.5,-3.03c2.492,-3.67 6.592,-6.983 11.475,-10.166Zm-12.321,-4.784c2.617,-2.616 6.3,-2.654 8.963,-1c-5.762,3.763 -10.854,7.913 -14.038,12.755c-1.333,-0.875 -2.612,-1.825 -3.829,-2.85l8.904,-8.905Zm-11.041,-18.275c6.441,0 9.671,7.792 5.112,12.346l-8.783,8.784c-4.608,-5.934 -7.558,-13.205 -8.171,-21.13l11.842,0Zm2.379,-8.779c-0.729,0.25 -1.525,0.396 -2.379,0.396l-11.609,0c0.588,-4.333 1.871,-8.446 3.742,-12.217l10.246,11.821Zm-4.621,-19.033c2.338,2.537 4.238,4.479 5.504,5.821c1.279,1.341 1.959,2.054 1.959,2.054c-0,-0 -0.609,-0.775 -1.75,-2.229c-0.225,-0.284 -0.484,-0.617 -0.75,-0.954l2.391,2.391c2.546,2.546 2.659,6.096 1.142,8.738l-11.446,-13.204c0.75,-1.109 1.558,-2.171 2.413,-3.196c0.175,0.191 0.366,0.396 0.537,0.579Zm6.067,-6.063l-0.45,-0.45c0.046,-0.033 0.092,-0.07 0.137,-0.104l0.313,0.554Zm-23.313,-16.804c-0.862,-1.054 -1.75,-2.133 -2.646,-3.229c0.284,0.013 0.575,0 0.867,-0.071l11.992,-2.983l9.437,16.633c-2.358,1.738 -4.541,3.692 -6.529,5.838c-3.671,-4.579 -8.067,-10.063 -13.121,-16.188Zm-13.366,-10.429c3.925,4.354 7.679,8.492 11.183,12.321c5.4,5.946 10.25,11.129 14.283,15.446c-0.816,0.941 -1.596,1.908 -2.333,2.916l-27.108,-31.279c1.216,0.279 2.541,0.484 3.975,0.596Zm-161,-424.946c-0.509,0.442 -0.954,0.867 -1.342,1.255c0.358,-0.401 0.817,-0.821 1.342,-1.255Zm-24.946,2.604c1.771,2.975 6.329,10.221 10.912,14.259c-0.891,-0.371 -2.104,-1.179 -3.558,-2.646c-3.733,-3.767 -6.433,-8.925 -7.354,-11.613Zm-2.663,-7.945c-0.421,-0.013 -0.825,-0.046 -1.225,-0.092c0.2,-0.096 0.638,-0.275 1.225,-0.275l0,0.367Zm65.221,-11.867c0,-0 0.325,-0.713 1.125,-1.762c0.742,-1.076 2.092,-2.417 3.921,-3.405c1.346,-0.758 3.096,-1.079 4.829,-0.879c1.867,1.433 4.038,3.192 6.3,5.213c0.083,0.216 0.175,0.429 0.246,0.65c0.521,1.275 0.879,2.679 1.2,4.112c0.313,1.454 0.629,2.888 0.804,4.204c0.379,2.642 0.238,4.979 -1.062,6.588c-1.246,1.604 -2.863,2.712 -3.992,3.387c-0.454,0.292 -0.808,0.513 -1.104,0.692c-7.238,-6.263 -13.054,-13.254 -17.088,-18.729c5.109,-2.8 9.05,-5.671 4.705,-5.671c-0.809,-0 -1.905,0.1 -3.334,0.317c-1.292,0.195 -2.796,0.545 -4.441,1c-0.271,-0.405 -0.526,-0.784 -0.763,-1.15c4.913,-0.88 9.454,-1.509 13.704,-1.971c-0.362,0.208 -0.708,0.425 -1.016,0.654c-2.05,1.513 -2.946,3.433 -3.48,4.675c-0.466,1.308 -0.554,2.075 -0.554,2.075Zm20.925,12.363c0.438,-1.446 0.529,-3.017 0.396,-4.53c-0.125,-1.475 -0.371,-2.9 -0.608,-4.341c2.429,2.479 4.804,5.204 6.866,8.1c-1.816,4.191 -4.279,8.658 -7.591,13.154c-2.638,-1.788 -5.138,-3.725 -7.488,-5.746c0.313,-0.079 0.679,-0.171 1.138,-0.3c1.254,-0.454 3.266,-0.921 5.137,-2.729c0.9,-0.9 1.733,-2.154 2.15,-3.608Zm-40.092,-15.584c0.355,0.596 0.825,1.358 1.4,2.263c-13.587,5.141 -29.379,12.841 -29.379,12.841c-1.175,-0.671 -2.996,-0.996 -5.058,-0.996c-0.721,0 -1.475,0.042 -2.238,0.121c10.646,-6.295 22.45,-11.075 35.275,-14.229Zm-24.095,23.325c-0.046,0.871 0.25,1.721 0.825,2.375c0.05,0.059 1.229,1.442 -0.059,3.371c-0.583,0.875 -1.087,1.721 -1.575,2.537c-0.166,0.284 -0.329,0.546 -0.487,0.813c0.337,-0.871 0.579,-1.788 0.662,-2.725c0.442,-5.017 -5.395,-11.621 -11.229,-10.867c-3.837,0.5 -6.612,1.917 -7.696,2.55c0.775,-1.8 5.617,-3.916 10.617,-3.916c1.792,-0 2.946,0.3 3.392,0.554c0.516,0.296 1.091,0.442 1.666,0.442c0.5,-0 1.004,-0.113 1.471,-0.338c0.129,-0.067 5.754,-2.8 13.071,-6.058c-1.483,0.837 -2.858,1.65 -4.046,2.391c-1.471,0.896 -2.65,1.729 -3.487,2.28c-0.834,0.57 -1.292,0.92 -1.292,0.92c-0,0 0.525,-0.229 1.45,-0.637c0.912,-0.413 2.221,-1.009 3.787,-1.721c0.021,-0.008 0.051,-0.025 0.071,-0.033c-5.075,3.2 -7.025,5.604 -7.141,8.062Zm71.433,46.458l-1.854,-33.529c3.037,-3.816 5.512,-7.629 7.537,-11.341c3.213,5.4 5.75,9.833 7.404,12.771c-1.354,5.462 -4.037,11.704 -6.654,17.791c-2.2,5.109 -4.3,10.008 -5.662,14.471c-0.25,-0.05 -0.509,-0.104 -0.771,-0.163Zm366.917,386.371c0.083,-0.004 0.166,-0.012 0.254,-0.012c2.966,-0 5.687,1.062 7.8,2.825c-1.154,-0.771 -2.404,-1.3 -3.629,-1.571c-1.43,-0.321 -2.809,-0.288 -4.013,-0.071c-1.208,0.204 -2.254,0.613 -3.079,1.108c-0.846,0.45 -1.458,1.021 -1.938,1.475c-0.474,0.5 -0.77,0.905 -0.945,1.196c-0.184,0.292 -0.28,0.446 -0.28,0.446c0,0 0.163,-0.083 0.471,-0.233c0.292,-0.184 0.775,-0.354 1.304,-0.579c0.575,-0.192 1.263,-0.392 2.042,-0.509c0.779,-0.129 1.663,-0.121 2.563,-0.029c1.816,0.229 3.75,1.05 5.17,2.529c0.15,0.175 0.405,0.409 0.471,0.534c0.179,0.237 0.5,0.575 0.554,0.729c0.2,0.341 0.488,0.825 0.671,1.3c0.392,0.954 0.617,1.996 0.613,3.037c0.004,1.05 -0.225,2.084 -0.613,3.042c-0.425,0.967 -0.933,1.783 -1.746,2.6c-1.324,1.396 -3.329,2.271 -5.116,2.487c-0.904,0.092 -1.788,0.1 -2.563,-0.029c-0.783,-0.116 -1.471,-0.312 -2.046,-0.504c-0.541,-0.237 -1.016,-0.404 -1.304,-0.579c-0.308,-0.15 -0.471,-0.233 -0.471,-0.233c0,-0 0.096,0.158 0.28,0.45c0.183,0.295 0.487,0.708 0.945,1.195c0.476,0.455 1.088,1.025 1.934,1.48c0.829,0.491 1.871,0.904 3.083,1.104c2.229,0.433 5.067,0.079 7.629,-1.634c-2.112,1.759 -4.829,2.813 -7.787,2.813c-3.163,-0 -6.029,-1.208 -8.196,-3.179l-157.096,24.787c-0.017,-0.658 -0.046,-1.308 -0.092,-1.958c0.513,-0.067 1.013,-0.133 1.534,-0.204c8.4,-1.104 18.187,-2.463 28.662,-3.992c5.238,-0.775 10.646,-1.579 16.146,-2.392c5.492,-0.845 11.071,-1.704 16.65,-2.562c5.575,-0.896 11.15,-1.796 16.638,-2.675c5.483,-0.913 10.879,-1.813 16.1,-2.679c10.437,-1.763 20.17,-3.475 28.5,-5.009c8.337,-1.5 15.262,-2.9 20.121,-3.808c4.845,-0.975 7.616,-1.533 7.616,-1.533c0,-0 -2.808,0.325 -7.721,0.887c-4.9,0.625 -11.921,1.421 -20.316,2.554c-8.396,1.1 -18.184,2.459 -28.663,3.992c-5.233,0.775 -10.646,1.579 -16.142,2.396c-5.491,0.846 -11.07,1.704 -16.654,2.562c-5.571,0.896 -11.146,1.796 -16.633,2.68c-5.483,0.912 -10.879,1.808 -16.1,2.679c-10.438,1.762 -20.171,3.475 -28.5,5.008c-0.475,0.083 -0.929,0.167 -1.396,0.254c-0.292,-2.675 -0.817,-5.279 -1.546,-7.8l155.113,-24.462c0.383,-2.025 1.258,-3.875 2.508,-5.413l-133.133,-164.812l-14.729,51.079c-0.325,-0.842 -0.671,-1.683 -1.034,-2.525c0.863,-3.142 1.713,-6.258 2.563,-9.317c1.825,-6.529 3.491,-12.866 5.096,-18.866c1.621,-6 3.083,-11.688 4.437,-16.942c5.442,-21 8.642,-35.125 8.642,-35.125c-0,-0 -4.817,13.658 -11.404,34.329c-1.654,5.163 -3.446,10.763 -5.271,16.7c-1.842,5.933 -3.809,12.183 -5.742,18.679c-0.437,1.459 -0.896,2.959 -1.342,4.438c-2.266,-3.967 -4.979,-7.45 -8.141,-9.617l12.279,-42.575l-41.146,-2.342c-0.258,-0.925 -0.525,-1.895 -0.792,-2.891c0.034,-0 0.071,0.004 0.105,0.004c20.991,0.679 35.008,0.762 35.008,0.762c-0,0 -13.938,-1.487 -34.875,-3.166c-0.292,-0.025 -0.6,-0.046 -0.896,-0.071c-0.254,-0.971 -0.508,-1.942 -0.771,-2.967c-0.716,-2.75 -1.483,-5.679 -2.316,-8.729l50.45,2.871l4.245,-14.733l16.117,4.645l-7.004,24.288l138.867,172.383Zm-4.038,-13.033l-1.562,-1.942l0.279,-6.012l1.991,5.7l-0.708,2.254Zm1.775,2.2l0.234,-0.746l0.641,1.833l-0.875,-1.087Zm19.879,7.279l0.013,-0.029l8.046,-4.496l-2.905,3.396l-5.154,1.129Zm-3.033,6.221l1.721,-3.529l3.933,-0.863l-4.867,5.692c-0.245,-0.446 -0.508,-0.879 -0.787,-1.3Zm4.292,15.367l-1.85,-2.005c0.07,-0.304 0.129,-0.608 0.179,-0.916l4.308,2.691l-2.637,0.23Zm2.008,2.183l3.938,-0.346l10.162,6.35l-10.217,-1.792l-3.883,-4.212Zm-5.696,0.5l2.742,-0.242l3.025,3.288l-6.975,-1.225c0.437,-0.584 0.846,-1.188 1.208,-1.821Zm-10.1,8.117c0.308,-0.1 0.592,-0.192 0.863,-0.28l-0.071,1.467l-0.792,-1.187Zm-2.775,0.895c0.15,-0.05 0.304,-0.1 0.45,-0.15l2.925,4.375l-0.683,13.992l-4.313,-12.775l1.621,-5.442Zm-2.708,0.871l-0.213,0.713l-0.2,-0.584c0.142,-0.045 0.271,-0.087 0.413,-0.129Zm-8.434,-3.816c0.455,0.287 0.921,0.55 1.4,0.787c-2.17,0.696 -4.554,1.458 -7.116,2.279l5.716,-3.066Zm-97.158,19.345l40.921,-10.837l36.571,-5.771l-5.554,6.538c-20.359,6.458 -46.009,14.512 -71.684,22.362c1.009,-3.779 0.925,-7.892 -0.254,-12.292Zm-42.754,2.367l1.479,-0.233c1.65,6.3 3.933,13.229 7.025,20.558c-0.717,0.213 -1.429,0.425 -2.142,0.633c-2.866,-7.512 -4.92,-14.566 -6.362,-20.958Zm-58.333,25.225c-0,-1.721 0.566,-3.196 1.462,-4.371l8.508,14.825c-3.15,1.217 -6.491,2.042 -9.97,2.409l-0,-12.863Zm-58,-84.587l0.825,3.325c-0.863,-1.05 -1.75,-2.117 -2.638,-3.192c0.596,-0.033 1.204,-0.079 1.813,-0.133Zm-143.105,-221.909c0.317,-1.337 0.726,-2.733 1.134,-4.137c0.817,0.187 1.637,0.354 2.458,0.512c-0.479,1.467 -0.958,2.925 -1.479,4.275c-0.542,1.442 -1.092,2.775 -1.613,3.9c-1.012,2.259 -1.895,3.7 -1.895,3.7c-0,0 0.083,-1.687 0.525,-4.125c0.208,-1.221 0.504,-2.633 0.87,-4.125Zm332.967,-166.725c14.463,35.042 -39.629,92.884 -136.471,107.279c-12.575,-26.033 -18.275,-51.258 -19.608,-57.741c12.383,-3.192 28.679,-7.096 44.742,-10.063c33.025,-6.1 38.504,-15.516 39.266,-17.341c0.054,-0.129 0.105,-0.275 0.142,-0.405c0.033,-0.125 3.587,-12.337 18.679,-23.562c10.867,-8.079 22.346,-20.538 31.117,-32.208c10.233,11.558 17.758,23.445 22.133,34.041Zm-108.471,441.446c-2.975,0 -5.25,-1.667 -6.404,-3.904l16.567,-2.613c0.662,2.105 1.141,4.28 1.441,6.517l-11.604,0Zm-7.325,30.375l5.184,5.188c-0.492,0.416 -0.996,0.82 -1.513,1.212l-3.671,-6.4Zm-82.25,-236.317c23.025,19.551 30.538,42.05 32.679,58.1c-1.949,4.205 -6.95,15.209 -11.412,26.905c-4.463,11.691 -7.625,15.633 -13.925,23.487c-0.938,1.167 -1.929,2.4 -2.988,3.742c-0.983,1.246 -2.187,2.262 -3.516,3.171l-112.113,-129.375l102.959,5.858c2.633,2.9 5.4,5.637 8.316,8.112Zm-10.687,-167.354l-0,-0.004l-0,0.004Zm21.196,-13.754c-6.825,3.342 -13.017,6.683 -17.817,9.35c-0.475,-4.171 -1.142,-7.975 -1.829,-11.225c5.466,0.892 12.021,1.517 19.646,1.875Zm15.266,57.167c0.321,0.012 0.642,0.016 0.963,0.025c-13.338,1.354 -27.196,2.291 -39.192,1.996c2.413,-13.03 4.058,-25.475 4.6,-35.267c2.025,-1.725 6.75,-5.646 11.871,-9.175c6.737,-4.758 14.104,-8.746 14.104,-8.746c0,0 -5.058,1.258 -11.079,3.267c7.692,-3.971 16.725,-8.288 25.596,-11.667c0.487,-0.129 0.987,-0.266 1.496,-0.4c1.404,6.875 6.275,28.304 16.725,51.925c-5.892,1.167 -15.48,2.883 -25.246,3.854c-15.742,1.763 -31.717,1.534 -31.717,1.534c0,-0 15.796,2.329 31.879,2.654Zm50.709,81.012c1.408,-5.229 2.929,-11.721 4.45,-18.691c5.52,3.65 16.495,10.333 31.258,16.545c0.262,2.475 0.254,5.076 -0.096,7.796c-0.425,3.3 -0.954,6.292 -1.55,9.059l-35.683,-2.034c0.3,-5.354 0.821,-9.712 1.621,-12.675Zm66.416,115.975c-0.825,-8.129 -1.958,-15.458 -3.587,-21.429c-3.434,-12.612 -6.684,-21.175 -9.254,-26.812l3.012,-10.446l30.059,37.212c-7.355,6.55 -14.13,13.734 -20.23,21.475Zm106.005,88.221l-79.463,-83.412c2.662,-2.834 5.417,-5.58 8.3,-8.192l73.933,91.521l-2.77,0.083Zm6.437,6.758l-1.779,-1.866l2.079,-0.063l1.433,1.775l-1.733,0.154Zm-102.55,11.459l91.312,-8.104l0.225,0.15l-88.729,13.995c-0.975,-1.916 -1.921,-3.912 -2.808,-6.041Zm-22.271,1.979l1.146,-0.104c0.417,2.7 0.767,5.3 1.037,7.775l-1.687,0.266c-0.238,-2.625 -0.4,-5.275 -0.496,-7.937Zm-9.55,2.821c-0.021,-5.288 -0.033,-8.113 -0.033,-8.113c-0,0 0.137,2.817 0.4,8.092c0.175,1.879 0.383,4.079 0.675,6.558l-0.658,0.1c-0.176,-2.516 -0.28,-4.746 -0.384,-6.637Zm-64.721,2.746c-0.271,0.337 -0.566,0.65 -0.887,0.933l-3.225,-5.683l4.112,4.75Zm-12.804,-34.221c1.65,-0.413 2.654,-2.079 2.242,-3.725l-1.517,-6.104c-0.121,-0.492 -0.362,-0.913 -0.675,-1.271c9.004,-5.234 18.588,-13.471 27.25,-20.929c1.683,-1.446 3.329,-2.859 4.925,-4.217l-13.967,48.433c-5.437,0.034 -10.654,1.004 -15.495,2.759l-6.705,-7.734l-3.099,-5.462l7.041,-1.75Zm64.046,12.712l-0.767,0.021c-1.912,-8.317 -5.325,-18.55 -9.029,-28.504l12.642,-43.838c2.096,9.83 4.166,18.421 5.929,24.23c0.221,0.737 0.458,1.52 0.696,2.329c-5.2,14.441 -8.459,29.8 -9.471,45.762Zm40.071,-57.404l74.408,48.758l-75.771,-12.991c-0.383,-7.334 -0.633,-15.6 -0.887,-24.109c-0.071,-2.283 -0.138,-4.575 -0.213,-6.862c0.796,-1.613 1.609,-3.217 2.463,-4.796Zm1.804,61.175l87.533,-2.629l4.034,2.642l-89.05,7.904c-0.929,-2.434 -1.78,-5.046 -2.517,-7.917Zm-18.979,6.879c-0,-0.679 0.037,-1.35 0.05,-2.025c0.304,1.65 0.591,3.288 0.858,4.888l-0.837,0.075c-0.017,-0.979 -0.071,-1.95 -0.071,-2.938Zm102.308,-15.075l3.271,0.563l-2.308,0.066l-0.963,-0.629Zm-3.137,0.754l-81.305,2.446c-0.141,-0.737 -0.275,-1.483 -0.4,-2.25c-0.683,-4.183 -1.158,-9.591 -1.52,-15.762l80.558,13.816l2.667,1.75Zm-142.125,10.771l0.425,-1.479l13.104,-0.392l0.254,1.35c1.713,9.13 2.721,14.525 2.292,18.734c-3.65,-7.409 -9.225,-13.696 -16.075,-18.213Zm-2.975,20.975l7.787,-7.787c2.242,2.662 4.138,5.625 5.625,8.821l-15.337,2.416c0.287,-1.229 0.9,-2.425 1.925,-3.45Zm1.008,-14.154c0.246,0.183 0.487,0.371 0.729,0.558l-1.25,1.25l0.521,-1.808Zm-12.183,10.338c1.129,-3.284 2.82,-8.271 4.912,-14.596c0.971,0.437 1.925,0.908 2.854,1.421l-3.412,11.829c-1.338,0.979 -2.863,1.383 -4.354,1.346Zm-7.1,-17.859c3.6,0.384 7.054,1.254 10.3,2.538c-1.646,6.641 -2.9,11.883 -3.705,15.3c-3.458,-0.334 -6.595,-3.117 -6.595,-7.209l-0,-10.629Zm-8.384,0l0,6.617l-0.562,1.95l-6.254,-7.221c2.2,-0.637 4.479,-1.096 6.816,-1.346Zm36.725,-23.883c2.171,6.283 4.075,12.387 5.367,17.712l-10.567,0.317l5.2,-18.029Zm-13.433,18.275c0.667,-2.054 1.35,-4.179 2.058,-6.408c3.321,-10.325 7.088,-22.405 11.017,-35.38c1.938,-6.491 4.025,-13.179 6,-20.016c0.542,-1.85 1.092,-3.725 1.637,-5.592c0.684,-0.446 1.363,-0.9 2.042,-1.362l-19.804,68.67l-2.95,0.088Zm1.429,-55.338c1.167,-0.895 2.258,-1.687 3.246,-2.337c1.988,-1.308 4.429,-2.733 7.017,-4.246c0.925,-0.537 1.875,-1.096 2.837,-1.667c-0.042,0.146 -0.083,0.292 -0.121,0.438c-1.975,6.837 -3.775,13.608 -5.591,20.133c-3.588,13.071 -6.838,25.3 -9.534,35.809c-0.654,2.537 -1.279,4.966 -1.866,7.287l-4.654,0.142c-2.267,-0.6 -4.596,-1.038 -6.984,-1.288l15.65,-54.271Zm-37.246,59.213c0.021,-0.004 0.038,-0.017 0.059,-0.025c1.416,-0.458 2.725,-0.988 4.008,-1.313c1.288,-0.304 2.492,-0.583 3.608,-0.845c1.13,-0.175 2.175,-0.292 3.113,-0.421c0.466,-0.059 0.912,-0.117 1.329,-0.175c0.421,-0.029 0.817,-0.021 1.187,-0.034c0.734,-0.016 1.359,-0.029 1.863,-0.041c1.012,-0.021 1.55,-0.029 1.55,-0.029c-0,-0 -0.538,0.041 -1.546,0.12c-1.004,0.13 -2.496,0.088 -4.342,0.484c-0.925,0.166 -1.954,0.325 -3.058,0.55c-1.092,0.304 -2.267,0.637 -3.525,0.987c-1.237,0.375 -2.496,0.946 -3.846,1.45l-0.4,-0.708Zm199.434,-1.221l-3.709,-2.429l9.413,-0.283l1.937,2.037l-7.641,0.675Zm-76.892,-89.412l77.471,81.32l-17.513,-3.004l-79.054,-51.804c5.367,-9.558 11.767,-18.462 19.096,-26.512Zm-83.142,-159.18c5.792,3.184 16.175,9.946 22.454,20.163c-1.245,-0.646 -2.516,-1.312 -3.787,-2.004c-1.883,-0.929 -3.754,-1.884 -5.496,-2.8c-1.737,-0.925 -3.421,-1.684 -4.817,-2.417c-1.404,-0.721 -2.625,-1.246 -3.454,-1.662c-0.846,-0.38 -1.329,-0.6 -1.329,-0.6c0,-0 0.417,0.333 1.142,0.912c0.746,0.546 1.779,1.388 3.104,2.258c1.325,0.875 2.85,1.938 4.563,2.934c1.716,0.996 3.562,2.033 5.42,3.046c1.9,0.933 3.813,1.841 5.617,2.666c0.162,0.075 0.321,0.142 0.483,0.213c0.588,1.141 1.109,2.321 1.579,3.537c-14.187,-6.412 -24.137,-12.875 -27.708,-15.329c0.758,-3.617 1.504,-7.287 2.229,-10.917Zm-43.812,-5.504c2,0.05 4.133,0.079 6.4,0.079c8.558,0 19.416,-0.433 31.996,-1.808c-2.888,14.804 -6.334,31.346 -9.255,42.183c-0.762,2.834 -1.295,6.763 -1.645,11.496c-4.996,-16.437 -12.688,-35.412 -27.496,-51.95Zm93.529,25.067c1.479,-5.633 3.096,-11.225 4.717,-16.817c1.62,-5.604 3.32,-11.162 5.054,-16.725c0.412,-1.379 0.896,-2.796 1.391,-4.158c0.459,-1.313 0.942,-2.671 1.501,-3.963c0.429,-0.141 0.845,-0.295 1.27,-0.441c-0.079,0.221 -0.154,0.446 -0.237,0.662c-0.521,1.363 -0.925,2.721 -1.342,4.134c-0.441,1.395 -0.796,2.762 -1.2,4.179c-1.567,5.604 -3.2,11.2 -4.85,16.771c-1.662,5.579 -3.337,11.154 -5.125,16.695c-1.725,5.563 -3.491,11.113 -5.4,16.621c1.296,-5.683 2.738,-11.329 4.221,-16.958Zm-94.963,118.079c-1.07,-8.587 -3.554,-18.783 -8.658,-29.404c6.167,-0.833 20.646,-3.317 32.563,-9.358c2.133,5.279 3.966,10.15 5.383,14.366c5.771,17.175 11.117,23.992 14,26.617c-3.908,2.546 -8.592,3.958 -13.575,3.958l-0.212,0c-13.196,-0.108 -24.967,-4.329 -29.501,-6.179Zm53.813,177.438l-8.783,-8.784c-1.063,-1.062 -1.688,-2.304 -1.959,-3.583c2.75,-1.671 5.392,-3.392 7.817,-5.2l10.912,-1.721c-0.895,7.208 -3.737,13.817 -7.987,19.288Zm5.229,-214.575c0.279,3.404 0.733,7.487 1.325,12.025l-0.446,1.537c-0.779,-0.171 -1.579,-0.267 -2.4,-0.267c-0.316,0 -0.654,0.013 -1.012,0.046c-4.867,-7.571 -14.354,-23.237 -19.167,-37.225c-0.029,-0.083 -0.054,-0.183 -0.083,-0.266l24.962,1.42c-2.383,6.563 -3.966,13.159 -3.179,22.73Zm-215.241,-70.925c-0.871,-1.617 -2.146,-2.905 -3.663,-3.85l4.704,-15.705c19.875,3.534 48.746,8.4 67.509,8.4c3.212,0 6.029,-0.145 8.479,-0.437c2.245,5.729 6.279,15.217 11.966,25.542l-88.483,-5.038l0.296,-0.992c0.8,-2.662 0.512,-5.475 -0.808,-7.92Zm83.283,-14.05c3.129,-2.259 8.375,-7.488 11.704,-18.6c1.283,-4.292 2.513,-8.784 3.679,-13.375c6.688,3.325 24.425,13.345 37.854,31.812c13.292,18.271 30.688,52.621 41.675,78.867c-12.529,6.429 -28.962,8.741 -33.112,9.237c-5.375,-9.746 -13.059,-19.695 -23.967,-28.958c-19.846,-16.85 -33.075,-46.883 -37.833,-58.983Zm24.054,203.1c-4.079,-10.992 4.617,-12.267 12.579,-17.109c0.404,0.096 1.059,0.242 1.933,0.384c1.413,0.241 3.3,0.4 5.15,0.341c1.855,-0.058 3.655,-0.321 4.963,-0.629c1.312,-0.296 2.15,-0.579 2.15,-0.579c-0,-0 -3.575,-0.138 -6.762,-1.283c-1.167,-0.396 -2.271,-0.884 -3.196,-1.359c0.787,-0.716 1.541,-1.5 2.237,-2.379c4.504,-5.708 7.779,-9.508 10.729,-14.142l20.909,4.363l-17.517,-10.417c0.442,-0.896 0.887,-1.846 1.333,-2.846l23.617,5.517l-20.925,-12.079c0.408,-1.058 0.817,-2.104 1.229,-3.142l25.508,8.234l-22.745,-15.03c2.421,-5.799 4.67,-10.829 6.129,-14.016c5.129,2.075 17.183,6.283 31.004,6.391c0.083,0 0.167,0.005 0.25,0.005c3.271,-0 6.437,-0.517 9.412,-1.475c-3.345,1.883 -7.15,3.612 -11.208,4.77c-7.121,2.138 -14.821,2.259 -20.433,1.267c-2.817,-0.479 -5.121,-1.162 -6.7,-1.733c-0.804,-0.258 -1.404,-0.534 -1.829,-0.696c-0.417,-0.167 -0.642,-0.258 -0.642,-0.258c-0,-0 0.208,0.121 0.604,0.341c0.396,0.213 0.967,0.567 1.729,0.929c1.509,0.78 3.734,1.775 6.542,2.646c5.592,1.763 13.629,2.729 21.587,1.442c7.967,-1.171 15.53,-4.392 20.805,-7.383c2.645,-1.496 4.762,-2.905 6.212,-3.934c0.25,-0.175 0.458,-0.325 0.667,-0.475c1.85,1.246 3.458,3.013 4.329,5.567c0.379,1.112 -0.246,3.008 -1.683,5.487c-9.4,7.209 -27.746,21.275 -46.109,35.35c-6.591,4.996 -13.096,10.175 -19.341,14.659c-6.246,4.475 -12.534,8.004 -18.363,9.933c-5.817,1.983 -11.021,2.408 -14.608,2.213c-1.804,-0.075 -3.209,-0.305 -4.163,-0.471c-0.946,-0.196 -1.454,-0.304 -1.454,-0.304c0,-0 0.5,0.137 1.438,0.391c0.941,0.225 2.337,0.542 4.15,0.729c3.604,0.417 8.925,0.317 15.004,-1.354c6.091,-1.608 12.783,-4.85 19.408,-9.012c6.634,-4.179 13.392,-8.913 20.288,-13.509c8.904,-6.004 17.8,-12.004 25.766,-17.375c-20.596,20.484 -52.737,45.438 -73.766,49.534c-0.88,0.066 -1.746,0.112 -2.584,0.112c-6.408,0 -11.554,-2.016 -13.633,-7.616Zm40.321,15.041c-0.484,0.525 -1.138,0.896 -1.729,1.113c-1.313,0.487 -2.613,0.283 -3.517,-0.184c-0.929,-0.458 -1.458,-1.15 -1.725,-1.633c-0.262,-0.5 -0.321,-0.808 -0.321,-0.808c0,-0 0.192,0.254 0.579,0.604c0.392,0.337 1.013,0.746 1.809,0.937c0.783,0.196 1.766,0.138 2.575,-0.266c0.466,-0.217 0.812,-0.517 1.15,-0.871c0.321,-0.358 0.57,-0.792 0.716,-1.254c0.159,-0.463 0.213,-0.959 0.163,-1.438c-0.025,-0.237 -0.079,-0.483 -0.125,-0.679c-0.013,-0.087 -0.092,-0.258 -0.138,-0.383c-0.021,-0.079 -0.1,-0.204 -0.141,-0.304c-0.205,-0.392 -0.48,-0.725 -0.788,-1.009c0.475,-0.171 0.942,-0.341 1.409,-0.512c0.233,0.221 0.445,0.471 0.633,0.754c0.091,0.15 0.183,0.262 0.271,0.454c0.066,0.142 0.129,0.229 0.2,0.425c0.145,0.363 0.241,0.696 0.283,1.054c0.1,0.713 0.042,1.454 -0.175,2.154c-0.238,0.696 -0.629,1.33 -1.129,1.846Zm85.604,77.209c-3.592,3.5 -7.529,6.783 -11.567,9.72c-3.471,0.98 -6.816,1.913 -10.041,2.8c7.42,-7.508 12.283,-17.537 13.2,-28.687l3.512,-0.558c1.346,5.695 2.988,11.275 4.896,16.725Zm50.112,-23.38c-0.216,-0.65 -0.441,-1.287 -0.675,-1.916l19.571,-3.088l-18.896,5.004Zm76.821,-9.158l4.896,-5.758l8.204,-1.296l-0.47,0.942l-9.609,5.154c-0.987,0.312 -1.996,0.633 -3.021,0.958Zm42.23,-34.725l0.983,-0.217l-0.4,0.821c-0.188,-0.208 -0.384,-0.408 -0.583,-0.604Zm-258.83,-7.05l7.892,-1.962l32.129,56.62c0.392,0.663 0.167,1.521 -0.496,1.913l-4.341,2.554c-0.217,0.125 -0.455,0.192 -0.705,0.192c-0.504,-0 -0.954,-0.259 -1.195,-0.667l-33.284,-58.65Zm206.959,-118.654c11.766,-3.442 24.15,-5.408 36.946,-5.704l-4.576,98.221l-32.37,-92.517Zm32.079,98.796l-0.429,9.179l-1.775,-2.204l-64.438,-90.475c10.029,-6.146 20.859,-11.096 32.3,-14.65l34.342,98.15Zm-22.538,-286.121c0,7.129 -27.95,21.412 -41.496,21.412c-0.954,0 -1.854,-0.037 -2.787,-0.049c0.796,-0.592 1.571,-1.192 2.342,-1.792c0.479,-0 0.875,0.021 1.475,-0.013l1.52,-0.1c1.025,-0.104 2.163,-0.291 3.167,-0.5c2.009,-0.45 3.925,-0.996 5.742,-1.637c3.646,-1.254 6.937,-2.771 9.896,-4.3c5.916,-3.075 10.429,-6.329 13.404,-8.792c0.754,-0.608 1.404,-1.175 1.937,-1.708c0.546,-0.517 1.009,-0.95 1.35,-1.346c0.7,-0.754 1.075,-1.158 1.075,-1.158c0,-0 -0.421,0.354 -1.208,1.02c-0.788,0.659 -1.992,1.563 -3.571,2.638c-1.562,1.1 -3.558,2.292 -5.871,3.587c-2.341,1.259 -5.029,2.584 -7.996,3.917c-2.987,1.292 -6.287,2.554 -9.825,3.608c-1.766,0.534 -3.604,0.963 -5.479,1.292c-0.537,0.075 -1.05,0.146 -1.571,0.208c7.08,-6.037 12.892,-12.508 17.38,-19.362c3.345,-0.196 6.445,-0.325 9.15,-0.325c6.929,-0 11.366,0.821 11.366,3.4Zm-184.071,-175.6c1.455,-0 2.959,0.029 4.459,0.05c45.987,2.367 83.271,24.817 107.571,50.017c-8.509,11.454 -19.95,24.012 -30.488,31.85c-1.237,0.916 -2.379,1.845 -3.479,2.77c-15.358,8.159 -32.004,13.388 -54.412,19.238c1.154,-1.275 2.329,-2.613 3.524,-4.021c2.726,-3.317 5.425,-7 7.917,-10.817c2.442,-3.85 4.667,-7.816 6.542,-11.637c1.821,-3.846 3.396,-7.483 4.508,-10.692c0.6,-1.587 1.079,-3.062 1.479,-4.383c0.425,-1.308 0.775,-2.454 1.017,-3.413c0.512,-1.904 0.804,-2.991 0.804,-2.991c0,-0 -0.367,1.066 -1.004,2.929c-0.304,0.938 -0.729,2.054 -1.238,3.329c-0.483,1.279 -1.062,2.713 -1.762,4.246c-1.312,3.104 -3.117,6.6 -5.158,10.263c-2.096,3.633 -4.542,7.379 -7.175,10.974c-2.688,3.559 -5.555,6.967 -8.409,9.996c-2.9,2.988 -5.687,5.684 -8.241,7.804c-0.155,0.138 -0.3,0.25 -0.454,0.384c-2.292,0.583 -4.63,1.175 -7.042,1.779c-14.188,3.558 -24.625,9.437 -34.95,14.671c0.679,-1.167 1.341,-2.375 1.95,-3.625c1.571,-3.242 2.779,-6.604 3.479,-9.167c0.717,-2.562 1.029,-4.292 1.029,-4.292c0,0 -0.608,1.659 -1.737,4.026c-1.113,2.37 -2.842,5.404 -4.85,8.2c-2.017,2.795 -4.3,5.341 -6.138,7.095c-0.671,0.646 -1.267,1.192 -1.762,1.629c-9.929,4.442 -20.609,7.605 -35.08,6.996c-0.416,-1.191 -0.916,-2.525 -1.504,-3.966c-2.3,-5.68 -6.175,-12.971 -11.525,-19.092c-2.65,-3.071 -5.641,-5.825 -8.687,-8.033c-3.046,-2.213 -6.129,-3.9 -8.879,-5.021c-2.75,-1.138 -5.138,-1.759 -6.813,-2.096c-0.837,-0.179 -1.5,-0.275 -1.954,-0.338c-0.45,-0.066 -0.692,-0.104 -0.692,-0.104c0,0 0.234,0.071 0.671,0.209c0.434,0.129 1.075,0.32 1.867,0.621c1.587,0.579 3.808,1.537 6.258,3.02c4.938,2.909 10.542,8.209 14.458,14.559c4.009,6.304 6.475,13.391 7.746,18.754c0.184,0.758 0.342,1.475 0.488,2.158c0.292,6.084 -2.179,16.267 -4.108,23.588c-5.867,3.3 -14.017,6.72 -23.809,7.725c-15.696,1.608 -30.087,-3.43 -36.016,-5.904c0.116,-13.03 2.02,-19.742 -2.475,-30.555c-3.68,-8.85 -3.838,-16.308 -3.405,-20.808c0.921,-4.912 3.571,-11.1 6.392,-17.654c2.367,-5.509 4.775,-11.129 6.329,-16.434c5.084,-1.104 24.908,-6.22 40.858,-21.687c14.496,-14.058 20.88,-32.6 22.946,-39.892c12.25,-3.95 24.842,-7.937 39.104,-10.141c7.834,-1.209 18.951,-2.117 31.85,-2.117Zm-257.67,7.808c3.641,-22.104 25.454,-38.22 41.616,-45.358c1.659,-0.829 3.355,-1.646 5.113,-2.4c2.429,-1.029 4.925,-2.004 7.441,-2.917c1.275,-0.42 2.55,-0.846 3.821,-1.262c1.263,-0.384 2.525,-0.763 3.771,-1.142c1.246,-0.371 2.483,-0.737 3.704,-1.1c1.204,-0.391 2.396,-0.779 3.571,-1.158c2.325,-0.809 4.567,-1.617 6.671,-2.442c2.087,-0.867 4.058,-1.687 5.85,-2.525c1.779,-0.846 3.417,-1.629 4.833,-2.387c1.43,-0.746 2.634,-1.463 3.621,-2.063c1.975,-1.208 3.042,-2.012 3.042,-2.012c-0,-0 -0.917,0.975 -2.754,2.42c-1.85,1.421 -4.567,3.388 -8.071,5.355c-1.746,0.991 -3.679,1.987 -5.763,2.97c-2.087,0.959 -4.312,1.93 -6.662,2.817c-2.346,0.875 -4.817,1.742 -7.309,2.5c-1.245,0.392 -2.5,0.788 -3.758,1.183c-1.233,0.426 -2.471,0.85 -3.712,1.275c-1.234,0.446 -2.471,0.896 -3.7,1.342c-1.217,0.483 -2.425,0.963 -3.63,1.438c-1.287,0.554 -2.566,1.1 -3.82,1.65c-1.459,0.75 -2.892,1.508 -4.263,2.295c-2.192,1.255 -4.275,2.521 -6.179,3.83c-1.925,1.275 -3.675,2.583 -5.246,3.837c-1.575,1.254 -2.958,2.475 -4.137,3.6c-1.175,1.129 -2.175,2.138 -2.938,3.025c-0.783,0.863 -1.354,1.575 -1.733,2.071c-0.388,0.487 -0.596,0.75 -0.596,0.75c0,0 0.233,-0.238 0.671,-0.683c0.429,-0.45 1.066,-1.096 1.933,-1.867c0.842,-0.792 1.933,-1.683 3.204,-2.663c1.271,-0.983 2.75,-2.029 4.417,-3.087c1.662,-1.058 3.496,-2.15 5.5,-3.192c1.983,-1.066 4.137,-2.083 6.383,-3.071c2.25,-0.991 4.617,-1.908 7.034,-2.795c1.22,-0.417 2.445,-0.838 3.679,-1.259c1.246,-0.383 2.496,-0.766 3.741,-1.154c1.25,-0.346 2.501,-0.692 3.746,-1.037c1.271,-0.321 2.542,-0.642 3.8,-0.959c3.404,1.267 6.667,3.034 9.634,5.021c1.075,-0.346 2.154,-0.692 3.204,-1.025c3.05,-1.05 5.987,-2.096 8.75,-3.167c2.737,-1.116 5.325,-2.187 7.671,-3.266c2.341,-1.1 4.487,-2.113 6.35,-3.096c1.87,-0.967 3.454,-1.896 4.754,-2.675c1.279,-0.804 2.304,-1.421 2.971,-1.887c0.679,-0.455 1.02,-0.721 1.02,-0.721c0,-0 -1.208,1.266 -3.62,3.146c-2.434,1.841 -6.005,4.4 -10.605,6.945c-2.291,1.288 -4.829,2.579 -7.558,3.854c-1.379,0.605 -2.796,1.23 -4.242,1.871c-1.462,0.596 -2.966,1.192 -4.499,1.78c-3.076,1.133 -6.313,2.258 -9.576,3.237c-1.629,0.508 -3.275,1.021 -4.929,1.533c-1.616,0.55 -3.237,1.1 -4.862,1.65c-1.621,0.584 -3.242,1.159 -4.854,1.738c-1.592,0.625 -3.184,1.246 -4.759,1.862c-1.8,0.763 -3.571,1.513 -5.32,2.275c-1.796,0.917 -3.567,1.846 -5.263,2.809c-2.875,1.629 -5.613,3.275 -8.117,4.966c-1.266,0.825 -2.475,1.663 -3.621,2.509c-1.162,0.812 -2.241,1.662 -3.279,2.475c-2.071,1.625 -3.891,3.212 -5.441,4.675c-0.796,0.708 -1.488,1.437 -2.138,2.091c-0.654,0.646 -1.233,1.267 -1.733,1.842c-1.034,1.129 -1.788,2.054 -2.292,2.7c-0.508,0.642 -0.779,0.975 -0.779,0.975c-0,0 0.304,-0.308 0.879,-0.887c0.563,-0.588 1.408,-1.43 2.55,-2.43c0.55,-0.516 1.188,-1.058 1.9,-1.633c0.708,-0.575 1.454,-1.213 2.313,-1.829c1.675,-1.271 3.616,-2.634 5.804,-4.004c1.096,-0.684 2.233,-1.4 3.454,-2.071c1.196,-0.704 2.454,-1.396 3.775,-2.067c2.604,-1.383 5.429,-2.696 8.379,-3.975c2.95,-1.279 6.054,-2.471 9.225,-3.616c1.596,-0.538 3.208,-1.084 4.825,-1.625c1.629,-0.496 3.267,-0.996 4.904,-1.492c1.638,-0.45 3.28,-0.9 4.909,-1.346c1.679,-0.417 3.354,-0.833 5.016,-1.242c1.679,-0.42 3.346,-0.841 4.992,-1.254c1.65,-0.466 3.283,-0.925 4.887,-1.379c1.238,-0.388 2.442,-0.767 3.642,-1.146c1.959,1.942 3.525,3.788 4.571,5.304c3.55,5.138 5.575,10.588 6.625,15.888c3.362,-0.784 6.629,-1.546 9.708,-2.342c3.255,-0.871 6.334,-1.716 9.154,-2.567c2.809,-0.875 5.396,-1.67 7.659,-2.458c2.271,-0.766 4.221,-1.525 5.821,-2.162c1.591,-0.659 2.85,-1.163 3.687,-1.555c0.846,-0.375 1.284,-0.608 1.284,-0.608c-0,0 -1.621,1.146 -4.701,2.754c-3.083,1.579 -7.558,3.75 -13.133,5.846c-1.4,0.513 -2.854,1.046 -4.362,1.596c-1.525,0.5 -3.1,1.021 -4.721,1.554c-3.259,1.008 -6.709,2.029 -10.317,2.946c-3.608,0.908 -7.346,1.817 -11.175,2.587c-3.779,0.792 -7.662,1.609 -11.454,2.513c-3.821,0.875 -7.638,1.808 -11.362,2.812c-3.726,1.017 -7.388,2.03 -10.901,3.109c-1.07,0.341 -2.104,0.683 -3.15,1.016c-1.004,0.396 -2.024,0.796 -3.004,1.18c-1.654,0.704 -3.271,1.395 -4.846,2.066c-3.12,1.4 -6.045,2.788 -8.687,4.179c-2.642,1.384 -5.025,2.73 -7.075,4.009c-2.067,1.258 -3.8,2.466 -5.208,3.479c-1.396,1.029 -2.471,1.863 -3.167,2.475c-0.712,0.592 -1.092,0.908 -1.092,0.908c0,0 0.404,-0.279 1.171,-0.804c0.746,-0.542 1.892,-1.271 3.367,-2.158c1.483,-0.875 3.304,-1.904 5.454,-2.954c2.137,-1.075 4.604,-2.18 7.325,-3.296c2.721,-1.121 5.717,-2.213 8.9,-3.3c1.604,-0.513 3.25,-1.042 4.933,-1.584c1.7,-0.487 3.434,-0.987 5.2,-1.5c3.542,-0.962 7.221,-1.883 10.984,-2.729c3.758,-0.841 7.604,-1.625 11.441,-2.325c3.796,-0.7 7.738,-1.321 11.534,-1.912c1.946,-0.304 3.875,-0.613 5.779,-0.917c1.9,-0.35 3.779,-0.692 5.629,-1.025c0.083,-0.017 0.163,-0.042 0.246,-0.05c0.146,7.363 -1.196,13.817 -2.325,17.858c-8.321,0.542 -17.704,1.525 -28.971,3.821c-19.158,3.905 -36.346,11.134 -51.079,21.488c-0.384,0.271 -0.65,0.462 -0.834,0.579c-11.658,-1.258 -14.062,-15.721 -10.12,-39.667Zm58.341,106.746c-0.021,-0.083 -0.033,-0.154 -0.062,-0.237c-0.171,-0.509 -0.263,-1.134 -0.467,-1.755c-0.192,-0.624 -0.367,-1.3 -0.508,-1.979c-0.209,-0.662 -0.388,-1.333 -0.525,-1.975c-0.125,-0.641 -0.354,-1.229 -0.454,-1.754c-0.113,-0.525 -0.288,-0.962 -0.355,-1.279c-0.104,-0.313 -0.162,-0.496 -0.162,-0.496c-0,0 -0.058,0.183 -0.163,0.5c-0.07,0.317 -0.229,0.779 -0.262,1.338c-0.033,0.525 -0.1,1.154 -0.046,1.812c-2.567,-2.062 -6.9,-0.942 -7.583,-2.292c-1.659,-3.279 4.046,-9.016 3.008,-12.129c-0.316,-0.954 -1.033,-1.304 -2.058,-1.304c-2.313,0 -6.209,1.779 -10.717,2.4c-0.275,0.038 -0.537,0.054 -0.779,0.054c-3.854,0 -3.388,-4.612 -3.454,-7.421c0.054,-0.041 0.117,-0.074 0.175,-0.116c0.6,-0.6 1.108,-1.196 1.471,-1.75c0.304,-0.621 0.475,-1.163 0.575,-1.529c0.041,-0.405 0.062,-0.634 0.062,-0.634c0,0 -0.208,0.084 -0.579,0.229c-0.317,0.167 -0.775,0.384 -1.342,0.546c-0.479,0.259 -1.079,0.479 -1.712,0.659c-0.579,0.279 -1.234,0.504 -1.9,0.691c-0.617,0.321 -1.275,0.588 -1.913,0.817c-0.546,0.287 -1.075,0.542 -1.566,0.742c-0.33,0.054 -0.667,0.087 -1.004,0.087c-1.275,0 -2.58,-0.446 -3.825,-1.775c-2.346,-2.5 -1.088,-8.083 -0.196,-14.029c1.341,0.875 2.679,1.408 3.95,1.408c0.404,0 0.804,-0.054 1.191,-0.166c5.763,-1.655 7.017,-5.717 9.742,-9.805c2.725,-4.091 -0.212,-7.441 -0.212,-7.441c0.012,-0.167 0.058,-0.342 0.124,-0.517c0.025,-0.021 0.046,-0.033 0.071,-0.05c0.659,-0.467 1.65,-1.071 2.788,-1.846c1.125,-0.791 2.521,-1.591 3.95,-2.529c1.446,-0.925 3.012,-1.858 4.612,-2.737c1.567,-0.929 3.167,-1.813 4.692,-2.588c1.537,-0.754 2.933,-1.558 4.183,-2.125c1.246,-0.592 2.267,-1.142 3.004,-1.471c0.725,-0.362 1.142,-0.571 1.142,-0.571c0,0 -0.454,0.096 -1.25,0.263c-0.446,0.117 -1.012,0.25 -1.654,0.421c1.521,-0.709 2.954,-1.367 4.229,-1.95c6.05,8.471 16.483,20.987 30.338,29.8l1.621,29.333c-0.363,0.013 -0.751,0.038 -1.171,0.1c-1.03,0.159 -2.242,0.358 -3.488,0.759c-1.233,0.416 -2.537,0.912 -3.8,1.491c-1.229,0.65 -2.433,1.342 -3.517,2.067c-1.095,0.696 -1.995,1.525 -2.787,2.191c-0.779,0.684 -1.35,1.346 -1.754,1.792c-0.383,0.471 -0.604,0.738 -0.604,0.738c-0,-0 0.295,-0.179 0.816,-0.488c0.488,-0.342 1.259,-0.733 2.104,-1.283c0.855,-0.542 1.905,-1.088 2.988,-1.713c1.067,-0.629 2.25,-1.22 3.442,-1.775c-5.588,4.196 -11.1,11.196 -16.238,14.067c-2.129,1.188 -3.958,1.687 -5.537,1.687c-3.13,0 -5.242,-1.979 -6.634,-4.483Zm-112.941,80.913c3.071,-6.284 18.016,-10.221 25.629,-10.221c0.133,-0 0.262,-0 0.387,0.004c19.379,0.358 24.784,6.875 35.6,9.821c1.517,1.166 3.263,2.587 4.934,4.129c4.412,3.933 8.216,8.592 8.216,8.592c0,-0 -2.737,-5.346 -6.337,-10.267c-0.321,-0.454 -0.65,-0.9 -0.979,-1.342c1.533,0.179 3.183,0.288 4.983,0.309c18.425,0.2 48.55,8.566 67.975,8.566c1.342,0 2.629,-0.037 3.863,-0.125c12.566,-0.866 20.795,-1.1 24.962,-1.162c0.958,1.054 2.096,2.171 3.317,3.183c1.766,1.463 3.671,2.692 5.15,3.479c1.475,0.796 2.491,1.213 2.491,1.213c0,-0 -0.862,-0.692 -2.025,-1.846c-1.166,-1.142 -2.579,-2.788 -3.762,-4.546c-1.183,-1.762 -2.138,-3.621 -2.721,-5.05c-0.158,-0.379 -0.292,-0.717 -0.404,-1.021c-2.438,-11.546 -0.717,-23.3 -0.6,-34.45c6.125,2.388 17.075,5.804 29.708,5.804c2.225,0 4.504,-0.108 6.813,-0.341c8.437,-0.867 15.708,-3.346 21.521,-6.108c-6.692,32.883 -8.08,81.995 -24.226,81.579c-23.083,-0.6 -59.779,-4.288 -78.216,-9.563c-18.438,-5.271 -52.767,-10.371 -71.571,-5.854l0.004,0.004c-3.183,-0.054 -6.404,-0.087 -9.525,-0.087c-9.187,-0 -17.483,0.275 -21.146,1.108c-7.283,1.65 -8.862,7.017 -8.862,7.017c-4.879,-0.709 -6.575,-4.059 -7.167,-6.5c0.192,-0.23 0.371,-0.446 0.583,-0.705c0.646,-0.92 1.409,-1.975 2.271,-3.041c0.763,-1.129 1.617,-2.279 2.55,-3.338c0.817,-1.146 1.725,-2.216 2.671,-3.125c0.867,-1 1.784,-1.841 2.629,-2.491c0.804,-0.742 1.563,-1.284 2.125,-1.63c0.534,-0.404 0.875,-0.612 0.875,-0.612c0,-0 -0.387,-0.025 -1.087,-0.004c-0.684,0.075 -1.667,0.241 -2.829,0.596c-1.105,0.454 -2.363,1.1 -3.617,1.941c-1.183,0.934 -2.338,2.046 -3.387,3.246c-0.926,1.292 -1.73,2.638 -2.417,3.917c-0.359,0.821 -0.663,1.583 -0.942,2.316c-1.058,-1.129 -1.512,-2.329 -1.637,-3.424c0.1,-0.155 0.233,-0.355 0.408,-0.617c0.329,-0.592 0.812,-1.434 1.425,-2.409c0.504,-1.016 1.146,-2.17 1.85,-3.383c0.608,-1.258 1.308,-2.571 2.042,-3.858c0.616,-1.35 1.275,-2.679 1.937,-3.909c0.567,-1.283 1.133,-2.479 1.663,-3.479c0.429,-1.071 0.833,-1.954 1.12,-2.566c0.242,-0.655 0.384,-1.03 0.384,-1.03c-0,0 -0.325,0.23 -0.9,0.63c-0.533,0.437 -1.279,1.075 -2.15,1.883c-0.792,0.858 -1.675,1.904 -2.604,3.05c-0.817,1.213 -1.646,2.537 -2.434,3.896c-0.637,1.429 -1.229,2.879 -1.733,4.25c-0.358,1.321 -0.667,2.541 -0.892,3.633c-2.558,-0.896 -2.941,-3.867 -2.996,-4.891c0.088,-0.267 0.171,-0.538 0.271,-0.826c0.363,-1.454 0.905,-3.145 1.263,-5.145c0.125,-1.05 0.162,-1.959 0.296,-2.892c0.116,-0.929 0.3,-1.858 0.541,-2.754c0.325,-1.804 0.959,-3.604 1.813,-5.017c0.762,-1.467 1.921,-2.696 3.021,-3.65c1.041,-1.046 2.033,-1.854 2.716,-2.417c0.675,-0.608 1.063,-0.958 1.063,-0.958c-0,0 -0.504,0.142 -1.383,0.388c-0.846,0.312 -2.055,0.75 -3.492,1.45c-1.367,0.787 -2.967,1.875 -4.342,3.562c-1.237,1.75 -2.104,3.775 -2.667,5.904c-0.204,1.079 -0.32,2.154 -0.383,3.204c-0.067,1.046 -0.037,2.1 -0.075,2.938c0.038,1.779 -0.154,3.558 -0.229,5.1c-0,0.271 0.008,0.525 0.013,0.779c-8.855,-0.696 -3.059,-17.329 -1.346,-20.837Zm46.27,63.87c4.513,-7.3 13.905,-11.483 25.775,-11.483c0.775,0 1.521,-0.104 2.238,-0.283l40.433,12.012l-1.625,5.417c-4.479,0.083 -8.483,3.096 -9.775,7.404l-6.962,23.238c-27.104,-0.075 -45.342,-5.505 -50.054,-14.93c-3.763,-7.525 -3.775,-15.316 -0.03,-21.375Zm72.28,67.409c-0.7,2.329 -2.834,3.833 -5.146,3.833c-0.513,0 -1.029,-0.075 -1.546,-0.229l-13.804,-4.133c-2.842,-0.855 -4.454,-3.85 -3.604,-6.692l1.629,-5.437c0.287,-0 0.554,0.012 0.841,0.012c5.092,-0 9.225,-4.133 9.225,-9.225c0,-3.517 -1.97,-6.575 -4.87,-8.129l6.862,-22.9c0.696,-2.325 2.833,-3.829 5.146,-3.829c0.508,-0 1.029,0.07 1.542,0.225l13.804,4.137c2.841,0.85 4.458,3.846 3.604,6.688l-2.125,7.1l98.104,5.583c2.204,3.721 4.613,7.492 7.221,11.175c-1.842,-0.1 -3.692,-0.196 -5.521,-0.292c-6.883,-0.325 -13.654,-0.646 -20.208,-0.954c-13.113,-0.592 -25.354,-1.054 -35.85,-1.375c-20.992,-0.683 -35.008,-0.767 -35.008,-0.767c-0,0 13.937,1.484 34.874,3.159c10.467,0.858 22.684,1.771 35.775,2.658c6.546,0.425 13.313,0.867 20.188,1.317c2.95,0.175 5.925,0.354 8.904,0.533c0.525,0.679 1.054,1.354 1.592,2.025l-110.034,-6.262l119.271,137.633c-0.316,0.162 -0.637,0.325 -0.958,0.492c-3.517,1.795 -8.375,4.291 -10.925,8.766c-3.342,-3.958 -6.717,-7.958 -10.208,-11.991c-5.059,-5.884 -10.196,-11.863 -15.334,-17.838c-5.183,-5.942 -10.366,-11.883 -15.466,-17.729c-5.088,-5.863 -10.192,-11.542 -15.08,-17.088c-4.929,-5.508 -9.691,-10.833 -14.204,-15.887c-4.516,-5.05 -8.837,-9.779 -12.825,-14.15c-7.954,-8.754 -14.746,-15.904 -19.425,-20.979c-2.337,-2.538 -4.237,-4.475 -5.508,-5.821c-1.275,-1.342 -1.954,-2.054 -1.954,-2.054c-0,-0 0.608,0.775 1.75,2.229c1.15,1.45 2.8,3.608 4.975,6.283c4.354,5.354 10.462,13.1 17.987,22.225c3.75,4.571 7.817,9.525 12.171,14.717c4.35,5.192 8.942,10.667 13.692,16.333c4.787,5.629 9.679,11.496 14.75,17.367c5.058,5.887 10.196,11.867 15.333,17.846c5.183,5.937 10.367,11.879 15.467,17.729c4.116,4.754 8.225,9.354 12.246,13.892c-0.113,1.045 -0.096,2.183 0.029,3.387l-116.963,-134.971l-0.416,1.388Zm178.683,257.083c-0.533,-1.896 -0.654,-3.687 -0.425,-5.404c5.208,2.233 10.908,3.525 16.892,3.692c-0.85,0.125 -1.688,0.225 -2.492,0.27c-3.492,0.242 -6.433,-0.279 -8.387,-0.933c-0.98,-0.321 -1.725,-0.658 -2.23,-0.9c-0.491,-0.258 -0.754,-0.396 -0.754,-0.396c0,0 0.246,0.167 0.708,0.479c0.475,0.296 1.188,0.717 2.146,1.155c1.909,0.879 4.867,1.754 8.529,1.908c3.659,0.183 7.926,-0.396 12.334,-1.204c0.317,-0.054 0.637,-0.117 0.954,-0.175c-11.542,4.904 -19.779,7.925 -27.275,1.508Zm373.517,-83.021c-0,11.217 -1.338,22.121 -3.779,32.6l-99.555,-17.471l-12.441,-7.775l115.7,-10.166c0.02,0.937 0.075,1.871 0.075,2.812Zm-143.675,-166.912c-35.279,-0 -68.03,11.008 -95.013,29.762l-33.542,-41.637c21.263,-27.509 52.313,-69.429 61.105,-90.492c4.55,-10.896 7.354,-22.033 9.075,-32.117c5.083,-1.641 10.141,-3.837 14.275,-5.958c12.208,-6.275 18.4,-12.283 18.4,-17.854c-0,-8.433 -11.492,-8.433 -16.4,-8.433c-1.859,-0 -3.9,0.062 -6.055,0.158c3.555,-6.538 5.967,-13.392 7.146,-20.525c8.379,-50.663 -10.841,-89.225 -62.329,-125.046c-35.596,-24.762 -85.117,-28.462 -111.467,-28.462c-12.041,-0 -23.716,0.779 -32.875,2.196c-15.3,2.366 -28.6,6.658 -41.458,10.808c-15.058,4.858 -29.358,9.471 -45.483,10.492c-2.304,-5.742 -6.5,-14.784 -12.121,-21.055c1.579,-0.983 3.567,-1.962 5.992,-2.721c2.637,-0.825 4.5,-3.183 4.687,-5.941c0.192,-2.754 -1.325,-5.346 -3.825,-6.525l-19.7,-9.313c0.063,-5.446 -0.158,-14.483 -1.996,-20.846c-0.516,-1.8 -1.766,-3.3 -3.441,-4.137c-0.942,-0.475 -1.971,-0.708 -3.005,-0.708c-0.804,-0 -1.608,0.141 -2.375,0.433c-0.412,0.154 -2.037,0.788 -4.208,1.829c0.071,-0.142 0.15,-0.287 0.229,-0.433c1.35,-2.5 0.979,-5.579 -0.925,-7.688c-1.3,-1.437 -3.121,-2.208 -4.979,-2.208c-0.867,-0 -1.741,0.167 -2.575,0.513c-0.258,0.108 -26.091,10.824 -41.054,14.841c-15.804,4.238 -50.087,22.988 -55.179,53.888c-3.425,20.816 -2.108,33.941 4.15,41.316c3.187,3.754 7.604,5.867 12.821,6.204c0.125,2.417 2.433,7.321 5.562,11.575c-0.083,2.276 -0.487,4.855 -0.867,7.246c-1.008,6.363 -2.054,12.942 2.259,17.538c2.387,2.546 5.404,3.891 8.717,3.891c0.524,0 1.033,-0.033 1.524,-0.091c0.088,0.354 0.192,0.712 0.317,1.066c1.438,4.201 4.933,6.705 9.346,6.705c0.55,-0 1.121,-0.038 1.696,-0.117c0.812,-0.113 1.6,-0.254 2.358,-0.408c-0.691,2.4 -0.871,5.104 0.504,7.825c1.988,3.929 6.104,4.308 8.079,4.487c0.271,0.025 0.638,0.059 0.967,0.1c2.583,7.446 7.704,11.692 14.163,11.692c2.825,-0 5.787,-0.854 8.808,-2.542c3.687,-2.058 7.125,-5.408 10.45,-8.65c3.033,-2.958 8.113,-7.904 10.442,-7.904c0.079,-0 0.137,0.008 0.208,0.029c0.012,0.004 0.025,0.004 0.042,0.008l0.3,5.484c0.15,2.679 2.366,4.754 5.02,4.754c0.092,-0 0.188,-0 0.28,-0.008c1.154,-0.063 2.183,-0.525 2.996,-1.225c0.391,4.512 1.474,9.829 3.883,15.62c2.833,6.817 2.612,11.471 2.246,19.188c-0.163,3.4 -0.346,7.25 -0.28,11.871c0.05,3.658 -0.137,7.416 -0.337,11.396c-0.379,7.625 -0.767,15.437 0.446,23.416c-4.742,0.146 -11.45,0.45 -20.271,1.059c-1.046,0.075 -2.192,0.108 -3.4,0.108c-9.425,0 -22.079,-2.183 -34.317,-4.3c-12.395,-2.142 -24.108,-4.163 -33.587,-4.267c-7.909,-0.087 -12.196,-2.033 -17.625,-4.496c-6.692,-3.037 -14.279,-6.479 -28.738,-6.745c-0.17,-0.005 -0.337,-0.005 -0.512,-0.005c-6.625,0 -26.438,3.313 -31.654,13.984c-0.08,0.162 -7.659,16.237 -2.05,25.221c1.358,2.179 3.291,3.733 5.629,4.575c0.204,0.412 0.429,0.812 0.675,1.2c-1.809,4.312 -0.763,9.537 2.483,14.045c-0.158,0.167 -0.304,0.317 -0.483,0.513c-0.571,0.708 -1.325,1.479 -2.059,2.537c-0.766,1.013 -1.558,2.238 -2.329,3.634c-0.745,1.412 -1.479,3 -2.02,4.746c-0.601,1.733 -0.946,3.608 -1.217,5.512c-0.2,1.9 -0.296,3.842 -0.213,5.738c0.075,1.912 0.246,3.758 0.505,5.612c0.124,0.959 0.262,1.813 0.404,2.65c0.158,0.879 0.312,1.754 0.462,2.625c0.317,1.688 0.638,3.308 0.842,4.692c0.204,1.404 0.221,2.4 0.062,3.066c-0.133,0.671 -0.525,1.384 -1.187,2.146c-0.604,0.75 -1.388,1.467 -2.096,2.088c-0.704,0.629 -1.383,1.129 -1.917,1.575c-1.208,0.9 -1.904,1.416 -1.904,1.416c-1.362,1.034 -1.767,2.967 -0.85,4.455c0.971,1.579 3.038,2.07 4.617,1.1c-0,-0 0.737,-0.455 2.025,-1.242c0.675,-0.458 1.525,-0.975 2.458,-1.663c0.938,-0.683 2.004,-1.466 3.154,-2.616c1.125,-1.088 2.45,-2.696 3.209,-4.867c0.771,-2.167 0.791,-4.371 0.7,-6.171c-0.096,-1.841 -0.28,-3.521 -0.434,-5.196c-0.07,-0.816 -0.141,-1.633 -0.204,-2.458c-0.067,-0.867 -0.125,-1.725 -0.154,-2.487c-0.071,-1.575 -0.071,-3.18 0.012,-4.663c0.071,-1.504 0.288,-2.892 0.542,-4.196c0.317,-1.266 0.642,-2.462 1.129,-3.491c0.434,-1.055 0.988,-1.971 1.525,-2.8c0.567,-0.817 1.129,-1.542 1.696,-2.155c0.521,-0.633 1.121,-1.116 1.525,-1.554c0.613,-0.529 1.033,-0.887 1.267,-1.091c0.454,0.22 0.892,0.454 1.366,0.65c8.084,3.333 13.038,8.404 15.726,11.958c-3.242,9.867 -2.3,20.892 2.929,31.337c7.862,15.725 28.395,24.134 61.05,25.046l-1.221,4.075c-1.367,4.571 0.579,9.354 4.433,11.784c-1.325,4.137 -2.946,9.283 -4.754,15.233c-18.663,-7.229 -38.929,-11.204 -60.113,-11.204c-92.037,-0 -166.912,74.879 -166.912,166.912c0,92.038 74.875,166.917 166.912,166.917c92.038,-0 166.917,-74.879 166.917,-166.917c0,-64.333 -36.591,-120.275 -90.054,-148.129c2.008,-6.8 3.713,-12.7 5.046,-17.354c0.758,0.171 1.525,0.283 2.3,0.283c2.225,0 4.337,-0.725 6.075,-1.979l155.375,179.3c-3.879,6.767 -6.109,14.6 -6.109,22.958c0,16.575 8.725,31.109 21.826,39.275c-0.851,3.196 -0.871,6.671 0.204,10.488c1.37,4.846 6.621,12.979 26.437,12.979c4.346,0 8.867,-0.404 13.284,-1.133l0.45,2.925c0.258,1.679 1.829,2.829 3.508,2.571l30.862,-4.767c1.675,-0.258 2.825,-1.829 2.567,-3.508l-0.958,-6.217c-0.259,-1.675 -1.83,-2.829 -3.509,-2.567l-5.108,0.788c3.217,-2.167 6.012,-4.342 8.592,-6.346c3.387,-2.633 6.433,-4.996 9.87,-7.013c27.042,55.796 84.255,94.363 150.305,94.363c92.037,-0 166.916,-74.879 166.916,-166.917c0,-92.033 -74.879,-166.912 -166.916,-166.912Z"
            style="fill: hsl(223, 19%, 93%); fill-rule: nonzero"
        />
        <path
            d="M664.45,567.862c0.579,0.071 1.283,0.042 1.904,-0.187c0.633,-0.217 1.229,-0.579 1.721,-1.054c0.475,-0.492 0.838,-1.088 1.054,-1.721c0.117,-0.317 0.179,-0.633 0.208,-0.996c0.026,-0.196 0.009,-0.292 0.013,-0.437c0.008,-0.2 -0.021,-0.33 -0.033,-0.492c-0.15,-1.258 -0.875,-2.271 -1.65,-2.813c-0.771,-0.566 -1.567,-0.708 -2.075,-0.716c-0.534,-0 -0.792,0.1 -0.8,0.083c-0,0 0.3,0.063 0.733,0.242c0.437,0.183 1.021,0.529 1.496,1.104c0.479,0.567 0.825,1.362 0.829,2.217c-0.008,0.095 0.004,0.233 -0.012,0.3c-0.017,0.12 -0.021,0.295 -0.051,0.366c-0.041,0.171 -0.1,0.392 -0.179,0.592c-0.154,0.404 -0.404,0.779 -0.716,1.083c-0.309,0.313 -0.68,0.563 -1.088,0.717c-0.412,0.146 -0.808,0.254 -1.279,0.237c-0.813,0 -1.633,-0.345 -2.192,-0.82c-0.575,-0.48 -0.921,-1.063 -1.108,-1.5c-0.179,-0.442 -0.238,-0.734 -0.238,-0.734c0,0 -0.087,0.279 -0.087,0.8c0.012,0.513 0.15,1.304 0.717,2.079c0.55,0.775 1.533,1.5 2.833,1.65Z"
            style="fill: hsl(223, 19%, 93%); fill-rule: nonzero"
        />
        <path
            d="M550.15,412.933c-6.275,-7.504 -11.617,-13.662 -15.3,-18.016c-3.738,-4.317 -5.871,-6.784 -5.871,-6.784c0,0 1.95,2.613 5.363,7.188c3.462,4.537 8.333,11.075 14.312,18.812c5.958,7.754 12.967,16.759 20.533,26.354c3.792,4.796 7.713,9.746 11.696,14.776c4.004,5.012 8.075,10.104 12.142,15.199c4.1,5.067 8.2,10.134 12.238,15.125c4.058,4.967 8.05,9.859 11.916,14.592c7.75,9.454 15.038,18.229 21.333,25.713c6.275,7.504 11.617,13.662 15.305,18.016c3.733,4.317 5.87,6.779 5.87,6.779c0,0 -1.95,-2.612 -5.362,-7.187c-3.462,-4.538 -8.329,-11.079 -14.313,-18.813c-5.958,-7.758 -12.962,-16.758 -20.533,-26.358c-3.792,-4.792 -7.712,-9.742 -11.696,-14.775c-4.004,-5.008 -8.075,-10.1 -12.145,-15.196c-4.101,-5.066 -8.201,-10.133 -12.234,-15.12c-4.058,-4.971 -8.054,-9.863 -11.921,-14.596c-7.75,-9.45 -15.037,-18.225 -21.333,-25.709Z"
            style="fill: hsl(223, 19%, 93%); fill-rule: nonzero"
        />
        <path
            d="M266.712,343.808c0.146,-1.395 0.175,-2.212 0.175,-2.212c0,-0 -0.445,0.683 -1.129,1.912c-0.687,1.225 -1.629,2.992 -2.625,5.15c-2.062,4.3 -4.341,10.179 -6.241,16.179c-1.892,6.005 -3.413,12.126 -4.2,16.83c-0.43,2.337 -0.675,4.325 -0.825,5.72c-0.15,1.396 -0.18,2.213 -0.18,2.213c0,-0 0.446,-0.683 1.13,-1.913c0.683,-1.229 1.621,-2.991 2.616,-5.154c2.063,-4.3 4.346,-10.179 6.25,-16.175c1.9,-6.004 3.421,-12.125 4.204,-16.825c0.434,-2.341 0.676,-4.325 0.825,-5.725Z"
            style="fill: hsl(223, 19%, 93%); fill-rule: nonzero"
        />
        <path
            d="M435.508,574.242c2.492,4.487 5.096,8.912 7.146,12.175c1.013,1.641 1.921,2.97 2.529,3.92c0.621,0.938 0.996,1.463 0.996,1.463c0,-0 -0.246,-0.596 -0.712,-1.621c-0.48,-1.017 -1.125,-2.496 -1.975,-4.225c-1.675,-3.471 -4.038,-8.029 -6.517,-12.525c-2.488,-4.487 -5.092,-8.912 -7.142,-12.179c-1.012,-1.638 -1.925,-2.967 -2.529,-3.917c-0.621,-0.937 -0.996,-1.462 -0.996,-1.462c0,-0 0.246,0.596 0.709,1.621c0.483,1.016 1.125,2.495 1.975,4.225c1.675,3.47 4.037,8.029 6.516,12.525Z"
            style="fill: hsl(223, 19%, 93%); fill-rule: nonzero"
        />
        <path
            d="M450.442,595.433c-1.334,1.171 -1.467,3.2 -0.3,4.538c1.171,1.333 3.2,1.471 4.537,0.3c1.333,-1.171 1.471,-3.2 0.3,-4.538c-1.171,-1.333 -3.2,-1.471 -4.537,-0.3Z"
            style="fill: hsl(223, 19%, 93%); fill-rule: nonzero"
        />
        <path
            d="M447.021,412.396c-1.196,0.412 -2.629,0.779 -4.121,1.275c-1.5,0.483 -3.108,0.958 -4.729,1.396c-1.6,0.496 -3.217,0.958 -4.738,1.354c-1.529,0.379 -2.937,0.833 -4.166,1.125c-1.221,0.333 -2.246,0.612 -2.963,0.808c-0.717,0.208 -1.125,0.325 -1.125,0.325c0,0 0.429,-0.004 1.175,-0.017c0.742,-0.05 1.813,-0.062 3.079,-0.229c1.267,-0.162 2.755,-0.325 4.317,-0.654c1.563,-0.333 3.221,-0.729 4.871,-1.167c1.625,-0.512 3.241,-1.066 4.737,-1.62c1.5,-0.555 2.842,-1.213 4,-1.755c1.159,-0.533 2.071,-1.1 2.721,-1.458c0.638,-0.387 1.004,-0.612 1.004,-0.612c0,-0 -0.412,0.116 -1.129,0.325c-0.708,0.216 -1.725,0.529 -2.933,0.904Z"
            style="fill: hsl(223, 19%, 93%); fill-rule: nonzero"
        />
        <path
            d="M454.358,248.912c-0.837,-2.37 -1.887,-5.104 -3.012,-8.029c-1.213,-2.866 -2.513,-5.925 -3.809,-8.983c-1.379,-3.004 -2.695,-6.029 -3.808,-8.904c-1.187,-2.842 -2.229,-5.534 -2.937,-7.896c-0.438,-1.163 -0.784,-2.246 -1.067,-3.217c-0.3,-0.966 -0.55,-1.812 -0.704,-2.521c-0.404,-1.412 -0.634,-2.22 -0.634,-2.22c0,-0 0.005,0.841 0.013,2.312c0.017,0.742 0.1,1.629 0.208,2.65c0.088,1.029 0.221,2.184 0.429,3.433c0.442,2.5 1.188,5.359 2.063,8.409c1.008,2.996 2.221,6.137 3.483,9.241c1.438,3.017 2.871,6.03 4.217,8.855c1.446,2.766 2.796,5.341 3.887,7.579c1.2,2.191 2.155,4.046 2.792,5.358c0.692,1.292 1.088,2.033 1.088,2.033c-0,0 -0.18,-0.82 -0.5,-2.258c-0.371,-1.417 -0.95,-3.437 -1.709,-5.842Z"
            style="fill: hsl(223, 19%, 93%); fill-rule: nonzero"
        />
        <path
            d="M459.817,249.979c-0.509,-1.267 -1.034,-2.775 -1.721,-4.333c-0.684,-1.563 -1.413,-3.225 -2.138,-4.892c-0.791,-1.637 -1.587,-3.271 -2.329,-4.804c-0.742,-1.538 -1.541,-2.917 -2.171,-4.129c-0.637,-1.208 -1.258,-2.175 -1.646,-2.867c-0.425,-0.683 -0.666,-1.071 -0.666,-1.071c-0,0 0.137,0.438 0.379,1.2c0.275,0.75 0.608,1.846 1.112,3.117c0.509,1.267 1.038,2.771 1.721,4.333c0.684,1.563 1.409,3.229 2.134,4.892c0.795,1.637 1.587,3.275 2.329,4.808c0.737,1.534 1.541,2.917 2.171,4.125c0.637,1.209 1.258,2.175 1.65,2.867c0.42,0.683 0.662,1.071 0.662,1.071c0,-0 -0.137,-0.438 -0.379,-1.2c-0.275,-0.75 -0.604,-1.85 -1.108,-3.117Z"
            style="fill: hsl(223, 19%, 93%); fill-rule: nonzero"
        />
        <path
            d="M500.733,156.371c0.884,-0.229 1.946,-0.546 3.163,-0.934c1.216,-0.366 2.587,-0.812 4.046,-1.387c2.941,-1.079 6.321,-2.521 9.829,-4.292c3.483,-1.816 7.096,-3.95 10.596,-6.262c3.429,-2.417 6.729,-5.009 9.691,-7.592c2.93,-2.621 5.496,-5.242 7.575,-7.592c1.067,-1.15 1.98,-2.262 2.767,-3.266c0.8,-0.988 1.479,-1.863 2.017,-2.604c1.066,-1.48 1.675,-2.325 1.675,-2.325c-0,-0 -0.696,0.771 -1.921,2.125c-0.583,0.7 -1.346,1.5 -2.229,2.408c-0.867,0.921 -1.859,1.946 -2.967,3.038c-2.158,2.241 -4.908,4.612 -7.833,7.158c-2.963,2.5 -6.267,4.996 -9.684,7.321c-3.408,2.337 -6.933,4.504 -10.341,6.354c-3.434,1.8 -6.646,3.496 -9.517,4.691c-1.421,0.638 -2.733,1.188 -3.908,1.659c-1.171,0.492 -2.192,0.912 -3.055,1.2c-1.708,0.646 -2.683,1.012 -2.683,1.012c0,0 1.013,-0.258 2.779,-0.712Z"
            style="fill: hsl(223, 19%, 93%); fill-rule: nonzero"
        />
        <path
            d="M546.604,146.154c0,0 0.338,-0.246 0.933,-0.671c0.571,-0.45 1.43,-1.058 2.355,-1.891c0.929,-0.834 2.037,-1.788 3.12,-2.917c1.075,-1.133 2.196,-2.363 3.292,-3.621c1.038,-1.308 2.042,-2.637 2.954,-3.904c0.917,-1.267 1.646,-2.533 2.296,-3.6c0.65,-1.067 1.088,-2.021 1.429,-2.662c0.309,-0.667 0.484,-1.042 0.484,-1.042c-0,-0 -0.271,0.312 -0.75,0.866c-0.459,0.563 -1.121,1.363 -1.909,2.321c-0.779,0.959 -1.691,2.079 -2.666,3.275c-0.954,1.209 -2,2.475 -3.075,3.717c-1.025,1.283 -2.075,2.546 -3.088,3.708c-0.996,1.175 -1.929,2.279 -2.729,3.221c-0.796,0.95 -1.463,1.75 -1.929,2.304c-0.454,0.571 -0.717,0.896 -0.717,0.896Z"
            style="fill: hsl(223, 19%, 93%); fill-rule: nonzero"
        />
        <path
            d="M377.437,169.842c-0.316,-3.167 -0.716,-6.534 -1.17,-9.9c-0.546,-3.346 -1.146,-6.688 -1.763,-9.809c-0.629,-3.116 -1.371,-5.995 -2,-8.458c-0.617,-2.467 -1.275,-4.483 -1.696,-5.904c-0.458,-1.413 -0.721,-2.221 -0.721,-2.221c0,0 0.15,0.837 0.417,2.296c0.267,1.454 0.654,3.533 1.117,6.029c0.5,2.483 0.937,5.408 1.508,8.521c0.55,3.112 1.075,6.446 1.542,9.783c0.525,3.333 0.996,6.675 1.379,9.813c0.362,3.141 0.792,6.071 1.038,8.591c0.283,2.517 0.524,4.621 0.687,6.092c0.175,1.475 0.271,2.317 0.271,2.317c-0,-0 0.016,-0.85 0.041,-2.334c-0.008,-1.479 0.03,-3.604 -0.095,-6.145c-0.117,-2.538 -0.25,-5.505 -0.555,-8.671Z"
            style="fill: hsl(223, 19%, 93%); fill-rule: nonzero"
        />
        <path
            d="M424.154,88.987c0.384,1.517 0.792,3.234 1.188,5.117c0.891,3.746 1.546,8.192 2.246,12.938c0.629,4.758 1.037,9.862 1.191,14.975c0.171,5.112 0.084,10.233 -0.242,15.02c-0.404,4.78 -0.766,9.259 -1.42,13.05c-0.275,1.909 -0.575,3.646 -0.863,5.184c-0.262,1.546 -0.5,2.891 -0.766,3.987c-0.459,2.209 -0.721,3.471 -0.721,3.471c-0,0 0.391,-1.229 1.075,-3.383c0.341,-1.075 0.708,-2.396 1.104,-3.921c0.421,-1.517 0.854,-3.242 1.212,-5.15c0.813,-3.792 1.538,-8.271 2.009,-13.108c0.408,-4.838 0.579,-10.025 0.491,-15.209c-0.241,-5.183 -0.741,-10.345 -1.458,-15.15c-0.779,-4.795 -1.783,-9.221 -2.833,-12.954c-0.484,-1.879 -1.025,-3.575 -1.538,-5.062c-0.491,-1.496 -0.941,-2.792 -1.35,-3.846c-0.821,-2.1 -1.287,-3.304 -1.287,-3.304c-0,-0 0.341,1.241 0.941,3.416c0.334,1.075 0.659,2.404 1.021,3.929Z"
            style="fill: hsl(223, 19%, 93%); fill-rule: nonzero"
        />
        <path
            d="M485.104,127.75c0.404,-0.729 0.842,-1.558 1.271,-2.492c0.837,-1.875 1.629,-4.133 2.392,-6.6c0.633,-2.496 1.141,-5.2 1.487,-7.929c0.188,-2.75 0.208,-5.5 0.067,-8.071c-0.275,-2.562 -0.617,-4.937 -1.079,-6.933c-0.242,-1 -0.509,-1.9 -0.767,-2.692c-0.237,-0.796 -0.458,-1.483 -0.675,-2.041c-0.45,-1.1 -0.704,-1.729 -0.704,-1.729c-0,-0 0.071,0.674 0.2,1.854c0.096,0.579 0.171,1.291 0.246,2.108c0.091,0.813 0.17,1.725 0.208,2.729c0.217,1.984 0.275,4.313 0.246,6.788c0.021,2.475 -0.117,5.112 -0.409,7.729c-0.216,2.621 -0.583,5.233 -1.083,7.658c-0.446,2.438 -0.95,4.713 -1.546,6.617c-0.229,0.979 -0.483,1.858 -0.729,2.641c-0.229,0.784 -0.442,1.467 -0.65,2.017c-0.35,1.133 -0.554,1.784 -0.554,1.784c-0,-0 0.375,-0.571 1.029,-1.567c0.317,-0.504 0.663,-1.138 1.05,-1.871Z"
            style="fill: hsl(223, 19%, 93%); fill-rule: nonzero"
        />
        <path
            d="M543.692,217.821c-4.3,3.166 -8.713,6.192 -12.95,8.879c-4.192,2.754 -8.167,5.254 -11.675,7.229c-1.709,1.071 -3.305,2.008 -4.73,2.821c-1.42,0.829 -2.662,1.537 -3.704,2.092c-2.05,1.187 -3.221,1.866 -3.221,1.866c0,0 1.284,-0.437 3.525,-1.204c1.117,-0.404 2.455,-0.933 3.984,-1.558c1.533,-0.609 3.262,-1.317 5.121,-2.146c3.7,-1.696 7.92,-3.879 12.396,-6.317c4.387,-2.591 8.97,-5.521 13.45,-8.608c4.354,-3.267 8.591,-6.675 12.445,-10.008c3.738,-3.471 7.146,-6.775 9.934,-9.742c1.375,-1.504 2.595,-2.913 3.662,-4.179c1.079,-1.25 2.004,-2.346 2.742,-3.279c1.441,-1.884 2.262,-2.959 2.262,-2.959c0,0 -1.016,0.892 -2.796,2.454c-0.854,0.813 -1.925,1.767 -3.162,2.846c-1.225,1.096 -2.621,2.309 -4.179,3.588c-2.988,2.696 -6.621,5.675 -10.567,8.771c-3.896,3.162 -8.162,6.383 -12.537,9.454Z"
            style="fill: hsl(223, 19%, 93%); fill-rule: nonzero"
        />
        <path
            d="M426.967,376.417c-0.15,-1.055 -0.388,-2.325 -0.684,-3.78c-0.271,-1.462 -0.608,-3.104 -1.045,-4.883c-0.909,-3.546 -2.234,-7.612 -3.784,-11.937c-1.725,-4.25 -3.783,-8.696 -6.05,-13.046c-2.467,-4.238 -5.129,-8.354 -7.8,-12.079c-2.829,-3.621 -5.558,-6.913 -8.075,-9.571c-1.266,-1.321 -2.479,-2.484 -3.566,-3.496c-1.076,-1.025 -2.017,-1.904 -2.83,-2.596c-1.645,-1.354 -2.583,-2.129 -2.583,-2.129c-0,0 0.75,0.958 2.058,2.633c0.688,0.804 1.475,1.817 2.367,2.988c0.908,1.154 1.908,2.475 2.942,3.958c2.22,2.833 4.587,6.304 7.008,10.075c2.483,3.729 4.933,7.829 7.183,12.033c2.35,4.15 4.509,8.413 6.338,12.5c1.891,4.063 3.562,7.917 4.771,11.309c0.704,1.666 1.287,3.212 1.779,4.6c0.512,1.379 0.95,2.587 1.258,3.596c0.721,2 1.133,3.146 1.133,3.146c0,-0 -0.154,-1.209 -0.42,-3.321Z"
            style="fill: hsl(223, 19%, 93%); fill-rule: nonzero"
        />
        <path
            d="M329.879,223.692c-2.733,-0.417 -5.304,-0.771 -7.462,-1.313c-1.084,-0.233 -2.075,-0.475 -2.955,-0.704c-0.879,-0.208 -1.65,-0.4 -2.266,-0.604c-1.259,-0.354 -1.979,-0.554 -1.979,-0.554c-0,-0 0.679,0.312 1.87,0.858c0.596,0.271 1.334,0.571 2.188,0.896c0.85,0.346 1.817,0.704 2.9,1.016c2.146,0.684 4.7,1.35 7.487,1.838c2.788,0.45 5.792,0.746 8.809,0.875c3.017,0.008 6.033,-0.154 8.841,-0.475c2.805,-0.358 5.384,-0.913 7.563,-1.5c1.096,-0.263 2.079,-0.579 2.942,-0.883c0.866,-0.288 1.616,-0.555 2.225,-0.796c1.212,-0.496 1.908,-0.775 1.908,-0.775c-0,-0 -0.729,0.166 -2.004,0.462c-0.625,0.175 -1.404,0.334 -2.292,0.5c-0.887,0.192 -1.887,0.384 -2.983,0.571c-2.179,0.446 -4.763,0.679 -7.513,0.975c-2.754,0.242 -5.704,0.329 -8.65,0.246c-2.945,-0.05 -5.887,-0.267 -8.629,-0.633Z"
            style="fill: hsl(223, 19%, 93%); fill-rule: nonzero"
        />
        <path
            d="M344.629,153.437c-1.458,-0.412 -3.183,-0.854 -5.067,-1.125c-1.887,-0.254 -3.916,-0.416 -5.95,-0.475c-2.033,0.042 -4.058,0.192 -5.945,0.434c-1.888,0.262 -3.617,0.687 -5.08,1.091c-1.466,0.384 -2.637,0.88 -3.458,1.192c-0.808,0.354 -1.275,0.554 -1.275,0.554c0,0 0.496,-0.087 1.367,-0.241c0.854,-0.184 2.096,-0.355 3.566,-0.588c1.467,-0.262 3.2,-0.375 5.038,-0.567c1.842,-0.162 3.817,-0.233 5.783,-0.199c1.967,-0.017 3.938,0.066 5.78,0.241c1.837,0.213 3.57,0.329 5.037,0.604c1.467,0.246 2.708,0.421 3.562,0.613c0.867,0.158 1.363,0.25 1.363,0.25c-0,-0 -0.462,-0.204 -1.271,-0.563c-0.817,-0.32 -1.987,-0.825 -3.45,-1.221Z"
            style="fill: hsl(223, 19%, 93%); fill-rule: nonzero"
        />
        <path
            d="M278.275,95.421c-0.996,0.433 -1.579,0.975 -2.108,1.175c-0.5,0.258 -0.846,0.304 -0.846,0.304c-0,-0 0.325,0.117 0.941,0.113c0.605,-0.026 1.5,-0.221 2.371,-0.396c0.88,-0.167 1.7,0.116 2.313,0.762c0.654,0.65 1.141,1.783 1.496,2.95c0.441,1.146 0.829,2.4 1.07,3.513c0.234,1.12 0.455,2.133 0.288,2.983c-0.146,0.838 -0.454,1.575 -0.787,2.033c-0.296,0.492 -0.509,0.759 -0.509,0.759c0,-0 0.304,-0.134 0.817,-0.455c0.471,-0.341 1.246,-0.912 1.679,-1.97c0.425,-1.038 0.608,-2.38 0.417,-3.671c-0.184,-1.309 -0.48,-2.588 -0.875,-3.925c-0.517,-1.283 -1.134,-2.629 -2.309,-3.654c-0.579,-0.505 -1.358,-0.817 -2.083,-0.855c-0.725,-0.045 -1.358,0.134 -1.875,0.334Z"
            style="fill: hsl(223, 19%, 93%); fill-rule: nonzero"
        />
    </g>
</svg>
