<svg
    width="100%"
    height="100%"
    viewBox="0 0 751 863"
    version="1.1"
    xmlns="http://www.w3.org/2000/svg"
    xmlns:xlink="http://www.w3.org/1999/xlink"
    xml:space="preserve"
    xmlns:serif="http://www.serif.com/"
    style="
        fill-rule: evenodd;
        clip-rule: evenodd;
        stroke-linejoin: round;
        stroke-miterlimit: 2;
    "
>
    <g>
        <path
            d="M740.016,698.379c-2.166,19.529 -8.429,39.367 -19.066,57.154c-10.592,17.792 -25.413,33.396 -42.825,45.196c-17.513,11.654 -37.571,19.463 -58.05,22.534c-20.475,3.125 -41.259,1.387 -60.092,-3.984c-19.008,-5.366 -35.992,-14.629 -49.946,-25.971c-14.004,-11.316 -24.879,-24.691 -32.808,-38.15c-7.879,-13.516 -12.854,-27.104 -15.621,-39.437c-0.229,-1.008 -0.421,-1.992 -0.625,-2.983c0.733,-0.067 1.458,-0.134 2.192,-0.205c0.212,0.88 0.416,1.75 0.65,2.642c3.137,12.033 8.462,25.154 16.416,38.171c8.067,12.925 18.938,25.646 32.646,36.387c13.671,10.734 30.279,19.346 48.492,24.334c18.308,5.058 38.175,6.337 57.804,3.35c19.612,-3.009 38.792,-10.567 55.529,-21.767c16.708,-11.246 30.963,-26.138 41.171,-43.154c10.204,-17.013 16.546,-35.942 18.792,-54.738c2.279,-18.804 0.6,-37.396 -4.163,-54.129c-4.754,-16.754 -12.404,-31.637 -21.321,-43.996c-9.037,-12.287 -19.162,-22.187 -29.112,-29.65c-9.959,-7.471 -19.575,-12.72 -27.796,-16.295c-8.238,-3.58 -15.017,-5.605 -19.638,-6.967c-4.683,-1.163 -7.183,-1.783 -7.183,-1.783c0,-0 2.525,0.508 7.258,1.458c4.675,1.183 11.613,2.829 20.021,6.2c8.404,3.325 18.3,8.3 28.671,15.558c10.367,7.234 21.058,16.975 30.588,29.388c9.45,12.437 17.716,27.562 22.883,44.808c5.212,17.192 7.354,36.463 5.133,56.029Zm-353.412,14.959c-0.954,-0.43 -1.984,-0.896 -3.084,-1.392c-1.091,-0.521 -2.175,-1.225 -3.362,-1.888c-1.167,-0.691 -2.271,-1.612 -3.496,-2.466c-1.129,-0.971 -2.317,-1.984 -3.462,-3.117c-1.075,-1.196 -2.292,-2.35 -3.28,-3.758c-2.175,-2.659 -3.95,-5.863 -5.416,-9.309c-1.459,-3.466 -2.334,-7.279 -2.817,-11.191c-0.4,-3.934 -0.154,-7.963 0.513,-11.921c0.862,-3.867 2.179,-7.742 4.037,-11.225c1.929,-3.438 4.183,-6.633 6.842,-9.292c2.666,-2.633 5.516,-4.929 8.541,-6.567c1.042,-0.67 2.146,-1.174 3.225,-1.662l0.325,0.975c-1,0.492 -2.02,0.992 -2.983,1.65c-2.896,1.667 -5.583,3.983 -8.154,6.529c-2.554,2.592 -4.7,5.704 -6.533,9.033c-1.767,3.392 -2.963,7.03 -3.8,10.855c-0.671,3.804 -0.946,7.687 -0.596,11.483c0.441,3.775 1.246,7.471 2.629,10.838c1.417,3.329 3.021,6.491 5.075,9.133c0.921,1.4 2.079,2.546 3.096,3.746c1.087,1.137 2.225,2.154 3.304,3.133c1.171,0.875 2.237,1.792 3.354,2.521c1.133,0.696 2.171,1.437 3.221,1.996c1.067,0.537 2.062,1.041 2.983,1.508c0.95,0.392 1.842,0.717 2.642,1.029c1.579,0.679 2.933,0.904 3.808,1.196c0.888,0.25 1.363,0.383 1.363,0.383c-0,0 -0.479,-0.104 -1.384,-0.304c-0.45,-0.096 -1.008,-0.216 -1.662,-0.362c-0.325,-0.075 -0.679,-0.138 -1.05,-0.238c-0.363,-0.125 -0.75,-0.254 -1.163,-0.391c-0.816,-0.28 -1.737,-0.567 -2.716,-0.925Zm-154.025,-233.305c-2.959,6.434 -6.475,13.905 -10.304,21.88c-1.925,3.979 -3.917,8.095 -5.938,12.279c-2.029,4.162 -4.158,8.429 -6.442,12.596c-2.35,4.133 -4.762,8.245 -7.437,12.104c-2.654,3.866 -5.463,7.545 -8.35,10.941c-2.858,3.421 -5.788,6.575 -8.604,9.509c-2.8,2.954 -5.529,5.654 -8.054,8.137c-5.038,4.983 -9.355,9.008 -12.317,11.883c-2.988,2.855 -4.725,4.459 -4.725,4.459c-0,-0 1.546,-1.788 4.3,-4.867c2.771,-3.062 6.733,-7.433 11.487,-12.679c2.384,-2.613 4.955,-5.45 7.642,-8.471c2.692,-3.012 5.438,-6.262 8.196,-9.675c2.783,-3.392 5.4,-7.087 7.979,-10.891c2.592,-3.792 4.929,-7.846 7.208,-11.93c2.263,-4.108 4.392,-8.258 6.463,-12.433c2.1,-4.142 4.167,-8.217 6.162,-12.163c4.021,-7.883 7.83,-15.208 11.15,-21.462c3.292,-6.267 6.163,-11.425 8.113,-15.067c1.975,-3.629 3.146,-5.683 3.146,-5.683c-0,0 -0.925,2.179 -2.609,5.95c-1.716,3.758 -4.075,9.167 -7.066,15.583Zm33.375,29.804c9.45,12.438 17.716,27.563 22.887,44.809c5.209,17.196 7.35,36.462 5.129,56.025c-2.162,19.533 -8.429,39.371 -19.066,57.158c-10.588,17.796 -25.413,33.396 -42.825,45.196c-17.513,11.654 -37.571,19.462 -58.046,22.529c-20.475,3.129 -41.263,1.392 -60.096,-3.979c-19.008,-5.367 -35.992,-14.629 -49.942,-25.971c-14.008,-11.317 -24.883,-24.691 -32.812,-38.15c-7.879,-13.516 -12.854,-27.104 -15.621,-39.437c-2.787,-12.35 -3.646,-23.392 -3.542,-32.434c0.067,-9.058 1.171,-16.096 1.846,-20.871c0.913,-4.745 1.4,-7.27 1.4,-7.27c0,-0 -0.371,2.541 -1.071,7.316c-0.487,4.796 -1.175,11.842 -0.983,20.817c0.196,8.962 1.417,19.85 4.567,31.896c3.141,12.033 8.466,25.154 16.416,38.171c8.067,12.925 18.938,25.645 32.646,36.387c13.675,10.734 30.284,19.346 48.492,24.338c18.308,5.054 38.179,6.333 57.804,3.341c19.613,-3.004 38.792,-10.562 55.529,-21.762c16.709,-11.246 30.963,-26.138 41.171,-43.154c10.204,-17.013 16.546,-35.942 18.792,-54.738c2.279,-18.804 0.6,-37.396 -4.163,-54.129c-4.754,-16.754 -12.404,-31.637 -21.321,-43.996c-6.983,-9.492 -14.616,-17.546 -22.316,-24.167c0.408,-0.77 0.816,-1.549 1.212,-2.308c8.209,6.538 16.421,14.625 23.913,24.383Zm-233.359,31.23l80.43,30.641l10.958,10.713l-100.704,-10.675c0.154,-0.879 0.279,-1.763 0.454,-2.642c1.921,-9.771 4.925,-19.15 8.862,-28.037Zm18.455,-29.963l58.129,56.846l-75.721,-28.85c4.658,-10.063 10.558,-19.458 17.592,-27.996Zm23.204,-22.016l55.108,86.55l-15.162,-5.776l-61.75,-60.387c6.412,-7.529 13.695,-14.379 21.804,-20.387Zm30.696,-17.001l44.15,97.621l-3.017,12.3l-13.367,-5.091l-56.708,-89.067c1.1,-0.788 2.187,-1.592 3.317,-2.35c8.133,-5.458 16.72,-9.933 25.625,-13.413Zm47.22,-8.891c7.505,-0 15.055,0.683 22.588,1.987l-21.4,87.188l-12.713,-88.646c3.825,-0.337 7.667,-0.529 11.525,-0.529Zm52.98,11.083l-49.85,91.646l-1.13,-7.879l22.705,-92.5c0.291,0.058 0.587,0.096 0.879,0.154c9.537,1.875 18.696,4.783 27.396,8.579Zm-49.342,95.196l51.312,-94.329c5.825,2.658 11.43,5.733 16.775,9.204c-1.737,3.383 -3.512,6.85 -5.3,10.483c-2.387,4.825 -4.879,9.855 -7.325,14.971c-0.6,1.279 -1.204,2.559 -1.812,3.842c-0.596,1.204 -1.196,2.412 -1.796,3.625c-0.575,1.212 -1.225,2.396 -1.887,3.575c-0.667,1.175 -1.284,2.383 -1.992,3.541c-2.763,4.676 -5.779,9.259 -8.95,13.676c-3.258,4.366 -6.5,8.679 -9.879,12.729c-3.338,4.066 -6.692,7.954 -9.875,11.658c-3.234,3.683 -6.296,7.167 -9.121,10.379c-3.088,3.484 -5.871,6.667 -8.308,9.475l-1.842,-12.829Zm33.233,5.412l70.696,-55.879c0.538,0.763 1.096,1.509 1.617,2.288c5.458,8.125 9.9,16.721 13.379,25.621l-85.692,27.97Zm-10.391,8.213l5.537,-4.375l91.321,-29.808c3.829,10.3 6.346,21.004 7.467,31.904l-104.325,2.279Zm103.308,31.971l-108.408,-11.592l-9.242,-8.654c0.004,-0.137 0.017,-0.271 0.017,-0.404l11.537,-9.117l107.288,-2.341c0.912,10.6 0.529,21.366 -1.192,32.108Zm-9.892,33.204l-86.141,-33.204l-9.775,-9.158l105.441,11.274c-0.146,0.846 -0.266,1.692 -0.433,2.534c-1.958,9.962 -5.038,19.512 -9.092,28.554Zm-18.687,29.983l-63.288,-59.283l81.113,31.263c-4.721,10.087 -10.713,19.483 -17.825,28.02Zm-25.238,23.242l-54.537,-88.879l11.158,4.3l67.217,62.967c-6.95,8.066 -14.934,15.324 -23.838,21.612Zm-30.054,15.917l-42.85,-102.805l2.054,-8.279l13.021,5.021l56.075,91.388c-0.279,0.187 -0.546,0.391 -0.825,0.583c-8.687,5.833 -17.908,10.525 -27.475,14.092Zm-35.237,7.779l-12.171,-92.188l3.691,-14.9l41.705,100.055c-10.73,3.804 -21.884,6.15 -33.225,7.033Zm-13.584,-86.496l11.442,86.658c-10.725,0.659 -21.596,-0.004 -32.421,-2.033l20.979,-84.625Zm-2.696,-20.417l1.925,14.605l-22.316,90.025c-10.292,-2.101 -20.159,-5.355 -29.446,-9.692l49.837,-94.938Zm-11.87,-10.47l10.079,-3.096l1.304,9.883l-51.275,97.675c-9.717,-4.729 -18.775,-10.646 -27.017,-17.625l66.909,-86.837Zm-19.392,5.954l15.85,-4.867l-64.996,84.354c-7.871,-6.896 -14.954,-14.783 -21.1,-23.562l70.246,-55.925Zm-5.6,1.721l-65.883,52.454c-0.096,-0.142 -0.196,-0.271 -0.292,-0.413c-5.817,-8.662 -10.5,-17.858 -14.067,-27.396l80.242,-24.645Zm18.171,-14.467l-13.588,10.821l-85.571,26.279c-3.475,-9.784 -5.766,-19.921 -6.816,-30.229l105.975,-6.871Zm7.975,-15.183l3.733,5.862l-1.683,1.342l-8.013,-7.838l5.963,0.634Zm-1.471,-2.313l-6.967,-0.738l-9.371,-9.166l13.246,5.046l3.092,4.858Zm10.725,1.138l-7.996,-0.846l-2.467,-3.871l10.792,4.108l-0.329,0.609Zm5.875,-10.801l-1.263,2.321l0.813,-3.312l0.45,0.991Zm2.392,0.092l0.72,-1.325l0.613,4.271l-1.333,-2.946Zm16.908,9.325l0.021,-0.025l7.996,-2.608l-3.2,2.529l-4.817,0.104Zm-5.371,19.275l-3.479,-0.371c0.662,-0.766 1.225,-1.625 1.679,-2.558l1.8,2.929Zm2.692,0.288l-2.879,-4.688l5.283,4.946l-2.404,-0.258Zm1.416,2.308l3.588,0.388l7.987,7.479l-8.837,-3.404l-2.738,-4.463Zm-9.708,-1.038l7.017,0.75l2.133,3.48l-9.821,-3.788c0.229,-0.137 0.45,-0.283 0.671,-0.442Zm-7.058,3.342l0.6,-1.137c0.787,-0.029 1.558,-0.138 2.308,-0.317l-1.308,5.292l-1.6,-3.838Zm-1.296,2.467l2.029,4.862l-3.079,12.413l-1.608,-12.204l2.658,-5.071Zm-1.675,-4.013l0.604,1.442l-2.075,3.954l-0.829,-6.279c0.721,0.367 1.492,0.662 2.3,0.883Zm-8.717,-5.708l1.359,-0.087c0.525,0.962 1.183,1.85 1.954,2.637l-6.913,2.125l3.6,-4.675Zm-2.846,0.183l-4.3,5.579l-13.525,4.155l11.73,-9.338l6.095,-0.396Zm1.988,-2.579l-0.246,0.321l-4.9,0.317l3.196,-2.546l1.95,1.908Zm0.821,-2.196l-1.084,-1.058l1.055,-0.838c-0.038,0.642 -0.034,1.275 0.029,1.896Zm0.691,-5.337l-2.637,-4.142l4.771,0.504c-0.909,1.055 -1.634,2.279 -2.134,3.638Zm13.48,-7.575c-2.042,-0.4 -4.067,-0.25 -5.921,0.342l-0.288,-0.113l3.6,-6.608l2.921,6.458c-0.104,-0.025 -0.204,-0.058 -0.312,-0.079Zm-5.65,13.725c-0.375,-0.792 -0.359,-1.529 -0.28,-1.988c0.096,-0.466 0.221,-0.7 0.221,-0.7c0,0 0,0.271 0.084,0.7c0.091,0.425 0.3,1.009 0.729,1.534c0.416,0.525 1.091,0.983 1.821,1.125c0.416,0.096 0.791,0.071 1.187,0.012c0.388,-0.066 0.767,-0.225 1.096,-0.45c0.337,-0.217 0.625,-0.512 0.833,-0.846c0.109,-0.162 0.2,-0.354 0.267,-0.5c0.037,-0.058 0.071,-0.212 0.108,-0.321c0.029,-0.054 0.042,-0.179 0.063,-0.266c0.15,-0.763 -0.021,-1.538 -0.346,-2.129c-0.329,-0.596 -0.788,-1.009 -1.15,-1.255c-0.358,-0.237 -0.613,-0.341 -0.613,-0.341c0.005,0.012 0.255,-0.034 0.73,0.062c0.454,0.1 1.141,0.367 1.733,1.009c0.6,0.62 1.071,1.658 0.983,2.808c-0.021,0.15 -0.016,0.271 -0.058,0.45c-0.029,0.129 -0.029,0.217 -0.088,0.388c-0.091,0.32 -0.2,0.591 -0.362,0.854c-0.304,0.529 -0.733,1 -1.246,1.358c-0.525,0.338 -1.121,0.558 -1.725,0.642c-0.6,0.096 -1.237,-0.005 -1.742,-0.167c-1.137,-0.367 -1.891,-1.188 -2.245,-1.979Zm-0.317,6.733c-1.129,-0.408 -2.808,-1.212 -4.158,-2.921c-1.35,-1.654 -2.405,-4.191 -2.113,-6.971c0.054,-0.349 0.058,-0.674 0.158,-1.049c0.084,-0.33 0.117,-0.621 0.255,-0.988c0.225,-0.713 0.504,-1.375 0.887,-2c0.742,-1.258 1.779,-2.367 3.004,-3.212c1.242,-0.817 2.667,-1.35 4.109,-1.563c1.441,-0.225 2.929,-0.067 4.212,0.317c0.117,0.033 0.221,0.079 0.333,0.116c-0.333,0.388 -0.654,0.763 -0.966,1.13c-1.1,-0.246 -2.221,-0.276 -3.354,-0.101c-1.23,0.196 -2.43,0.667 -3.48,1.371c-1.05,0.705 -1.945,1.638 -2.591,2.705c-0.329,0.524 -0.592,1.099 -0.792,1.641c-0.121,0.25 -0.183,0.617 -0.275,0.917c-0.083,0.254 -0.108,0.583 -0.167,0.871c-0.341,2.379 0.334,4.7 1.467,6.304c0.567,0.804 1.179,1.492 1.813,2c0.62,0.529 1.25,0.883 1.77,1.162c0.538,0.234 0.967,0.442 1.284,0.525c0.304,0.105 0.466,0.159 0.466,0.159c0,-0 -0.166,-0.025 -0.487,-0.079c-0.321,-0.038 -0.783,-0.146 -1.375,-0.334Zm13.154,-8.829c-0.05,0.613 -0.125,1.083 -0.212,1.396c-0.071,0.317 -0.113,0.483 -0.113,0.483c0,0 0.013,-0.171 0.029,-0.491c0.042,-0.321 0.013,-0.796 0,-1.388c-0.062,-0.587 -0.15,-1.304 -0.408,-2.079c-0.067,-0.233 -0.183,-0.483 -0.283,-0.725c0.183,-0.167 0.375,-0.338 0.566,-0.504c0.404,1.283 0.454,2.458 0.421,3.308Zm2.175,-2.425c-0.021,-0.104 -0.054,-0.2 -0.075,-0.3l4.646,-6.137l3.675,-0.08l-8.246,6.517Zm-14.133,-25.563l-42.963,-94.999c10.184,-3.784 20.763,-6.276 31.538,-7.413l13.483,94.021l-2.058,8.391Zm2.875,-2.716l0.779,5.454l-1.317,2.429l-0.908,-2.004l1.446,-5.879Zm-129.888,10.241l103.538,10.98l9.758,9.546l-5.396,4.295l-109.087,7.071c-0.896,-10.529 -0.517,-21.221 1.187,-31.892Zm214.559,-79.366c7.804,6.662 14.862,14.275 21.025,22.762l-75.342,59.55l-9.325,3.042c3.087,-2.817 6.387,-5.892 9.842,-9.2c1.791,-1.742 3.629,-3.529 5.508,-5.354c1.837,-1.884 3.75,-3.763 5.625,-5.775c3.817,-3.933 7.612,-8.225 11.337,-12.725c3.663,-4.567 7.313,-9.321 10.584,-14.4c0.837,-1.254 1.591,-2.571 2.387,-3.854c0.796,-1.288 1.575,-2.584 2.284,-3.921c0.725,-1.321 1.445,-2.633 2.166,-3.95c0.659,-1.254 1.317,-2.513 1.975,-3.759c2.604,-4.97 5.171,-9.862 7.65,-14.6c1.259,-2.391 2.496,-4.745 3.704,-7.049l0.58,-0.767Zm-50.8,-35.804c4.675,1.183 11.612,2.829 20.02,6.2c6.471,2.558 13.825,6.108 21.6,10.912c-0.308,0.588 -0.616,1.175 -0.925,1.775c-7.554,-5.037 -14.762,-8.825 -21.133,-11.596c-8.237,-3.579 -15.017,-5.604 -19.637,-6.966c-4.684,-1.163 -7.184,-1.784 -7.184,-1.784c0,0 2.525,0.509 7.259,1.459Zm54.312,-24.338c-0.862,-0.208 -2.133,-0.483 -3.725,-0.929c-1.821,-0.504 -4.1,-1.133 -6.708,-1.946c0.279,-0.321 0.554,-0.629 0.85,-0.975l-0,-0.004c2.329,0.954 4.375,1.746 6.037,2.358c3.096,1.15 4.867,1.809 4.867,1.809c-0,-0 -0.463,-0.109 -1.321,-0.313Zm-49.567,-43.258c0.213,-3.884 1.196,-7.667 2.775,-11.025c1.555,-3.375 3.763,-6.267 6.196,-8.6c2.459,-2.317 5.138,-4.075 7.746,-5.346c2.617,-1.275 5.154,-2.088 7.433,-2.596c2.28,-0.5 4.288,-0.783 5.946,-0.908c1.659,-0.142 2.963,-0.142 3.85,-0.117c0.884,0.017 1.359,0.025 1.359,0.025c-0,0 -0.471,0.05 -1.35,0.146c-0.88,0.079 -2.163,0.287 -3.78,0.558c-3.212,0.571 -7.804,1.775 -12.604,4.5c-2.375,1.388 -4.762,3.184 -6.929,5.413c-2.125,2.266 -4,4.983 -5.337,8.066c-1.346,3.084 -2.092,6.521 -2.28,10.046c-0.108,2.23 0.059,4.471 0.413,6.705c-0.921,0.837 -1.808,1.754 -2.646,2.766c-0.683,-3.158 -0.971,-6.433 -0.792,-9.633Zm22.988,-7.588c-2.333,3.134 -5.321,5.15 -8.542,7.071c0.538,-3.625 2.004,-6.892 4.413,-9.492c2.525,-2.72 5.912,-4.612 9.908,-5.637c-1.871,2.704 -3.792,5.392 -5.779,8.058Zm364.654,16.817l-11.617,-2.283c0.155,-0.317 0.292,-0.642 0.409,-0.975c3.933,1.212 8.154,2.354 12.666,3.395c-0.483,-0.008 -0.97,-0.041 -1.458,-0.137Zm-28.067,159.467l26.996,59.691l-30.6,-58.216c1.196,-0.504 2.396,-1.004 3.604,-1.475Zm47.221,-8.892c7.504,0 15.054,0.683 22.588,1.987l-21.4,87.188l-12.713,-88.646c3.821,-0.337 7.667,-0.529 11.525,-0.529Zm3.129,102.729l-1.129,-7.879l22.704,-92.496c0.292,0.054 0.588,0.092 0.88,0.15c9.537,1.875 18.695,4.783 27.395,8.579l-49.85,91.646Zm13.692,15.504l-5.812,1.896c-1.63,-1.666 -3.638,-2.987 -5.93,-3.804l-1.441,-10.046l51.312,-94.329c10.338,4.717 19.984,10.733 28.725,17.95l-66.854,88.333Zm14.167,-4.625l-10.592,3.459l64.908,-85.767c7.805,6.662 14.863,14.275 21.025,22.763l-75.341,59.545Zm5.887,-1.921l70.692,-55.875c0.537,0.763 1.096,1.509 1.617,2.288c5.458,8.125 9.9,16.721 13.375,25.621l-85.684,27.966Zm-10.391,8.213l5.533,-4.371l91.321,-29.808c3.829,10.304 6.346,21.004 7.466,31.904l-104.32,2.275Zm103.3,31.971l-108.405,-11.588l-6.237,-5.841c0.021,-0.096 0.05,-0.192 0.071,-0.288c0.362,-1.841 0.375,-3.671 0.1,-5.425l8.379,-6.621l107.287,-2.341c0.913,10.6 0.53,21.362 -1.195,32.104Zm-9.888,33.208l-86.146,-33.204l-9.771,-9.158l105.442,11.275c-0.15,0.841 -0.267,1.687 -0.433,2.533c-1.959,9.963 -5.042,19.512 -9.092,28.554Zm-18.687,29.984l-63.288,-59.284l81.113,31.263c-4.721,10.087 -10.713,19.483 -17.825,28.021Zm-25.238,23.241l-54.537,-88.879l11.158,4.3l67.217,62.967c-6.95,8.066 -14.934,15.325 -23.838,21.612Zm-30.05,15.917l-42.854,-102.804l1.212,-4.892c0.23,-0.025 0.392,-0.046 0.434,-0.05l-0.05,-0.417c1.271,-0.42 2.479,-0.995 3.591,-1.712l9.884,3.808l56.079,91.392c-0.279,0.192 -0.546,0.392 -0.825,0.583c-8.688,5.834 -17.908,10.525 -27.471,14.092Zm-35.242,7.779l-12.175,-92.187l3.696,-14.9l41.704,100.054c-10.729,3.804 -21.883,6.15 -33.225,7.033Zm-13.583,-86.496l11.442,86.659c-10.725,0.658 -21.596,-0.005 -32.425,-2.034l20.983,-84.625Zm-2.696,-20.417l1.925,14.605l-22.321,90.025c-10.287,-2.1 -20.154,-5.354 -29.441,-9.688l49.837,-94.942Zm-15.637,-5.579c5.7,-0.658 10.662,-1.233 14.675,-1.704l0.475,3.6l-51.279,97.679c-9.713,-4.733 -18.775,-10.645 -27.013,-17.629l63.142,-81.946Zm-16.675,1.9c4.879,-0.55 9.471,-1.075 13.708,-1.558l-61.804,80.204c-7.875,-6.891 -14.954,-14.783 -21.1,-23.558l69.196,-55.088Zm-4.55,0.884l-65.888,52.45c-0.091,-0.138 -0.191,-0.267 -0.287,-0.404c-5.817,-8.667 -10.5,-17.863 -14.067,-27.401l80.242,-24.645Zm-9.575,0.7l-71.413,21.933c-1.633,-4.596 -2.979,-9.275 -4.083,-14.008c25.237,-2.446 52.387,-5.359 75.496,-7.925Zm-77.684,-3.909c1.292,-0.737 2.688,-1.45 4.234,-2.137c2.175,-0.971 4.175,-1.954 6.033,-2.95l56.629,-3.671l33.796,1.271l-6.125,4.879c-26.121,2.963 -61.354,6.829 -93.367,9.925c-0.475,-2.425 -0.862,-4.867 -1.2,-7.317Zm-10.375,-11.67l1.367,0.05c0.367,5.937 1.192,12.545 2.671,19.658c-0.679,0.062 -1.354,0.125 -2.029,0.187c-1.246,-7.233 -1.842,-13.916 -2.009,-19.895Zm-74.375,4.087c4.884,-3.279 11.292,0.983 10.159,6.754l-1.304,6.629c-1.171,1.342 -2.25,2.709 -3.209,4.096c-5.954,-2.271 -11.175,-6.05 -15.196,-11.071l9.55,-6.408Zm-17.287,-20.404l10.612,2.087c5.771,1.134 7.292,8.68 2.409,11.959l-9.434,6.333c-3.175,-6.3 -4.42,-13.333 -3.587,-20.379Zm14.292,-5.358c-0.7,0.091 -1.438,0.083 -2.205,-0.067l-10.37,-2.042c1.283,-3.75 3.145,-7.208 5.491,-10.266l7.084,12.375Zm-0.788,-17.867c1.646,2.683 3.008,4.758 3.908,6.183c0.909,1.425 1.392,2.188 1.392,2.188c0,-0 -0.408,-0.805 -1.175,-2.309c-0.154,-0.296 -0.329,-0.637 -0.504,-0.987l1.721,2.562c1.833,2.729 1.308,5.934 -0.517,8.034l-7.921,-13.838c0.867,-0.862 1.771,-1.679 2.717,-2.446c0.121,0.2 0.258,0.417 0.379,0.613Zm6.504,-4.363l-0.321,-0.479c0.046,-0.021 0.092,-0.046 0.138,-0.071l0.183,0.55Zm-15.975,-15.537c0.904,0.433 2.004,0.375 2.867,-0.258l6.296,-4.626l4.671,14.001c-2.417,1.141 -4.709,2.524 -6.867,4.095c-2.004,-3.833 -4.325,-8.275 -6.967,-13.212Zm-131.712,-212.529c0.158,-0.559 1.741,-2.125 2.683,-3.059c2.254,-2.237 5.058,-5.016 6.379,-9.087c1.2,-3.696 5.104,-10.025 10.442,-17.788l1.396,0.729c-2.592,6.067 -2.721,11.588 -1.296,17.038l-9.629,18.258c-3.763,-0.75 -7.296,-1.583 -10.617,-2.479c0.525,-1.533 0.642,-2.7 0.642,-3.612Zm-17.696,-258.879c0.087,-0.367 0.154,-0.925 0.367,-1.605c0.345,-1.379 1.012,-3.329 2.212,-5.512c1.213,-2.171 2.958,-4.567 5.267,-6.746c2.304,-2.183 5.158,-4.121 8.291,-5.513c1.584,-0.674 3.217,-1.229 4.867,-1.666c1.658,-0.404 3.321,-0.704 4.95,-0.875c3.263,-0.329 6.358,-0.196 8.983,0.15c2.625,0.358 4.788,0.904 6.271,1.362c1.492,0.446 2.329,0.759 2.329,0.759c0,-0 -0.808,-0.379 -2.262,-0.946c-1.454,-0.579 -3.579,-1.3 -6.213,-1.879c-2.633,-0.571 -5.787,-0.967 -9.2,-0.9c-1.704,0.041 -3.462,0.212 -5.245,0.5c-1.771,0.316 -3.559,0.766 -5.313,1.358c-3.496,1.221 -6.779,3.075 -9.517,5.275c-1.125,0.904 -2.133,1.871 -3.07,2.85c1.754,-6.583 4.345,-14.55 7.341,-21.225c25.388,-6.783 61.042,5.188 94.279,33.796c10.35,8.904 22.167,19.825 34.338,31.717c0.246,-0.33 0.496,-0.659 0.746,-0.992c0.737,-0.904 1.462,-1.821 2.121,-2.7c0.65,-0.883 1.345,-1.646 1.87,-2.354c0.538,-0.7 1.05,-1.246 1.371,-1.654c0.35,-0.392 0.546,-0.617 0.546,-0.617c0,-0 -0.104,0.279 -0.292,0.771c-0.212,0.475 -0.47,1.183 -0.9,1.966c-0.425,0.784 -0.891,1.725 -1.512,2.655c-0.617,0.929 -1.296,1.908 -2,2.87c-0.758,0.917 -1.538,1.817 -2.288,2.646c-0.32,0.354 -0.65,0.671 -0.97,0.979c-0.384,0.417 -0.775,0.825 -1.175,1.225c-1.58,1.6 -3.288,3.075 -5.009,4.309c-1.741,1.187 -3.379,2.321 -4.916,3.058c-0.75,0.408 -1.455,0.746 -2.088,1.033c-0.625,0.304 -1.179,0.567 -1.654,0.725c-0.933,0.384 -1.467,0.6 -1.467,0.6c0,0 0.567,-0.112 1.559,-0.316c0.495,-0.104 1.091,-0.263 1.766,-0.475c0.684,-0.188 1.446,-0.434 2.246,-0.788c1.625,-0.642 3.458,-1.558 5.308,-2.746c1.821,-1.225 3.646,-2.7 5.342,-4.325c1.2,-1.275 2.321,-2.621 3.317,-3.983c5.9,5.8 11.866,11.808 17.775,17.925c0.129,-0.15 0.258,-0.308 0.383,-0.454c0.646,-0.733 1.358,-1.321 1.942,-1.829c0.583,-0.517 1.154,-0.854 1.525,-1.117c0.391,-0.233 0.616,-0.367 0.616,-0.367c0,0 -0.15,0.213 -0.412,0.588c-0.267,0.358 -0.654,0.879 -1.108,1.492c-0.484,0.583 -0.955,1.341 -1.538,2.074c-0.571,0.751 -1.146,1.567 -1.687,2.405c-0.08,0.104 -0.15,0.208 -0.221,0.312c-0.488,0.779 -0.971,1.604 -1.45,2.508c-1.621,3.217 -3.034,7.213 -3.959,11.638c-0.812,4.433 -1.079,9.308 -0.837,14.062c0.346,4.734 0.867,9.351 0.592,13.596c-0.121,4.255 -1.275,8.063 -2.821,11.159c-1.425,3.15 -3.021,5.629 -4.109,7.371c-1.075,1.758 -1.691,2.762 -1.691,2.762c-0,0 0.791,-0.879 2.171,-2.413c1.312,-1.591 3.233,-3.845 5.145,-6.912c0.9,-1.563 1.805,-3.321 2.496,-5.312c0.696,-1.988 1.184,-4.176 1.454,-6.446c0.425,-4.555 0.017,-9.338 -0.183,-13.975c-0.371,-4.621 -0.246,-9.192 0.404,-13.45c0.55,-4.263 1.6,-8.18 2.909,-11.371c0.641,-1.746 1.35,-3.271 2.045,-4.588c1.6,1.663 3.192,3.33 4.78,5.005c-0.234,0.766 -0.471,1.529 -0.684,2.308c-0.425,2.146 -0.758,4.3 -0.987,6.329c-0.1,2.046 -0.142,3.946 -0.088,5.575c0.125,1.629 0.296,2.979 0.429,3.917c0.192,0.933 0.3,1.47 0.3,1.47c0,0 0.109,-0.533 0.296,-1.466c0.134,-0.929 0.35,-2.254 0.688,-3.817c0.216,-1.571 0.575,-3.387 1,-5.308c0.346,-1.933 0.804,-3.975 1.337,-5.996c0.034,-0.158 0.075,-0.313 0.109,-0.471c7.408,7.879 14.616,15.817 21.37,23.592c0.48,-0.7 0.975,-1.4 1.484,-2.092c1.087,-1.367 2.241,-2.679 3.337,-3.887c1.092,-1.213 2.234,-2.229 3.167,-3.134c0.937,-0.904 1.796,-1.579 2.367,-2.079c0.595,-0.479 0.933,-0.754 0.933,-0.754c-0,0 -0.263,0.35 -0.717,0.958c-0.008,0.009 -0.016,0.021 -0.021,0.025c-0.2,0.205 -0.6,0.604 -1.183,1.196c-0.825,0.883 -2.033,2.125 -3.333,3.75c-1.309,1.608 -2.8,3.525 -4.246,5.692c-1.425,2.175 -2.854,4.554 -4.196,6.983c-1.258,2.479 -2.421,5 -3.412,7.4c-0.975,2.413 -1.725,4.725 -2.317,6.713c-0.617,1.983 -0.963,3.683 -1.229,4.862c-0.234,1.188 -0.367,1.867 -0.367,1.867c0,-0 0.238,-0.65 0.65,-1.783c0.388,-1.142 1.017,-2.746 1.758,-4.667c0.705,-1.934 1.709,-4.117 2.721,-6.471c1.042,-2.346 2.25,-4.8 3.546,-7.204c0.933,-1.8 1.925,-3.542 2.921,-5.225c7.117,8.254 13.671,16.283 19.379,23.808c2.483,-1.096 4.938,-2.187 7.292,-3.312c5.691,-2.679 10.946,-5.396 15.687,-7.342c2.359,-0.987 4.609,-1.733 6.646,-2.217c2.033,-0.487 3.846,-0.725 5.338,-0.812c1.487,-0.109 2.662,-0.008 3.454,0.037c0.791,0.075 1.212,0.117 1.212,0.117c0,0 -0.425,0.017 -1.216,0.05c-0.788,0.05 -1.938,0.154 -3.384,0.392c-1.441,0.233 -3.171,0.641 -5.083,1.312c-1.908,0.679 -3.996,1.613 -6.238,2.725c-4.47,2.254 -9.562,5.263 -15.22,8.159c-2.834,1.445 -5.771,2.929 -8.834,4.279c-3.066,1.362 -6.166,2.679 -9.379,3.912c-3.292,1.192 -6.633,1.975 -9.904,2.704c-3.271,0.713 -6.504,1.259 -9.621,1.821c-3.108,0.546 -6.117,1.071 -8.967,1.571c-1.379,0.254 -2.716,0.504 -4.016,0.754c-8.192,2.208 -15.879,4.8 -21.629,8.45c-2.221,1.413 -4.425,2.863 -6.617,4.329c-12.4,-9.996 -22.138,-18.062 -27.963,-22.937c-0.866,-5.15 -7.837,-43.667 -27.083,-78.596c-0.121,-0.367 -0.242,-0.742 -0.367,-1.133c0.688,-1.867 1.521,-3.996 2.446,-6.1c2.509,-5.892 5.725,-11.509 5.725,-11.509c0,0 -4.158,4.95 -7.741,10.409c-0.592,0.879 -1.163,1.766 -1.713,2.641c-0.483,-1.908 -0.942,-3.941 -1.325,-6.004c-0.817,-4.441 -1.279,-8.987 -1.417,-12.421c-0.158,-3.433 -0.1,-5.745 -0.1,-5.745c0,-0 -0.533,2.241 -1.095,5.675c-0.15,0.895 -0.296,1.875 -0.43,2.916c-0.27,-2 -0.583,-4.133 -0.941,-6.258c-1.325,-8.329 -3.271,-16.492 -3.271,-16.492c-0,0 0.812,8.359 0.987,16.704c0.038,1.392 0.059,2.775 0.067,4.125c-0.621,-1.129 -1.221,-2.262 -1.871,-3.35c-0.762,-1.2 -1.437,-2.416 -2.229,-3.516c-0.8,-1.092 -1.475,-2.2 -2.283,-3.142c-0.792,-0.95 -1.479,-1.883 -2.217,-2.671c-0.737,-0.775 -1.417,-1.487 -2.017,-2.117c-0.6,-0.625 -1.216,-1.083 -1.67,-1.504c-0.938,-0.812 -1.475,-1.275 -1.475,-1.275c-0,0 0.47,0.53 1.287,1.463c0.396,0.475 0.929,1 1.438,1.696c0.5,0.691 1.066,1.475 1.683,2.329c0.608,0.854 1.158,1.862 1.796,2.875c0.65,1.008 1.162,2.179 1.783,3.325c0.3,0.554 0.563,1.137 0.825,1.729c1.85,8.425 0.746,19.438 -0.008,24.875c-22.534,6.233 -38.429,21.242 -44.188,27.367c-2.021,-4.959 -3.75,-10.092 -5.012,-15.288c-2.038,-8.375 -15.492,-25.571 -21.009,-44.354c0.013,-0.062 0.021,-0.104 0.038,-0.187Zm374.95,496.337l-1.196,-2.275l-41.829,-92.483c10.187,-3.784 20.767,-6.275 31.542,-7.413l13.483,94.021l-2,8.15Zm2.567,4.879l-1.063,-2.017l1.313,-5.337l0.779,5.454l-1.029,1.9Zm1.2,2.284l0.341,-0.63l0.25,1.759l-0.591,-1.129Zm16.529,10.02l0.021,-0.025l8,-2.612l-3.205,2.533l-4.816,0.104Zm-3.813,5.042l2.163,-2.858l3.675,-0.084l-5.367,4.242c-0.137,-0.442 -0.296,-0.875 -0.471,-1.3Zm1.134,14.525l-1.305,-2.129c0.117,-0.254 0.234,-0.513 0.334,-0.775l3.375,3.158l-2.404,-0.254Zm1.416,2.308l3.588,0.384l7.983,7.479l-8.837,-3.409l-2.734,-4.454Zm-5.179,-0.554l2.488,0.267l2.133,3.475l-6.033,-2.325c0.495,-0.446 0.975,-0.913 1.412,-1.417Zm-10.492,5.492c0.296,-0.038 0.567,-0.071 0.825,-0.1l-0.32,1.3l-0.505,-1.2Zm-2.641,0.312c0.146,-0.02 0.287,-0.037 0.429,-0.054l1.85,4.438l-3.079,12.408l-1.613,-12.204l2.413,-4.588Zm-2.584,0.3l-0.312,0.6l-0.075,-0.554c0.133,-0.012 0.258,-0.029 0.387,-0.046Zm-6.862,-4.908c0.358,0.333 0.725,0.658 1.112,0.958c-2.075,0.242 -4.35,0.505 -6.804,0.792l5.692,-1.75Zm-7.254,-0.596l-0.588,0.763l-9.516,2.925c-0.942,0.104 -1.905,0.216 -2.875,0.325l5.4,-4.296l7.579,0.283Zm31.887,-19.679l-0.5,0.663c-0.133,-0.217 -0.275,-0.43 -0.416,-0.642l0.916,-0.021Zm-124.721,16.183l27.225,1.025l-31.529,2.046c1.579,-1.004 3.009,-2.025 4.304,-3.071Zm-86.962,17.117c1.533,-1.512 3.192,-3.029 4.929,-4.55l3.325,9.796c-2.004,0.35 -4.058,0.537 -6.146,0.537c-1.066,0 -2.141,-0.062 -3.216,-0.158l1.108,-5.625Zm-123.413,-345.875c20.971,-28.546 44.388,-60.412 52.867,-83.979c5.708,4.767 14.504,12.042 25.442,20.871c-36.096,25.179 -67.246,56.725 -83.017,72.7l-0.967,0.979c-0.595,0.604 -1.162,1.2 -1.712,1.792l-1.204,-0.63c2.766,-3.804 5.658,-7.741 8.591,-11.733Zm161.521,317.683l-10.396,-2.045c-2.666,-0.526 -4.408,-2.417 -5.05,-4.625l15.305,0.579c0.22,2 0.266,4.033 0.141,6.091Zm-0.725,28.621c-1.987,1.229 -4.058,2.488 -6.196,3.75c-1.837,0.146 -3.625,0.284 -5.379,0.413c7.967,-5.417 14.088,-13.546 16.875,-23.375l3.209,0.121c0.116,3.229 0.325,6.45 0.645,9.654c-2.908,3.425 -6.016,6.62 -9.154,9.437Zm-15.516,9.05c-0.392,0.213 -0.784,0.438 -1.175,0.65l-0.188,-0.558c0.45,-0.029 0.904,-0.063 1.363,-0.092Zm-6.071,-13.791l3.733,5.558c-0.512,0.287 -1.042,0.558 -1.571,0.817l-2.162,-6.375Zm21.416,-430.53c0.934,2.075 1.696,4.084 2.305,6.042c-1.73,0.713 -3.571,1.437 -5.505,2.171c-3.366,1.358 -7,2.692 -10.67,3.916c-3.634,1.321 -7.313,2.534 -10.792,3.563c-3.463,1.104 -6.721,2.075 -9.546,2.788c-2.8,0.837 -5.162,1.454 -6.821,1.862c-1.654,0.462 -2.596,0.725 -2.596,0.725c0,0 0.98,-0.05 2.696,-0.138c1.709,-0.145 4.154,-0.379 7.075,-0.77c2.913,-0.45 6.284,-1.121 9.892,-1.909c3.575,-0.916 7.354,-2.016 11.1,-3.233c3.692,-1.375 7.333,-2.862 10.704,-4.362c1.771,-0.867 3.463,-1.721 5.054,-2.55c10.45,40.145 -46.487,56.212 -78.7,84.004c-5.929,5.112 -11.541,9.483 -16.791,13.246c-13.425,-11.88 -22.35,-25.801 -27.017,-42.08c15.55,-13.725 33.542,-28.15 52.479,-40.183c12.45,-7.912 37.958,-10.992 50.796,-15.958c6.396,-2.475 11.729,-4.892 16.337,-7.134Zm-61.875,164.646c6.08,2.208 14.605,4.896 24.817,7.038c0.454,1.471 0.8,3.016 1.029,4.633l-22.237,-5.7c-1.134,-1.967 -2.342,-3.963 -3.609,-5.971Zm23.884,42.092c-1.671,-2.259 -3.254,-4.55 -4.679,-6.829l5.666,1.454c-0.321,1.875 -0.658,3.654 -0.987,5.375Zm47.871,61.804c1.395,-4.279 1.52,-8.817 -0.434,-13.579c-2.379,-5.8 -10.225,-20.488 -19.533,-25.404c-0.629,-0.838 -1.213,-1.584 -1.738,-2.221c1.934,-3.683 5.088,-9.742 8.905,-17.238l47.958,12.3l-31.05,60.392c-1.321,-5.021 -2.683,-9.817 -4.108,-14.25Zm-40.692,49.513c1.983,-2.538 3.925,-5.096 5.804,-7.576c4.05,-5.341 7.875,-10.379 10.821,-13.437c3.412,7.979 6.587,14.9 9.062,19.588c0.28,0.529 0.571,1.079 0.867,1.65l-11.804,22.962c-4.992,-8.383 -10.404,-16.708 -14.75,-23.187Zm-36.921,-172.546c5.746,1.841 16.233,6.095 23.638,14.162c-1.234,-0.362 -2.484,-0.741 -3.746,-1.137c-1.85,-0.509 -3.692,-1.038 -5.413,-1.555c-1.716,-0.529 -3.358,-0.912 -4.737,-1.329c-1.388,-0.4 -2.571,-0.658 -3.384,-0.887c-0.825,-0.196 -1.295,-0.308 -1.295,-0.308c-0,-0 0.429,0.229 1.179,0.62c0.766,0.359 1.837,0.934 3.179,1.484c1.337,0.554 2.887,1.241 4.6,1.837c1.708,0.592 3.546,1.2 5.387,1.784c1.863,0.504 3.734,0.987 5.496,1.416c0.159,0.038 0.313,0.071 0.471,0.104c0.725,0.917 1.396,1.888 2.029,2.892c-13.833,-3.279 -23.875,-7.342 -27.5,-8.912c0.05,-3.376 0.079,-6.796 0.096,-10.171Zm-23.383,-13.096c4.904,-0.925 10.721,-2.2 17.241,-3.921c0.038,6.008 0.05,12.9 -0.004,19.862c-4.912,-5.658 -10.583,-11.095 -17.237,-15.941Zm120.491,-61.838c0,0 -0.416,0.388 -1.191,1.117c-0.775,0.729 -1.929,1.779 -3.454,3.054c-1.525,1.279 -3.413,2.784 -5.634,4.446c-2.225,1.646 -4.754,3.492 -7.621,5.342c-2.854,1.866 -5.983,3.829 -9.337,5.833c-3.363,1.992 -6.913,4.079 -10.654,6.113c-3.746,2.041 -7.625,4.095 -11.621,6.116c-3.963,2.083 -8.063,4.05 -12.163,6.013c-2.033,1.021 -4.145,1.87 -6.212,2.796c-2.075,0.904 -4.125,1.841 -6.208,2.666c-2.071,0.85 -4.125,1.692 -6.155,2.525c-2.045,0.784 -4.07,1.559 -6.062,2.321c-3.992,1.496 -7.879,2.871 -11.613,4.021c-3.716,1.212 -7.27,2.229 -10.55,3.154c-1.65,0.433 -3.22,0.883 -4.729,1.254c-1.512,0.354 -2.946,0.692 -4.296,1.009c-2.704,0.591 -5.07,1.066 -7.029,1.425c-3.912,0.704 -6.175,0.904 -6.175,0.904c0,-0 0.554,-0.109 1.6,-0.309c1.042,-0.212 2.559,-0.566 4.492,-1.012c1.925,-0.459 4.254,-1.063 6.917,-1.8c2.65,-0.763 5.633,-1.642 8.875,-2.646c3.233,-1.021 6.733,-2.154 10.387,-3.483c1.833,-0.638 3.713,-1.317 5.613,-2.063c1.904,-0.733 3.879,-1.396 5.841,-2.2c1.971,-0.779 3.975,-1.571 6.004,-2.375c2.013,-0.85 4.046,-1.708 6.096,-2.579c4.092,-1.75 8.2,-3.642 12.304,-5.537c4.105,-1.905 8.205,-3.817 12.171,-5.846c3.992,-1.963 7.9,-3.979 11.642,-5.975c3.737,-2.004 7.375,-3.905 10.767,-5.8c3.4,-1.892 6.57,-3.75 9.466,-5.517c5.796,-3.529 10.479,-6.708 13.634,-9.108c3.166,-2.384 4.895,-3.859 4.895,-3.859Zm-51.075,316.571c-3.037,-0.904 -5.358,-3.954 -4.637,-7.616l1.871,-9.521c3.158,0.975 6.1,2.362 8.783,4.083c-2.646,5.658 -4.692,10.138 -6.017,13.054Zm9.73,-10.325l-5.138,9.996c-1.371,0.642 -2.808,0.738 -4.142,0.437c1.592,-2.741 3.988,-6.912 6.971,-12.212c0.796,0.567 1.567,1.154 2.309,1.779Zm28.358,-14.487c-1,3.029 -1.904,6.104 -2.721,9.212l-15.921,-2.633c-0.071,-0.179 -0.137,-0.354 -0.208,-0.538l11.654,-22.666c2.513,5.487 4.979,11.141 7.196,16.625Zm59.683,-78.429c-20.812,13.97 -37.5,32.429 -49.091,53.87c-1.413,-5.491 -2.855,-11.712 -4.338,-18.233l40.571,-78.912l20.337,38.566c-2.525,1.496 -5.02,3.059 -7.479,4.709Zm65.038,108.741l-56.525,-88.775c1.1,-0.787 2.187,-1.591 3.316,-2.346c1.834,-1.233 3.696,-2.391 5.571,-3.52l50.134,95.058l-2.496,-0.417Zm4.575,7.188l-1.263,-1.984l1.875,0.313l0.971,1.842l-1.583,-0.171Zm-88.15,-7.188l77.496,8.217l0.179,0.175l-76.209,-2.879c-0.229,-1.813 -0.725,-3.654 -1.466,-5.513Zm-35.092,-1.912c0.913,-4.742 1.4,-7.275 1.4,-7.275c0,-0 -0.371,2.546 -1.071,7.32c-0.175,1.713 -0.371,3.721 -0.55,5.992l-0.604,-0.021c0.288,-2.287 0.583,-4.304 0.825,-6.016Zm18.729,-33.646l80.429,30.642l2.08,2.033l-76.567,-12.679c-0.204,-0.246 -0.408,-0.492 -0.617,-0.738c-2.879,-3.437 -5.812,-6.942 -8.583,-11.225c0.992,-2.721 2.087,-5.396 3.258,-8.033Zm18.454,-29.963l58.134,56.846l-75.725,-28.85c4.658,-10.062 10.558,-19.458 17.591,-27.996Zm67.742,63.246l-0.746,-0.729l2.821,1.075l-2.075,-0.346Zm-71.092,-0.471c-1.445,-2.72 -3.079,-5.133 -4.829,-7.441l77.963,12.908l3.15,3.075l-76.054,-8.063c-0.08,-0.158 -0.146,-0.32 -0.23,-0.479Zm79.717,8.909l-2.892,-2.834l8.48,1.404l1.379,2.167l-6.967,-0.737Zm-53.162,-93.7l55.108,86.55l-15.163,-5.775l-61.75,-60.388c6.413,-7.529 13.696,-14.379 21.805,-20.387Zm-80.434,80.058c-0.108,-3.271 -1.087,-6.754 -2.746,-11.288l12.913,2.142c-0.383,1.659 -0.75,3.329 -1.079,5.009c-1,5.079 -1.738,10.166 -2.221,15.254l-2.996,-0.113c-0.779,-3.858 -2.092,-7.558 -3.871,-11.004Zm-2.591,10.254c0.041,0.167 0.079,0.338 0.12,0.509l-0.366,-0.013c0.083,-0.167 0.162,-0.329 0.246,-0.496Zm-35.83,-13.629c-0.304,0.254 -0.625,0.483 -0.962,0.679l-1.888,-5.658l2.85,4.979Zm28.067,-1.021l-1.342,0.9l0.788,-1.529c0.187,0.204 0.371,0.417 0.554,0.629Zm-3.95,11.871l8.117,-5.45c-0.263,2.65 -1.367,5.154 -3.413,8.471l-7.041,-0.267c0.475,-1.054 1.237,-2.012 2.337,-2.754Zm0.488,39.038l-6.313,-9.405c-0.737,-1.095 -1.075,-2.262 -1.121,-3.412c1.342,-1.179 2.65,-2.371 3.913,-3.575l14.054,0.529c-2.063,6.25 -5.75,11.683 -10.533,15.863Zm-15.838,-68.667c-2.662,-0.504 -5.317,-0.759 -7.933,-0.759l-0,1.938c0.866,0.042 1.687,0.104 2.421,0.146c0.433,0.029 0.841,0.054 1.225,0.079c0.379,0.046 0.733,0.121 1.066,0.175c0.659,0.117 1.221,0.217 1.679,0.296c0.909,0.158 1.392,0.241 1.392,0.241c0,0 -0.487,-0.054 -1.404,-0.162c-0.925,-0.058 -2.254,-0.362 -3.975,-0.333c-0.733,-0.009 -1.546,-0.034 -2.404,-0.042l-0,3.787c1.066,0 2.141,0.063 3.212,0.159l-1.162,5.921l-0.846,1.645l-4.342,-7.583c1.038,-0.091 2.079,-0.142 3.134,-0.142l0.004,-3.787c-0.15,-0 -0.284,-0.004 -0.438,-0.004c-1.029,0.083 -2.141,0.171 -3.329,0.267c-1.171,0.116 -2.4,0.404 -3.7,0.62l-0.233,-0.704c0.016,-0.004 0.037,-0.008 0.054,-0.012c1.35,-0.163 2.617,-0.404 3.825,-0.471c1.204,-0.046 2.337,-0.083 3.379,-0.121c0.154,0.004 0.292,0.017 0.442,0.025l-0,-1.938l-0.004,0c-2.171,0 -4.313,0.2 -6.417,0.525l-4.658,-8.133l-2.9,-8.696l8.033,-5.904c1.25,-0.916 1.517,-2.675 0.6,-3.921l-2.717,-3.7c2.842,-2.804 5.663,-5.996 8.425,-9.35c4.704,7.059 10.442,15.975 15.454,24.613l-7.883,15.325Zm-81.154,-152.196c-26.65,-14.3 -47.846,-49.729 -47.846,-49.729c-15.65,-25.758 -27.508,-35.146 -5.683,-57.246c8.225,-8.329 21.271,-21.608 37.291,-36.071c5.055,15.804 13.946,29.442 26.875,41.179c-22.637,15.192 -37.116,18.155 -37.116,18.155c-0,-0 9.387,10.383 28.9,27.862c15.379,13.779 37.521,41.15 52.358,62.483c-9.962,8.167 -24.229,13.388 -27.837,14.63c-6.667,-7.671 -15.425,-15.084 -26.942,-21.263Zm32.375,77.208c-0.679,4.409 -1.413,7.717 -2.292,10.613l-59.008,-103.084c7.521,7.846 16.396,15.492 26.029,20.659c24.3,13.042 35.317,31.687 40.308,45.604c-0.937,4.129 -3.291,14.912 -5.037,26.208Zm18.233,59.655c-0.75,-0.571 -1.1,-1.284 -1.258,-1.763c-0.146,-0.496 -0.146,-0.779 -0.146,-0.779c0,-0 0.133,0.258 0.417,0.637c0.291,0.375 0.775,0.846 1.454,1.159c0.667,0.316 1.558,0.437 2.354,0.22c0.458,-0.112 0.821,-0.325 1.183,-0.579c0.355,-0.262 0.65,-0.608 0.863,-1c0.221,-0.387 0.358,-0.82 0.4,-1.258c0.021,-0.217 0.012,-0.45 0.004,-0.629c0.008,-0.083 -0.037,-0.246 -0.054,-0.367c-0.004,-0.075 -0.05,-0.2 -0.071,-0.3c-0.246,-0.829 -0.808,-1.496 -1.429,-1.908c-0.058,-0.038 -0.117,-0.063 -0.175,-0.096c0.287,-0.183 0.567,-0.358 0.854,-0.546c0.788,0.363 1.588,1.063 2.008,2.083c0.055,0.155 0.117,0.271 0.163,0.459c0.033,0.137 0.075,0.225 0.104,0.412c0.067,0.35 0.092,0.667 0.067,0.996c-0.034,0.654 -0.221,1.313 -0.534,1.9c-0.337,0.579 -0.8,1.079 -1.337,1.454c-0.529,0.384 -1.179,0.6 -1.746,0.692c-1.262,0.208 -2.387,-0.208 -3.121,-0.787Zm-163.946,-484.742c2.955,-4.317 5.963,-8.729 8.18,-13.008c0.312,-0.005 0.679,-0.017 1.095,-0.038c-5.3,12.254 -8.416,26.217 -8.416,26.217c-0,-0 -3.321,-1.184 -7.504,-2.829c1.75,-3.176 4.141,-6.684 6.645,-10.342Zm-60.72,-44.392c-0.025,0.013 -0.046,0.025 -0.067,0.042c0.021,-0.017 0.042,-0.029 0.067,-0.042Zm-14.292,11.071c-0.346,-0.287 -0.729,-0.646 -1.154,-1.163c-2.667,-3.229 -4.517,-8.487 -5.117,-11.537c1.129,3.062 3.471,8.842 6.271,12.7Zm49.992,-19.896c-0,0 0.404,-0.55 1.266,-1.304c0.813,-0.783 2.196,-1.683 3.913,-2.208c1.296,-0.425 2.871,-0.375 4.325,0.116c1.304,1.484 2.787,3.271 4.308,5.271c0.046,0.242 0.092,0.483 0.121,0.729c0.233,1.167 0.304,2.417 0.337,3.688c0.025,1.287 0.059,2.562 -0.012,3.708c-0.121,2.304 -0.608,4.25 -1.967,5.4c-1.312,1.154 -2.871,1.842 -3.941,2.234c-0.325,0.133 -0.592,0.237 -0.83,0.329c-5.112,-6.529 -8.895,-13.446 -11.412,-18.779c5.604,-1.801 9.721,-3.921 1.842,-4.259c-0.313,-0.012 -0.642,-0.021 -0.988,-0.021c-0.825,0 -1.742,0.042 -2.717,0.113c-0.141,-0.333 -0.275,-0.65 -0.4,-0.954c4.063,0.075 7.805,0.283 11.3,0.575c-0.204,0.083 -0.408,0.162 -0.595,0.254c-2.005,0.954 -3.084,2.454 -3.738,3.425c-0.612,1.041 -0.812,1.683 -0.812,1.683Zm12.883,24.088c-1.838,-1.867 -3.55,-3.829 -5.133,-5.834c0.216,-0.008 0.458,-0.021 0.733,-0.041c1.146,-0.171 2.942,-0.217 4.854,-1.442c0.921,-0.621 1.854,-1.55 2.458,-2.725c0.621,-1.163 0.971,-2.492 1.109,-3.808c0.137,-1.238 0.171,-2.45 0.212,-3.68c1.584,2.425 3.079,5.021 4.317,7.717c-2.221,3.217 -5.021,6.563 -8.55,9.813Zm-28.85,-29.896c0.2,0.546 0.458,1.242 0.779,2.058c-12.375,2.113 -26.925,5.975 -26.925,5.975c-1.146,-0.991 -3.321,-1.671 -5.754,-1.933c9.971,-3.496 20.646,-5.55 31.9,-6.1Zm-24.042,17.912c0.029,0.055 0.746,1.334 -0.591,2.679c-0.646,0.646 -1.217,1.284 -1.767,1.901c-0.025,0.029 -0.05,0.05 -0.075,0.079c0.267,-0.5 0.496,-1.03 0.654,-1.58c1.217,-4.191 -2.646,-10.791 -7.737,-11.12c-3.1,-0.204 -5.546,0.416 -6.713,0.791c0.788,-0.846 3.071,-1.621 6.142,-1.621c3.083,0 5.354,0.763 5.979,1.309c0.562,0.487 1.279,0.746 2.004,0.746c0.263,-0 0.529,-0.034 0.788,-0.104c0.108,-0.03 4.475,-1.184 10.37,-2.559c-0.75,0.267 -1.466,0.529 -2.12,0.779c-1.4,0.525 -2.542,1.038 -3.346,1.375c-0.804,0.346 -1.25,0.575 -1.25,0.575c-0,0 0.487,-0.108 1.341,-0.295c0.65,-0.151 1.513,-0.351 2.534,-0.588c-4.196,1.746 -6.05,3.396 -6.538,5.363c-0.191,0.77 -0.075,1.583 0.325,2.27Zm53.075,49.284l4.025,-28.75c3.167,-2.696 5.867,-5.484 8.184,-8.259c1.75,4.909 3.112,8.934 4.012,11.663c-2.058,4.45 -5.412,9.358 -8.692,14.146c-2.712,3.966 -5.308,7.77 -7.216,11.333c-0.104,-0.046 -0.209,-0.087 -0.313,-0.133Zm168.7,389.337c-2.604,-7.462 -6.762,-16.079 -13.354,-24.583c5.354,-1.929 17.833,-6.933 27.317,-14.633c2.904,4.283 5.454,8.258 7.521,11.733c8.495,14.316 14.6,19.35 17.658,21.112c-3.054,3.092 -7.054,5.296 -11.608,6.238c-11.813,2.433 -23.138,0.917 -27.534,0.133Zm8.484,90.904l6.054,-4.446l19.604,58.763c0.233,0.667 -0.117,1.396 -0.779,1.629l-4.342,1.521c-0.137,0.05 -0.279,0.075 -0.421,0.075c-0.541,-0 -1.025,-0.346 -1.196,-0.833l-18.92,-56.709Zm121.858,-158.391l13.621,7.004l-10.55,20.521l94.041,178.9c0.075,0.012 0.15,0.016 0.225,0.029c2.663,0.525 4.909,1.958 6.492,3.908c-0.896,-0.896 -1.925,-1.587 -2.975,-2.046c-1.221,-0.537 -2.467,-0.75 -3.583,-0.771c-1.117,-0.033 -2.125,0.155 -2.95,0.45c-0.842,0.255 -1.488,0.659 -1.996,0.98c-0.513,0.362 -0.85,0.675 -1.058,0.904c-0.217,0.229 -0.33,0.35 -0.33,0.35c0,-0 0.163,-0.042 0.463,-0.125c0.296,-0.113 0.758,-0.179 1.271,-0.288c0.55,-0.075 1.2,-0.125 1.921,-0.095c0.716,0.02 1.508,0.183 2.3,0.425c1.583,0.524 3.175,1.6 4.187,3.174c0.1,0.188 0.288,0.438 0.325,0.563c0.121,0.246 0.35,0.604 0.367,0.754c0.121,0.338 0.291,0.821 0.375,1.279c0.179,0.925 0.2,1.896 0.012,2.834c-0.179,0.937 -0.571,1.825 -1.083,2.612c-0.554,0.792 -1.15,1.438 -2.021,2.021c-1.437,1.017 -3.383,1.45 -5.025,1.329c-0.825,-0.079 -1.617,-0.225 -2.292,-0.479c-0.679,-0.242 -1.258,-0.537 -1.741,-0.812c-0.446,-0.309 -0.842,-0.542 -1.067,-0.746c-0.25,-0.192 -0.383,-0.292 -0.383,-0.292c-0,0 0.062,0.154 0.175,0.45c0.108,0.3 0.312,0.721 0.633,1.238c0.346,0.491 0.796,1.112 1.475,1.666c0.654,0.588 1.517,1.142 2.567,1.534c1.812,0.737 4.246,0.954 6.696,0.062c-1.5,0.738 -3.155,1.179 -4.888,1.179c-0.712,0 -1.437,-0.071 -2.162,-0.212c-2.83,-0.554 -5.184,-2.146 -6.78,-4.296l-145.104,-5.463c0.1,-0.591 0.188,-1.183 0.263,-1.77c0.466,0.029 0.929,0.058 1.408,0.087c7.721,0.492 16.729,0.996 26.383,1.475c4.825,0.225 9.813,0.458 14.884,0.696c5.071,0.212 10.221,0.425 15.371,0.637c5.15,0.18 10.304,0.359 15.375,0.534c5.07,0.15 10.062,0.295 14.895,0.437c9.663,0.263 18.684,0.442 26.417,0.538c7.733,0.121 14.183,0.087 18.692,0.129c4.516,-0.021 7.096,-0.029 7.096,-0.029c-0,-0 -2.571,-0.209 -7.071,-0.567c-4.504,-0.304 -10.929,-0.825 -18.65,-1.292c-7.721,-0.491 -16.734,-1 -26.384,-1.475c-4.825,-0.225 -9.816,-0.458 -14.883,-0.696c-5.071,-0.208 -10.221,-0.42 -15.371,-0.633c-5.154,-0.179 -10.304,-0.358 -15.375,-0.533c-5.071,-0.15 -10.066,-0.296 -14.896,-0.434c-9.662,-0.262 -18.683,-0.441 -26.416,-0.537c-0.442,-0.004 -0.863,-0.012 -1.296,-0.017c0.212,-2.45 0.2,-4.875 -0.013,-7.258l143.275,5.408c0.7,-1.75 1.813,-3.25 3.205,-4.408l-90.242,-171.108l-70.625,137.366l-2.658,-0.441c0.958,-1.725 1.945,-3.509 2.975,-5.379c4.791,-8.667 10.295,-18.825 16.1,-29.755c2.883,-5.475 5.929,-11.1 8.9,-16.875c2.995,-5.766 6.037,-11.625 9.079,-17.479c2.996,-5.883 5.991,-11.762 8.941,-17.554c2.963,-5.779 5.775,-11.525 8.55,-17.054c2.784,-5.525 5.392,-10.908 7.888,-16.004c2.508,-5.088 4.825,-9.93 6.962,-14.396c8.571,-17.854 13.93,-29.946 13.93,-29.946c-0,-0 -6.725,11.387 -16.267,28.746c-2.392,4.333 -4.979,9.033 -7.663,14.033c-2.695,4.992 -5.558,10.246 -8.437,15.721c-2.883,5.475 -5.921,11.1 -8.904,16.875c-2.996,5.767 -6.038,11.621 -9.079,17.479c-2.996,5.879 -5.996,11.759 -8.942,17.55c-2.975,5.775 -5.779,11.525 -8.554,17.054c-5.521,11.075 -10.584,21.459 -14.85,30.4c-1.034,2.155 -2.021,4.221 -2.959,6.196l-4.191,-0.692c-1.925,-0.937 -3.938,-1.737 -6.034,-2.383l74.43,-144.766l-97.592,-25.026c-0.358,-0.674 -0.725,-1.379 -1.096,-2.099c4.129,1.041 8.25,2.079 12.321,3.108c6.096,1.558 12.121,2.979 17.937,4.417c11.642,2.837 22.53,5.412 31.875,7.545c18.688,4.309 31.23,6.85 31.23,6.85c-0,0 -12.225,-3.791 -30.684,-8.979c-9.225,-2.617 -20.008,-5.583 -31.583,-8.683c-5.796,-1.529 -11.767,-3.175 -17.858,-4.734c-5.125,-1.329 -10.317,-2.675 -15.521,-4.024c-0.075,-0.15 -0.146,-0.292 -0.225,-0.446c-1.729,-3.446 -3.634,-7.221 -5.759,-11.163l114.138,29.267l6.4,-12.454Zm28.812,-50.579c0.663,-1.13 1.359,-2.309 2.117,-3.396c0.763,-1.104 1.417,-2.221 2.271,-3.317l2.492,-3.117l0.012,-0.016c1.025,-1.096 2.063,-2.171 3.108,-3.234c-0.92,1.184 -1.85,2.354 -2.791,3.509l0.012,-0.013l-2.229,3.308c-0.721,1.042 -1.375,2.255 -2.062,3.371c-0.713,1.134 -1.309,2.275 -1.93,3.467c-0.641,1.171 -1.2,2.338 -1.812,3.533c-2.392,4.742 -4.838,9.471 -7.3,14.171c-2.471,4.704 -4.954,9.404 -7.533,14.054c-2.525,4.68 -5.084,9.338 -7.767,13.938c2.162,-4.863 4.45,-9.663 6.771,-14.446c2.316,-4.788 4.75,-9.513 7.187,-14.237c2.442,-4.734 4.942,-9.417 7.475,-14.092c0.613,-1.163 1.296,-2.35 1.979,-3.483Zm-32.695,-48.284c0.654,-3.317 4.687,-4.587 10.704,-4.587c16.258,-0 46.975,9.295 64.441,12.729c23.93,4.704 55.43,5.046 54.175,11.433c-1.1,5.584 -22.325,12.304 -35.741,12.304c-1.925,0 -3.688,-0.137 -5.204,-0.433c-33.921,-6.671 -51.7,-20.204 -65.65,-23.337c-13.95,-3.134 -24.596,1.404 -22.725,-8.109Zm42.104,20.809c3.012,1.374 6.216,2.8 9.662,4.233c-0.683,0.341 -1.391,0.708 -2.15,1.133c-0.633,0.392 -1.337,0.846 -2.062,1.338c-2.234,-1.475 -4.067,-4.046 -5.45,-6.704Zm-363.088,-374.621c2.238,-0.471 4.525,-0.884 6.821,-1.238c1.158,-0.146 2.313,-0.291 3.467,-0.437c1.141,-0.113 2.275,-0.225 3.404,-0.338c1.121,-0.108 2.233,-0.212 3.333,-0.317c1.092,-0.129 2.171,-0.258 3.229,-0.383c2.117,-0.3 4.159,-0.604 6.088,-0.954c1.917,-0.383 3.737,-0.75 5.4,-1.158c1.658,-0.421 3.183,-0.809 4.517,-1.213c1.341,-0.391 2.487,-0.796 3.429,-1.137c1.883,-0.696 2.929,-1.196 2.929,-1.196c-0,-0 -0.942,0.683 -2.746,1.612c-1.808,0.905 -4.446,2.134 -7.758,3.225c-1.65,0.559 -3.463,1.088 -5.4,1.575c-1.942,0.471 -3.996,0.93 -6.146,1.292c-2.142,0.35 -4.392,0.679 -6.638,0.908c-1.125,0.125 -2.262,0.254 -3.4,0.379c-1.12,0.155 -2.245,0.313 -3.366,0.467c-2.259,0.325 -4.504,0.7 -6.7,1.138c-1.917,0.408 -3.796,0.804 -5.617,1.258c-0.654,0.208 -1.317,0.408 -1.954,0.625c-2.075,0.708 -4.058,1.446 -5.9,2.242c-1.85,0.77 -3.558,1.6 -5.104,2.408c-1.55,0.808 -2.929,1.617 -4.121,2.383c-1.188,0.767 -2.204,1.463 -3,2.092c-0.808,0.604 -1.417,1.121 -1.821,1.479c-0.408,0.35 -0.625,0.538 -0.625,0.538c0,-0 0.238,-0.163 0.683,-0.467c0.442,-0.308 1.096,-0.75 1.963,-1.258c0.85,-0.53 1.929,-1.105 3.175,-1.721c1.25,-0.621 2.683,-1.258 4.279,-1.875c1.592,-0.621 3.338,-1.238 5.217,-1.779c1.871,-0.575 3.875,-1.071 5.95,-1.53c2.083,-0.458 4.25,-0.841 6.454,-1.183c2.208,-0.321 4.462,-0.583 6.717,-0.792c1.12,-0.083 2.241,-0.166 3.358,-0.249c1.146,-0.055 2.287,-0.113 3.421,-0.167c0.046,-0 0.091,-0.004 0.141,-0.008c2.588,1.612 4.988,3.591 7.117,5.708c0.992,-0.113 1.983,-0.229 2.954,-0.338c2.767,-0.383 5.446,-0.775 7.971,-1.22c2.517,-0.492 4.9,-0.963 7.079,-1.484c2.175,-0.537 4.171,-1.042 5.917,-1.575c1.75,-0.516 3.262,-1.021 4.5,-1.454c2.479,-0.883 3.842,-1.533 3.842,-1.533c-0,-0 -1.238,0.875 -3.6,2.091c-2.363,1.205 -5.846,2.746 -10.184,4.159c-2.162,0.716 -4.537,1.4 -7.079,2.029c-1.275,0.287 -2.583,0.583 -3.921,0.887c-1.346,0.267 -2.725,0.521 -4.129,0.767c-2.808,0.45 -5.754,0.871 -8.692,1.163c-1.475,0.158 -2.962,0.316 -4.454,0.479c-1.466,0.196 -2.937,0.396 -4.412,0.591c-1.475,0.221 -2.95,0.446 -4.417,0.663c-1.462,0.266 -2.917,0.529 -4.362,0.792c-2.55,0.533 -5.059,1.045 -7.488,1.641c-0.804,0.25 -1.621,0.492 -2.408,0.758c-2.717,0.913 -5.321,1.863 -7.738,2.888c-1.216,0.496 -2.383,1.012 -3.496,1.542c-1.125,0.5 -2.187,1.045 -3.204,1.57c-2.033,1.042 -3.846,2.092 -5.412,3.084c-0.796,0.471 -1.5,0.979 -2.163,1.429c-0.666,0.442 -1.262,0.871 -1.783,1.283c-1.067,0.784 -1.863,1.455 -2.396,1.921c-0.537,0.459 -0.825,0.7 -0.825,0.7c0,0 0.313,-0.208 0.9,-0.604c0.579,-0.404 1.442,-0.975 2.579,-1.633c0.559,-0.35 1.192,-0.705 1.896,-1.067c0.696,-0.371 1.442,-0.788 2.275,-1.163c1.638,-0.799 3.525,-1.624 5.617,-2.42c1.046,-0.396 2.133,-0.813 3.287,-1.175c1.138,-0.396 2.325,-0.771 3.559,-1.117c2.45,-0.733 5.075,-1.371 7.8,-1.958c2.725,-0.588 5.566,-1.075 8.454,-1.509c1.45,-0.187 2.912,-0.375 4.379,-0.566c1.471,-0.142 2.946,-0.288 4.421,-0.434c1.471,-0.104 2.937,-0.208 4.4,-0.308c1.5,-0.071 2.996,-0.142 4.479,-0.208c1.5,-0.071 2.987,-0.146 4.458,-0.217c1.488,-0.117 2.959,-0.233 4.4,-0.346c1.15,-0.125 2.271,-0.246 3.388,-0.366c1.283,1.912 2.262,3.674 2.883,5.095c2.15,4.946 2.963,9.9 2.975,14.563c2.992,-0.096 5.896,-0.196 8.65,-0.354c2.917,-0.196 5.675,-0.392 8.221,-0.638c5.079,-0.512 9.312,-1.075 12.246,-1.65c1.466,-0.291 2.625,-0.504 3.404,-0.696c0.783,-0.175 1.192,-0.295 1.192,-0.295c-0,-0 -1.571,0.704 -4.455,1.566c-2.887,0.834 -7.058,1.946 -12.154,2.809c-1.275,0.204 -2.604,0.416 -3.979,0.637c-1.383,0.171 -2.812,0.35 -4.279,0.538c-2.942,0.316 -6.054,0.612 -9.275,0.791c-3.225,0.167 -6.558,0.321 -9.95,0.338c-3.346,0.041 -6.788,0.087 -10.167,0.225c-3.396,0.1 -6.8,0.258 -10.137,0.487c-3.338,0.246 -6.625,0.483 -9.792,0.817c-1.775,0.2 -3.5,0.404 -5.196,0.621c-0.141,0.025 -0.291,0.054 -0.429,0.079c-1.525,0.325 -3.017,0.646 -4.471,0.958c-2.891,0.675 -5.612,1.375 -8.091,2.121c-2.48,0.738 -4.734,1.492 -6.692,2.246c-1.971,0.733 -3.646,1.475 -5.013,2.104c-1.358,0.646 -2.412,1.179 -3.108,1.583c-0.704,0.388 -1.079,0.596 -1.079,0.596c-0,0 0.396,-0.171 1.133,-0.487c0.729,-0.334 1.825,-0.763 3.229,-1.267c1.413,-0.492 3.134,-1.058 5.142,-1.587c2,-0.551 4.283,-1.075 6.788,-1.563c2.504,-0.492 5.233,-0.913 8.129,-1.3c1.45,-0.162 2.941,-0.333 4.462,-0.508c1.529,-0.129 3.088,-0.263 4.675,-0.396c6.35,-0.454 13.15,-0.613 19.925,-0.5c3.346,0.05 6.804,0.187 10.134,0.329c1.708,0.067 3.404,0.129 5.075,0.192c1.679,0.029 3.337,0.058 4.966,0.083l0.179,0c-1.104,6.133 -3.258,11.279 -4.875,14.504c-7.2,-0.933 -15.379,-1.671 -25.358,-1.604c-16.975,0.121 -32.825,3.4 -47.117,9.75c-0.425,0.192 -0.725,0.325 -0.891,0.388c0.058,-0.021 0.583,-0.2 1.271,-0.067l-0.092,0.467c-10.804,-2.417 -10.646,-15.346 -3.021,-35.763c6.621,-17.729 26.963,-27.742 41.829,-31.367c1.917,-0.554 3.892,-1.083 5.925,-1.516Zm-9.671,138.554c-3.537,-0 -5.375,-2.279 -6.27,-5.008c-0.005,-0.092 -0.005,-0.171 -0.013,-0.267c-0.058,-0.463 -0.025,-1.013 -0.092,-1.571c-0.058,-0.562 -0.091,-1.167 -0.1,-1.767c-0.066,-0.595 -0.108,-1.2 -0.12,-1.766c0.004,-0.563 -0.105,-1.105 -0.1,-1.567c-0.013,-0.462 -0.096,-0.871 -0.105,-1.15c-0.041,-0.283 -0.062,-0.45 -0.062,-0.45c-0,-0 -0.083,0.146 -0.229,0.396c-0.117,0.258 -0.334,0.625 -0.463,1.096c-0.116,0.433 -0.279,0.946 -0.346,1.504c-1.85,-2.15 -5.691,-1.929 -6.045,-3.188c-0.863,-3.066 4.954,-6.995 4.591,-9.816c-0.158,-1.238 -1.204,-1.559 -2.808,-1.559c-1.758,0 -4.188,0.388 -6.85,0.388c-0.458,-0 -0.925,-0.013 -1.396,-0.038c-4.067,-0.233 -2.837,-4.341 -2.387,-6.9c0.066,-0.029 0.141,-0.054 0.204,-0.087c0.616,-0.417 1.146,-0.85 1.546,-1.271c0.362,-0.483 0.591,-0.925 0.733,-1.229c0.096,-0.342 0.15,-0.538 0.15,-0.538c-0,0 -0.196,0.034 -0.542,0.088c-0.304,0.083 -0.733,0.183 -1.246,0.216c-0.454,0.13 -1,0.209 -1.566,0.246c-0.538,0.134 -1.129,0.213 -1.725,0.254c-0.571,0.176 -1.175,0.296 -1.754,0.388c-0.563,0.179 -1.113,0.329 -1.6,0.425c-1.342,-0.075 -2.659,-0.6 -3.684,-2.233c-1.579,-2.521 0.425,-7.059 2.179,-11.967c1.221,1.183 2.525,1.921 3.863,1.921c0.1,-0 0.204,-0.004 0.308,-0.013c5.179,-0.441 6.929,-3.691 9.934,-6.712c3,-3.025 1.066,-6.371 1.066,-6.371c0.034,-0.137 0.1,-0.271 0.184,-0.408c0.029,-0.013 0.05,-0.021 0.079,-0.034c0.641,-0.283 1.587,-0.629 2.687,-1.091c1.092,-0.484 2.413,-0.925 3.788,-1.479c1.383,-0.546 2.875,-1.071 4.383,-1.555c1.488,-0.529 2.996,-1.012 4.421,-1.421c1.433,-0.387 2.754,-0.841 3.917,-1.12c1.154,-0.296 2.112,-0.6 2.795,-0.763c0.68,-0.191 1.067,-0.3 1.067,-0.3c0,0 -0.404,0 -1.108,0.008c-0.379,0.021 -0.854,0.034 -1.392,0.063c1.292,-0.317 2.513,-0.608 3.613,-0.871c3.725,8.217 10.504,20.621 20.816,30.471l-3.512,25.096c-0.246,-0.034 -0.504,-0.067 -0.788,-0.079c-0.904,-0.042 -1.971,-0.084 -3.1,0.05c-1.121,0.15 -2.312,0.35 -3.487,0.629c-1.159,0.35 -2.3,0.742 -3.342,1.175c-1.05,0.412 -1.954,0.975 -2.737,1.412c-0.78,0.455 -1.371,0.929 -1.788,1.246c-0.4,0.338 -0.633,0.529 -0.633,0.529c-0,0 0.283,-0.1 0.779,-0.271c0.475,-0.208 1.2,-0.404 2.012,-0.724c0.821,-0.317 1.805,-0.6 2.834,-0.946c0.962,-0.342 2.012,-0.63 3.066,-0.888c-5.416,2.654 -11.22,7.609 -16.025,9.175c-1.362,0.442 -2.554,0.642 -3.6,0.642Zm51.55,282.541c-3.02,0 -3.283,-1.087 -6.433,-2.649c-15.942,-7.892 -21.992,-12.488 -20.767,-17.109c2.555,-9.637 8.68,-12.962 15.017,-16.658c-0.871,0.992 -1.717,1.916 -2.483,2.675c-0.771,0.921 -1.45,1.658 -1.934,2.171c-0.454,0.558 -0.716,0.875 -0.716,0.875c-0,-0 0.387,-0.142 1.062,-0.392c0.65,-0.296 1.571,-0.733 2.659,-1.313c1.037,-0.637 2.208,-1.441 3.454,-2.341c1.162,-0.988 2.366,-2.083 3.529,-3.229c1.05,-1.246 2.054,-2.53 2.95,-3.767c0.321,-0.525 0.612,-1.025 0.904,-1.521c0.783,-0.804 1.542,-1.671 2.258,-2.633c38.584,-51.767 55.384,-111.225 57.763,-120.163c0.517,0.15 1.037,0.292 1.562,0.417c2.409,0.558 4.838,0.813 6.642,0.846c1.808,0.041 2.996,-0.063 2.996,-0.063c-0,0 -1.183,-0.187 -2.892,-0.65c-1.708,-0.45 -3.916,-1.254 -5.966,-2.296c-2.055,-1.045 -3.938,-2.32 -5.242,-3.379c-0.146,-0.121 -0.263,-0.22 -0.396,-0.329c-5.475,-6.821 -16.104,-21.1 -24.029,-38.108c1.962,-2.246 12.933,-14.271 29.662,-22.442c-4.729,3.417 -8.379,7.084 -8.379,7.084c0,-0 5.45,-3.834 11.446,-6.43c3.142,-1.433 6.363,-2.504 8.717,-3.2c4.437,8.2 15.3,30.05 17.121,50.471c2.295,25.775 7.908,15.438 1.4,33.238c-6.367,17.425 -58.146,88.816 -71.038,119.883c-1.492,-1.533 -3.096,-2.804 -4.325,-3.683c-1.333,-0.95 -2.233,-1.53 -2.233,-1.53c-0,0 0.562,0.921 1.337,2.321c0.771,1.409 1.688,3.292 2.279,5.209c0.5,1.608 0.892,3.295 1.234,4.737c-2.242,2.225 -4.325,4.358 -4.325,7.238c-0,4.879 -11.496,16.72 -12.834,16.72Zm38.992,23.767c-0.771,0 -1.554,-0.183 -2.283,-0.567l-11.638,-6.137c-2.396,-1.267 -3.316,-4.233 -2.054,-6.629l2.421,-4.588c0.254,0.05 0.496,0.109 0.75,0.159c0.55,0.108 1.096,0.162 1.633,0.162c3.946,0 7.467,-2.783 8.254,-6.8c0.621,-3.15 -0.604,-6.237 -2.929,-8.141l7.509,-14.234c2.291,5.175 5.67,10.429 9.37,16.175c0.305,0.471 0.613,0.95 0.917,1.425c-0.929,1.55 -1.85,3.154 -2.742,4.779c-2.754,5.042 -5.191,10.259 -6.725,14.334c-0.8,2.021 -1.37,3.754 -1.745,4.983c-0.384,1.225 -0.55,1.95 -0.55,1.95c-0,0 0.516,-0.537 1.345,-1.517c0.83,-0.979 1.98,-2.395 3.255,-4.154c2.604,-3.492 5.683,-8.354 8.45,-13.392c0.491,-0.899 0.966,-1.804 1.437,-2.708c0.817,1.3 1.646,2.629 2.492,4.021c0.283,0.475 2.712,4.488 6.787,10.196l74.292,129.787c-0.992,2.292 -2.15,4.613 -3.554,7.409c-0.609,1.221 -1.259,2.512 -1.946,3.912c-0.558,1.129 -1.288,2.138 -2.133,3.079c-2.842,-5.1 -5.73,-10.341 -8.742,-15.616c-3.496,-6.163 -7.046,-12.425 -10.596,-18.684c-3.6,-6.237 -7.196,-12.47 -10.733,-18.608c-3.525,-6.146 -7.1,-12.133 -10.5,-17.963c-3.446,-5.804 -6.771,-11.416 -9.929,-16.737c-3.155,-5.321 -6.192,-10.321 -8.996,-14.933c-5.584,-9.246 -10.409,-16.85 -13.704,-22.221c-1.65,-2.683 -3.013,-4.754 -3.909,-6.184c-0.908,-1.424 -1.391,-2.183 -1.391,-2.183c-0,0 0.408,0.8 1.175,2.304c0.775,1.5 1.87,3.725 3.35,6.505c2.958,5.566 7.062,13.583 12.2,23.083c2.554,4.754 5.325,9.908 8.308,15.325c2.987,5.421 6.133,11.133 9.392,17.046c3.295,5.887 6.645,12.004 10.158,18.158c3.492,6.163 7.042,12.425 10.592,18.687c3.595,6.234 7.191,12.467 10.729,18.605c3.191,5.575 6.416,11 9.525,16.308c-0.509,0.429 -1.029,0.858 -1.559,1.292c-0.008,0.004 -0.016,0.012 -0.025,0.016l-80.995,-141.495l-0.617,1.17c-0.879,1.671 -2.583,2.621 -4.346,2.621Zm85.567,156.967c-5.746,-9.033 1.771,-11.833 7.95,-17.683c0.379,0.008 0.991,0.012 1.8,-0.03c1.308,-0.058 3.025,-0.279 4.662,-0.683c1.646,-0.404 3.2,-0.988 4.313,-1.513c1.112,-0.516 1.804,-0.929 1.804,-0.929c-0,0 -3.217,0.563 -6.279,0.15c-1.117,-0.129 -2.196,-0.354 -3.113,-0.595c0.563,-0.796 1.088,-1.638 1.538,-2.559c2.929,-5.954 5.125,-9.975 6.866,-14.679l19.505,-0.112l-17.634,-5.942c0.225,-0.883 0.438,-1.817 0.646,-2.796l22.138,0.396l-20.992,-6.771c0.158,-1.021 0.325,-2.033 0.492,-3.042l24.35,2.463l-23.188,-9.059c1.054,-5.641 2.096,-10.558 2.788,-13.683c2.887,0.504 7.983,1.2 14.179,1.2c4.483,0 9.537,-0.366 14.725,-1.437c2.991,-0.617 5.796,-1.692 8.325,-3.15c-2.621,2.316 -5.679,4.583 -9.075,6.391c-5.946,3.271 -12.796,4.859 -18,5.05c-2.6,0.109 -4.792,-0.058 -6.313,-0.266c-0.762,-0.079 -1.354,-0.204 -1.762,-0.271c-0.409,-0.067 -0.625,-0.104 -0.625,-0.104c-0,-0 0.212,0.062 0.604,0.187c0.396,0.113 0.971,0.321 1.725,0.5c1.492,0.404 3.671,0.867 6.346,1.104c5.329,0.5 12.687,-0.175 19.546,-2.85c6.891,-2.571 13.02,-6.896 17.158,-10.579c2.075,-1.841 3.696,-3.504 4.796,-4.7c0.212,-0.233 0.391,-0.429 0.566,-0.621c1.867,0.759 3.613,2.021 4.867,4.113c0.563,0.937 0.35,2.808 -0.5,5.379c-7.029,8.254 -20.679,24.288 -34.337,40.333c-4.925,5.721 -9.742,11.592 -14.459,16.792c-4.721,5.192 -9.654,9.546 -14.487,12.383c-4.813,2.888 -9.379,4.263 -12.617,4.78c-1.625,0.274 -2.921,0.341 -3.808,0.375c-0.884,0.008 -1.354,0.008 -1.354,0.008c-0,-0 0.47,0.025 1.354,0.075c0.887,0.021 2.196,0.033 3.846,-0.146c3.3,-0.321 8.029,-1.429 13.133,-4.083c5.133,-2.604 10.487,-6.78 15.6,-11.767c5.125,-5 10.246,-10.525 15.521,-15.946c6.721,-6.983 13.433,-13.962 19.462,-20.229c-14.491,22.204 -38.279,50.429 -56.187,58.054c-0,0 0.412,-0.087 1.133,-0.258c-2.754,0.9 -5.408,1.45 -7.821,1.45c-3.816,-0 -7.05,-1.342 -9.187,-4.7Zm16.958,9.679c0.838,-0.229 1.688,-0.483 2.571,-0.783c0.796,1.312 1.579,2.604 2.342,3.862c3.795,6.288 7.229,11.788 10.083,16.371c-0.896,0.7 -1.763,1.438 -2.6,2.204l-12.396,-21.654Zm30.908,93.725c0.634,0.158 1.275,0.304 1.925,0.433c2.755,0.538 5.496,0.8 8.196,0.8c2.763,0 5.475,-0.3 8.125,-0.825l1.3,3.834c-2.487,1.195 -4.858,2.179 -7.079,2.746c-3.087,0.825 -5.817,0.87 -7.679,0.625c-0.938,-0.117 -1.663,-0.292 -2.154,-0.421c-0.492,-0.146 -0.75,-0.225 -0.75,-0.225c-0,-0 0.25,0.108 0.721,0.308c0.475,0.183 1.187,0.438 2.12,0.663c1.867,0.454 4.671,0.725 7.98,0.225c2.333,-0.334 4.87,-1.067 7.495,-1.988l0.334,0.979c-7.588,4.854 -13.604,7.379 -20.342,3.559c-1.837,-3.642 -1.679,-7.192 -0.192,-10.713Zm-202.895,-369.525c-0.3,-1.2 -0.725,-2.929 -1.421,-4.879c-0.346,-0.971 -0.817,-2 -1.542,-2.825c-0.717,-0.833 -1.729,-1.333 -2.9,-1.371c-1.175,-0.029 -2.437,0.283 -3.683,0.762c-0.509,0.159 -1.229,0.575 -1.817,0.863c-0.475,0.404 -1.029,0.671 -1.437,1.187c-0.95,0.871 -1.559,2.05 -1.925,3.263c-0.409,1.217 -0.405,2.521 -0.346,3.763c0.175,1.233 0.408,2.445 0.846,3.533c0.208,0.546 0.408,1.083 0.687,1.562c0.258,0.492 0.488,0.98 0.796,1.396c0.546,0.883 1.146,1.621 1.675,2.288c0.558,0.637 1.092,1.158 1.521,1.595c0.933,0.809 1.466,1.271 1.466,1.271c0,0 -0.6,-0.379 -1.654,-1.037c-0.483,-0.392 -1.091,-0.85 -1.746,-1.434c-0.625,-0.608 -1.345,-1.299 -1.97,-2.191c-0.355,-0.417 -0.638,-0.908 -0.95,-1.408c-0.33,-0.488 -0.588,-1.042 -0.855,-1.613c-0.554,-1.133 -0.933,-2.429 -1.158,-3.808c-0.112,-1.384 -0.204,-2.875 0.267,-4.325c0.408,-1.434 1.133,-2.867 2.258,-3.93c0.492,-0.591 1.225,-0.991 1.85,-1.454c0.321,-0.17 0.638,-0.312 0.95,-0.466l0.475,-0.229l0.117,-0.055c0.154,-0.066 0.116,-0.046 0.183,-0.07l0.263,-0.088c1.345,-0.508 2.812,-0.804 4.279,-0.717c1.491,0.067 2.9,0.93 3.671,2.013c0.8,1.071 1.204,2.217 1.495,3.258c0.592,2.092 0.713,3.867 0.896,5.088c0.138,1.233 0.217,1.937 0.217,1.937c-0,0 -0.183,-0.683 -0.508,-1.879Zm-17.355,10.25c-0.358,0.554 -0.804,1.217 -1.262,2.004c-0.242,0.384 -0.475,0.804 -0.708,1.258c-0.246,0.442 -0.496,0.913 -0.725,1.417c-0.492,0.992 -0.934,2.109 -1.371,3.288c-0.417,1.191 -0.792,2.466 -1.113,3.808c-0.341,1.333 -0.546,2.75 -0.791,4.179c-0.213,1.438 -0.388,2.917 -0.509,4.392c-0.15,1.492 -0.275,2.983 -0.35,4.446c-0.083,1.471 -0.162,2.925 -0.304,4.383c-0.137,1.446 -0.437,2.971 -1.2,4.263c-0.758,1.295 -1.867,2.149 -2.871,2.754c-2.041,1.212 -3.858,1.783 -5.116,2.216c-1.271,0.409 -2.005,0.6 -2.005,0.6c0,0 0.663,-0.366 1.825,-1.012c1.138,-0.65 2.834,-1.546 4.55,-2.871c0.855,-0.667 1.638,-1.492 2.121,-2.492c0.488,-1 0.617,-2.25 0.696,-3.612c0.071,-1.363 0.038,-2.833 0.096,-4.329c0.054,-1.513 0.15,-3.029 0.275,-4.546c0.296,-3.054 0.762,-6.113 1.625,-8.9c0.396,-1.4 0.917,-2.717 1.471,-3.929c0.562,-1.213 1.162,-2.325 1.812,-3.288c0.613,-0.983 1.263,-1.829 1.871,-2.537c0.583,-0.734 1.167,-1.305 1.629,-1.784c0.463,-0.479 0.879,-0.808 1.138,-1.054c0.266,-0.233 0.408,-0.362 0.408,-0.362c0,-0 -0.433,0.62 -1.192,1.708Zm455.9,174.654c-30.891,-6.075 -62.179,-2.558 -90.412,9.842l-26.429,-50.279l8.45,-16.438l0.429,0.208c0.633,0.309 1.396,0.046 1.704,-0.587l1.05,-2.158c0.308,-0.634 0.046,-1.396 -0.587,-1.704l-1.155,-0.563c-0.22,-1.333 -1.02,-2.546 -2.279,-3.254l0.604,-1.142l6.721,-13.025l0.813,-1.575c1.875,-3.596 3.737,-7.296 5.712,-11.216c0.934,-1.85 1.871,-3.709 2.813,-5.567l8.45,-16.692c0.366,-0.696 0.754,-1.341 1.133,-1.962c0.258,-0.434 0.517,-0.863 0.771,-1.309c0.412,-0.637 0.842,-1.266 1.271,-1.887c0.262,-0.383 0.525,-0.767 0.779,-1.146c1.45,-1.85 2.821,-3.6 4.225,-4.971c1.367,-1.437 2.75,-2.492 4.054,-3.454c0.042,-0.029 0.079,-0.05 0.121,-0.079l21.45,4.217c1.075,0.208 2.129,0.308 3.162,0.308c5.742,-0 10.742,-3.004 14.296,-5.979c12.004,-0.738 35.809,-6.263 37.709,-15.93c0.35,-1.775 -0.055,-3.575 -1.142,-5.07c-3.288,-4.525 -12.425,-5.809 -31.129,-8.063c-8.167,-0.983 -17.421,-2.1 -25.525,-3.692c-5.367,-1.054 -12.113,-2.699 -19.254,-4.441c-16.1,-3.925 -34.35,-8.375 -46.071,-8.375c-9.009,-0 -14.129,2.791 -15.209,8.296c-0.683,3.475 -0.208,6.191 1.459,8.3c2.754,3.491 7.425,3.679 12.829,3.896c3.554,0.141 7.583,0.304 11.937,1.283c3.096,0.696 6.484,1.992 10.35,3.675c0.938,3.246 3.73,11.329 9.38,16.225c-0.15,0.154 -0.313,0.312 -0.467,0.466c-0.279,0.28 -0.567,0.567 -0.863,0.851c-0.754,0.762 -1.429,1.566 -2.083,2.345c-0.308,0.371 -0.629,0.746 -0.95,1.121c-0.029,0.029 -0.05,0.063 -0.075,0.096c-0.262,0.35 -0.529,0.7 -0.787,1.054c-0.659,0.879 -1.342,1.792 -2.013,2.758c-0.275,0.434 -0.533,0.83 -0.792,1.234c-0.658,1.012 -1.337,2.058 -1.912,3.05l-1.121,2l-0.562,1l-0.284,0.504l-0.337,0.642l-2.179,4.158l-2.042,3.904l-2.388,4.563c-0.966,1.85 -1.933,3.695 -2.895,5.533c-2.042,3.883 -3.967,7.554 -5.805,11.175l-2.945,5.75l-4.534,8.854l-0.583,1.171c-0.617,-0.292 -1.279,-0.454 -1.95,-0.454c-0.471,-0 -0.942,0.075 -1.4,0.221c-1.163,0.371 -2.125,1.191 -2.683,2.275l-4.725,9.191l-48.275,-12.379c12.983,-26.629 27.491,-58.683 30.962,-75.467c3.896,-18.854 9.513,-45.833 13.242,-63.72c2.775,-7.125 4.525,-15.15 5.441,-24.617c1.338,-13.808 -1.75,-26.554 -8.262,-34.092c-1.317,-1.525 -2.783,-2.816 -4.354,-3.916c-10.538,-13.596 -28.154,-28.125 -46.438,-43.196c-17.125,-14.117 -34.837,-28.717 -45.375,-41.708c-27.779,-34.234 -87.454,-67.417 -111.654,-75.609c-6.246,-2.112 -11.679,-3.142 -16.6,-3.142c-3.642,0 -6.896,0.563 -9.967,1.501l-4.633,-7.176c-0.046,-4.216 -0.783,-7.504 -1.121,-8.787c-0.516,-3.612 -2.483,-15.337 -7.3,-23.654c1.421,-0.508 3.138,-0.946 5.142,-1.167c2.508,-0.275 4.592,-2.058 5.246,-4.496c0.658,-2.433 -0.246,-5.025 -2.275,-6.521l-15.054,-11.104c0.966,-4.662 2.25,-12.295 1.758,-17.975c-0.15,-1.704 -1.004,-3.266 -2.358,-4.312c-1.08,-0.838 -2.4,-1.279 -3.746,-1.279c-0.342,-0 -0.684,0.029 -1.025,0.083c-0.321,0.058 -1.459,0.258 -3.046,0.646c1.383,-1.971 1.492,-4.588 0.237,-6.675c-1.12,-1.867 -3.129,-2.971 -5.25,-2.971c-0.404,0 -0.808,0.038 -1.216,0.121c-0.238,0.05 -23.996,4.846 -37.384,5.754c-14.225,0.967 -46.691,11.242 -56.245,36.833c-6.65,17.809 -7.575,29.534 -2.9,36.888c1.583,2.496 4.504,5.446 9.637,6.796c-0.15,2.121 0.888,6.22 2.621,10.045c-0.429,1.992 -1.254,4.263 -2.021,6.355c-1.95,5.316 -3.967,10.816 -0.987,15.575c1.858,2.962 4.683,4.733 8.05,5.066c0.112,1.684 0.6,3.459 1.858,5.075c1.104,1.421 3.179,3.154 6.8,3.363c0.537,0.033 1.071,0.046 1.6,0.05c-0.883,1.883 -1.367,4.075 -0.679,6.521c1.079,3.841 4.629,4.883 6.333,5.383c0.183,0.054 0.404,0.117 0.613,0.183c1.379,9.292 7.487,12.638 12.895,12.638c1.725,-0 3.575,-0.317 5.496,-0.946c3.521,-1.146 7.025,-3.433 10.417,-5.65c3.2,-2.087 7.583,-4.95 9.771,-4.95c0.1,0 0.166,0.008 0.212,0.017l-0.625,4.458c-0.35,2.513 1.4,4.833 3.913,5.188c0.216,0.029 0.429,0.041 0.641,0.041c2.255,0 4.225,-1.658 4.546,-3.954l0.246,-1.783c4.604,1.912 8.975,3.529 10.775,4.183c2.729,13.833 9.975,26.646 15.863,37.046c3.041,5.379 5.92,10.458 6.575,13.154c7.079,29.125 27.704,55.717 34.525,63.929c-3.08,10.963 -15.113,50.296 -39.134,90.488c-6.804,-0.488 -13.204,0.296 -18.908,2.295c-8.663,-1.733 -19.775,-4.995 -20.825,-10.437c-1.738,-9.021 -2.533,-17.371 -13.104,-13.208c-7.063,2.783 -8.484,10.212 -5.354,17.037c-0.171,0.121 -0.33,0.233 -0.525,0.375c-0.638,0.534 -1.446,1.092 -2.292,1.909c-0.863,0.775 -1.788,1.733 -2.725,2.849c-0.917,1.134 -1.854,2.425 -2.65,3.892c-0.842,1.45 -1.479,3.067 -2.058,4.725c-0.513,1.667 -0.942,3.392 -1.2,5.108c-0.271,1.721 -0.442,3.405 -0.538,5.113c-0.058,0.879 -0.083,1.671 -0.104,2.446c-0.017,0.817 -0.033,1.629 -0.046,2.433c-0.017,1.567 -0.012,3.079 -0.075,4.35c-0.062,1.296 -0.225,2.188 -0.483,2.759c-0.238,0.579 -0.717,1.15 -1.442,1.716c-0.675,0.563 -1.5,1.067 -2.246,1.5c-0.741,0.438 -1.437,0.767 -1.996,1.071c-1.241,0.596 -1.954,0.937 -1.954,0.937c-1.404,0.684 -2.104,2.342 -1.546,3.834c0.592,1.587 2.359,2.391 3.942,1.8c0,-0 0.742,-0.275 2.033,-0.754c0.688,-0.288 1.538,-0.604 2.496,-1.055c0.959,-0.445 2.054,-0.962 3.288,-1.791c1.2,-0.775 2.671,-1.979 3.729,-3.792c1.071,-1.808 1.479,-3.775 1.717,-5.408c0.237,-1.663 0.366,-3.2 0.525,-4.729c0.083,-0.742 0.166,-1.488 0.25,-2.238c0.091,-0.787 0.191,-1.571 0.304,-2.254c0.208,-1.425 0.491,-2.862 0.829,-4.179c0.329,-1.329 0.767,-2.538 1.225,-3.658c0.508,-1.084 1.008,-2.096 1.625,-2.934c0.575,-0.866 1.233,-1.587 1.858,-2.237c0.654,-0.634 1.284,-1.184 1.904,-1.629c0.575,-0.48 1.196,-0.809 1.638,-1.13c0.642,-0.362 1.079,-0.612 1.325,-0.75c0.367,0.275 0.721,0.563 1.112,0.821c6.65,4.409 10.196,9.825 11.984,13.484c-4.5,7.999 -5.65,17.67 -3.146,27.6c-1.363,2.229 -2.521,4.841 -3.358,7.995c-2.667,10.075 8.758,16.638 23.97,24.167c0.73,0.363 1.238,0.688 1.78,1.029c1.941,1.238 3.833,2.258 7.37,2.258c1.359,0 3.288,-0.004 7.967,-4.716c3.971,1.258 8.225,2.412 12.8,3.446l-1.812,3.437c-2.034,3.854 -1.13,8.483 1.895,11.338c-1.904,3.454 -4.25,7.754 -6.9,12.733c-15.675,-9.875 -33.2,-16.871 -51.92,-20.55c-39.946,-7.858 -80.555,0.317 -114.355,23.008c-33.795,22.688 -56.733,57.184 -64.587,97.125c-7.85,39.942 0.317,80.554 23.008,114.35c22.688,33.8 57.179,56.738 97.125,64.592c9.904,1.95 19.846,2.908 29.721,2.908c29.942,0 59.213,-8.854 84.629,-25.916c33.8,-22.688 56.738,-57.184 64.592,-97.125c7.854,-39.946 -0.317,-80.555 -23.008,-114.355c-8.842,-13.166 -19.484,-24.679 -31.534,-34.299c2.975,-5.705 5.529,-10.655 7.534,-14.571c1.208,0.533 2.516,0.829 3.837,0.829c1.4,-0 2.75,-0.304 3.975,-0.863l78.45,137.055c-4.229,4.141 -7.896,10.245 -2.025,19.47c3.138,4.929 8.1,7.538 14.354,7.538c0.979,-0 1.988,-0.067 3.025,-0.192l13.8,24.109c-4.671,5.379 -8.041,12.008 -9.516,19.5c-3.967,20.179 7.154,39.82 25.529,47.27c-1.979,4.83 -2.175,9.934 0.562,15.363c1.842,3.654 6.217,8.012 16.596,8.012c0.658,0 1.338,-0.029 2.021,-0.062l2.142,5.187c0.591,1.43 2.233,2.113 3.666,1.521l26.35,-10.887c1.434,-0.592 2.117,-2.238 1.525,-3.667l-1.225,-2.962c1.7,-1.092 3.288,-2.225 4.696,-3.405c2.863,-2.395 5.263,-4.787 7.4,-7.087c4.167,17.525 11.483,34.342 21.821,49.746c22.692,33.796 57.183,56.733 97.129,64.587c9.904,1.95 19.846,2.913 29.721,2.913c29.937,-0 59.212,-8.854 84.629,-25.921c33.8,-22.688 56.738,-57.184 64.592,-97.125c7.854,-39.946 -0.317,-80.554 -23.009,-114.354c-22.691,-33.796 -57.183,-56.734 -97.125,-64.588Z"
            style="fill: hsl(239, 57%, 85%); fill-rule: nonzero"
        />
        <path
            d="M597.387,686.113c0.504,0.162 1.142,0.262 1.738,0.166c0.608,-0.083 1.204,-0.304 1.729,-0.641c0.512,-0.359 0.941,-0.83 1.246,-1.359c0.162,-0.262 0.27,-0.533 0.362,-0.854c0.058,-0.171 0.058,-0.258 0.088,-0.387c0.041,-0.18 0.037,-0.3 0.058,-0.446c0.087,-1.155 -0.388,-2.192 -0.983,-2.809c-0.592,-0.646 -1.28,-0.912 -1.734,-1.012c-0.479,-0.092 -0.725,-0.05 -0.729,-0.063c0,0 0.254,0.105 0.613,0.342c0.358,0.246 0.82,0.658 1.145,1.254c0.33,0.592 0.5,1.367 0.35,2.134c-0.02,0.083 -0.033,0.208 -0.062,0.266c-0.038,0.104 -0.071,0.258 -0.108,0.321c-0.067,0.142 -0.159,0.333 -0.267,0.496c-0.208,0.337 -0.496,0.629 -0.833,0.846c-0.33,0.225 -0.709,0.383 -1.096,0.45c-0.396,0.058 -0.771,0.083 -1.192,-0.013c-0.725,-0.141 -1.4,-0.6 -1.821,-1.125c-0.425,-0.525 -0.633,-1.108 -0.725,-1.533c-0.083,-0.429 -0.087,-0.7 -0.087,-0.7c-0,-0 -0.121,0.233 -0.217,0.7c-0.079,0.462 -0.096,1.196 0.279,1.987c0.354,0.792 1.109,1.613 2.246,1.98Z"
            style="fill: hsl(239, 57%, 85%); fill-rule: nonzero"
        />
        <path
            d="M520.729,527.992c3.971,7.995 8.662,17.295 13.746,27.229c2.558,4.958 5.195,10.087 7.875,15.296c2.704,5.195 5.458,10.475 8.208,15.754c2.779,5.262 5.558,10.525 8.296,15.704c2.758,5.167 5.475,10.254 8.104,15.175c5.279,9.833 10.262,18.979 14.583,26.792c4.3,7.829 8.004,14.287 10.538,18.837c2.587,4.521 4.066,7.109 4.066,7.109c0,-0 -1.287,-2.688 -3.537,-7.388c-2.304,-4.671 -5.513,-11.388 -9.508,-19.375c-3.971,-7.996 -8.663,-17.296 -13.75,-27.229c-2.559,-4.958 -5.196,-10.088 -7.88,-15.296c-2.704,-5.196 -5.454,-10.475 -8.204,-15.754c-2.779,-5.258 -5.558,-10.521 -8.296,-15.704c-2.762,-5.167 -5.479,-10.25 -8.108,-15.171c-5.279,-9.833 -10.262,-18.979 -14.583,-26.792c-4.3,-7.829 -8,-14.287 -10.534,-18.837c-2.587,-4.525 -4.066,-7.113 -4.066,-7.113c-0,0 1.287,2.688 3.541,7.388c2.3,4.67 5.513,11.387 9.509,19.375Z"
            style="fill: hsl(239, 57%, 85%); fill-rule: nonzero"
        />
        <path
            d="M532.862,374.771c3.075,1.487 6.275,3.183 9.642,4.862c3.366,1.684 6.858,3.446 10.5,5.042c3.621,1.633 7.379,3.138 11.175,4.546c1.891,0.712 3.833,1.291 5.741,1.941c1.921,0.609 3.859,1.142 5.767,1.709c1.925,0.521 3.85,0.975 5.746,1.437c1.904,0.429 3.8,0.78 5.654,1.163c0.496,0.091 0.854,0.192 1.458,0.275l1.38,0.175c0.937,0.091 1.987,0.121 2.925,0.112c1.879,-0.05 3.691,-0.2 5.433,-0.454c3.487,-0.483 6.704,-1.262 9.625,-2.108c5.837,-1.713 10.454,-3.838 13.558,-5.517c0.779,-0.408 1.463,-0.808 2.034,-1.192c0.579,-0.366 1.07,-0.67 1.445,-0.962c0.763,-0.554 1.167,-0.85 1.167,-0.85c0,0 -0.437,0.242 -1.258,0.7c-0.825,0.45 -2.063,1.05 -3.667,1.733c-1.592,0.713 -3.592,1.425 -5.892,2.184c-2.32,0.712 -4.958,1.425 -7.854,2.095c-2.904,0.634 -6.079,1.184 -9.437,1.505c-1.675,0.166 -3.4,0.225 -5.138,0.191c-0.866,-0.046 -1.646,-0.087 -2.541,-0.187l-1.375,-0.217c-0.321,-0.046 -0.867,-0.191 -1.292,-0.283c-1.813,-0.434 -3.663,-0.829 -5.517,-1.304c-1.85,-0.5 -3.721,-1.004 -5.604,-1.517c-1.867,-0.575 -3.762,-1.113 -5.642,-1.725c-1.862,-0.654 -3.758,-1.246 -5.612,-1.954c-3.733,-1.35 -7.433,-2.788 -11.021,-4.367c-3.592,-1.558 -7.117,-3.137 -10.508,-4.737c-3.388,-1.6 -6.7,-3.125 -9.892,-4.496c-3.146,-1.392 -6.358,-2.538 -9.312,-3.267c-2.975,-0.779 -5.796,-1.004 -8.255,-1.117c-2.466,-0.099 -4.608,-0.045 -6.362,-0.012c-1.754,0.029 -3.129,0.087 -4.067,0.063c-0.937,-0.009 -1.437,-0.063 -1.437,-0.063c-0,-0 1.979,0.417 5.487,0.629c1.75,0.121 3.875,0.263 6.275,0.579c2.396,0.338 5.079,0.805 7.875,1.717c2.829,0.908 5.696,2.158 8.796,3.671Z"
            style="fill: hsl(239, 57%, 85%); fill-rule: nonzero"
        />
        <path
            d="M391.154,651.496c1.441,4.462 2.996,8.883 4.258,12.171c0.621,1.645 1.2,2.995 1.575,3.954c0.392,0.95 0.633,1.487 0.633,1.487c0,0 -0.116,-0.579 -0.35,-1.579c-0.254,-0.996 -0.57,-2.433 -1.025,-4.129c-0.891,-3.408 -2.204,-7.908 -3.633,-12.371c-1.437,-4.462 -2.992,-8.883 -4.254,-12.171c-0.617,-1.646 -1.2,-2.996 -1.575,-3.954c-0.392,-0.95 -0.633,-1.487 -0.633,-1.487c-0,-0 0.112,0.579 0.35,1.579c0.25,0.996 0.566,2.433 1.02,4.133c0.892,3.404 2.205,7.904 3.634,12.367Z"
            style="fill: hsl(239, 57%, 85%); fill-rule: nonzero"
        />
        <path
            d="M400.8,673.112c-1.4,0.813 -1.88,2.609 -1.067,4.013c0.812,1.404 2.608,1.879 4.012,1.067c1.4,-0.813 1.88,-2.604 1.067,-4.009c-0.812,-1.404 -2.608,-1.883 -4.012,-1.071Z"
            style="fill: hsl(239, 57%, 85%); fill-rule: nonzero"
        />
        <path
            d="M199.145,80.558c-0.925,0.204 -1.504,0.579 -1.987,0.663c-0.471,0.142 -0.771,0.129 -0.771,0.129c0,0 0.254,0.158 0.783,0.267c0.517,0.079 1.317,0.075 2.084,0.075c0.775,0.012 1.4,0.391 1.804,1.033c0.437,0.65 0.662,1.692 0.762,2.742c0.188,1.046 0.309,2.179 0.33,3.162c0.012,0.988 0.045,1.883 -0.234,2.575c-0.258,0.684 -0.633,1.263 -0.991,1.604c-0.33,0.371 -0.555,0.567 -0.555,0.567c0,0 0.284,-0.058 0.78,-0.242c0.458,-0.208 1.225,-0.558 1.775,-1.391c0.541,-0.817 0.933,-1.93 0.991,-3.067c0.063,-1.146 0.029,-2.287 -0.083,-3.496c-0.229,-1.179 -0.529,-2.433 -1.371,-3.512c-0.412,-0.534 -1.033,-0.934 -1.65,-1.088c-0.617,-0.158 -1.192,-0.108 -1.667,-0.021Z"
            style="fill: hsl(239, 57%, 85%); fill-rule: nonzero"
        />
        <path
            d="M381.708,500.325c0.929,-0.7 1.637,-1.383 2.15,-1.825c0.496,-0.471 0.775,-0.737 0.775,-0.737c-0,-0 -0.342,0.183 -0.942,0.504c-0.591,0.329 -1.437,0.804 -2.446,1.366c-0.987,0.6 -2.2,1.2 -3.433,1.93c-1.246,0.72 -2.592,1.454 -3.954,2.154c-1.338,0.75 -2.688,1.47 -3.975,2.116c-1.288,0.634 -2.458,1.309 -3.5,1.805c-1.025,0.529 -1.888,0.975 -2.488,1.287c-0.6,0.321 -0.945,0.508 -0.945,0.508c-0,0 0.379,-0.087 1.045,-0.241c0.655,-0.188 1.609,-0.404 2.709,-0.796c1.096,-0.383 2.391,-0.821 3.725,-1.413c1.333,-0.596 2.737,-1.266 4.125,-1.97c1.354,-0.771 2.687,-1.575 3.921,-2.355c1.229,-0.787 2.304,-1.633 3.233,-2.333Z"
            style="fill: hsl(239, 57%, 85%); fill-rule: nonzero"
        />
        <path
            d="M355.112,468.117c-0.521,-1.25 -1.137,-2.655 -1.871,-4.159c-1.487,-2.991 -3.45,-6.366 -5.662,-9.929c-2.354,-3.466 -5.046,-7.041 -7.9,-10.487c-3.017,-3.309 -6.179,-6.475 -9.284,-9.292c-3.216,-2.687 -6.283,-5.1 -9.037,-6.996c-1.388,-0.937 -2.692,-1.741 -3.858,-2.433c-1.155,-0.713 -2.163,-1.317 -3.021,-1.775c-1.729,-0.896 -2.713,-1.409 -2.713,-1.409c0,0 0.85,0.713 2.338,1.959c0.766,0.583 1.666,1.337 2.687,2.212c1.034,0.855 2.179,1.842 3.384,2.971c2.525,2.104 5.304,4.746 8.187,7.65c2.933,2.854 5.904,6.046 8.721,9.367c2.892,3.254 5.637,6.641 8.054,9.946c2.467,3.258 4.696,6.383 6.425,9.179c0.946,1.35 1.763,2.621 2.471,3.762c0.721,1.134 1.342,2.129 1.812,2.971c1.025,1.646 1.613,2.592 1.613,2.592c-0,-0 -0.367,-1.05 -1.013,-2.883c-0.333,-0.917 -0.791,-2 -1.333,-3.246Z"
            style="fill: hsl(239, 57%, 85%); fill-rule: nonzero"
        />
        <path
            d="M256.983,203.858c1.312,-1.05 2.946,-2.129 4.65,-3.341c1.717,-1.192 3.6,-2.388 5.525,-3.509c1.904,-1.158 3.85,-2.241 5.717,-3.187c1.879,-0.913 3.608,-1.842 5.154,-2.496c1.533,-0.679 2.812,-1.279 3.725,-1.642c0.908,-0.391 1.425,-0.616 1.425,-0.616c-0,-0 -0.55,0.12 -1.517,0.333c-0.958,0.246 -2.342,0.563 -3.946,1.125c-1.608,0.542 -3.483,1.212 -5.416,2.1c-1.93,0.9 -3.946,1.946 -5.925,3.071c-1.93,1.2 -3.809,2.479 -5.517,3.746c-1.7,1.283 -3.188,2.604 -4.429,3.758c-1.259,1.146 -2.196,2.213 -2.871,2.933c-0.646,0.75 -1.017,1.175 -1.017,1.175c0,0 0.446,-0.346 1.221,-0.958c0.754,-0.629 1.888,-1.471 3.221,-2.492Z"
            style="fill: hsl(239, 57%, 85%); fill-rule: nonzero"
        />
        <path
            d="M327.504,228.413c1.004,-1.026 2.55,-2.38 4.575,-3.721c1.962,-1.413 4.408,-2.846 7.162,-4.096c2.704,-1.354 5.721,-2.558 8.8,-3.613c3.046,-1.187 6.159,-2.27 9.084,-3.325c2.891,-1.158 5.587,-2.3 7.85,-3.383c2.229,-1.167 4.02,-2.25 5.237,-3.063c1.196,-0.845 1.85,-1.362 1.85,-1.362c0,-0 -0.767,0.333 -2.125,0.842c-1.329,0.562 -3.262,1.279 -5.617,2c-2.32,0.804 -5.066,1.629 -8.045,2.454c-2.942,0.925 -6.117,1.883 -9.284,2.962c-3.125,1.221 -6.208,2.596 -8.987,4.134c-2.729,1.629 -5.129,3.408 -7.013,5.112c-1.829,1.783 -3.129,3.458 -3.946,4.675c-0.408,0.613 -0.666,1.133 -0.866,1.467c-0.188,0.342 -0.292,0.525 -0.292,0.525c0,-0 0.146,-0.15 0.421,-0.429c0.275,-0.275 0.65,-0.704 1.196,-1.179Z"
            style="fill: hsl(239, 57%, 85%); fill-rule: nonzero"
        />
        <path
            d="M360.325,254.529c-0.513,1.192 -1.23,2.525 -1.917,3.979c-0.704,1.454 -1.508,2.971 -2.363,4.463c-0.808,1.516 -1.662,3.008 -2.516,4.379c-0.867,1.354 -1.609,2.679 -2.342,3.746c-0.721,1.079 -1.279,2.012 -1.717,2.637c-0.412,0.642 -0.65,1.013 -0.65,1.013c0,-0 0.321,-0.3 0.88,-0.825c0.533,-0.546 1.337,-1.296 2.175,-2.308c0.845,-1.005 1.837,-2.18 2.766,-3.538c0.925,-1.362 1.859,-2.846 2.742,-4.367c0.812,-1.554 1.571,-3.141 2.229,-4.646c0.646,-1.512 1.117,-2.979 1.513,-4.229c0.408,-1.246 0.616,-2.329 0.795,-3.07c0.146,-0.755 0.225,-1.184 0.225,-1.184c0,0 -0.183,0.396 -0.508,1.092c-0.292,0.7 -0.783,1.675 -1.312,2.858Z"
            style="fill: hsl(239, 57%, 85%); fill-rule: nonzero"
        />
        <path
            d="M339.995,365.867c-0.754,-1.184 -1.6,-2.58 -2.491,-4.079c-0.975,-1.446 -1.984,-3 -2.971,-4.571c-1.092,-1.496 -2.163,-3.013 -3.142,-4.45c-1.062,-1.384 -2.046,-2.688 -2.862,-3.83c-0.896,-1.095 -1.642,-2.012 -2.163,-2.654c-0.558,-0.625 -0.879,-0.979 -0.879,-0.979c0,0 0.129,0.459 0.363,1.267c0.287,0.783 0.7,1.896 1.195,3.233c0.592,1.292 1.309,2.779 2.1,4.375c0.888,1.529 1.859,3.15 2.859,4.754c1.116,1.525 2.258,3.03 3.354,4.421c1.183,1.321 2.3,2.546 3.279,3.571c1.058,0.954 1.942,1.754 2.558,2.313c0.667,0.512 1.046,0.804 1.046,0.804c0,-0 -0.212,-0.429 -0.583,-1.184c-0.4,-0.721 -0.975,-1.754 -1.663,-2.991Z"
            style="fill: hsl(239, 57%, 85%); fill-rule: nonzero"
        />
        <path
            d="M347.17,365.196c-0.545,-0.654 -1.104,-1.479 -1.791,-2.279c-0.675,-0.813 -1.375,-1.692 -2.059,-2.588c-0.733,-0.854 -1.445,-1.725 -2.1,-2.554c-0.645,-0.833 -1.333,-1.558 -1.854,-2.225c-0.533,-0.662 -1.041,-1.175 -1.362,-1.562c-0.342,-0.371 -0.542,-0.584 -0.542,-0.584c0,0 0.108,0.271 0.292,0.742c0.216,0.454 0.475,1.133 0.9,1.883c0.425,0.746 0.887,1.646 1.5,2.533c0.612,0.884 1.283,1.813 1.975,2.73c0.754,0.871 1.521,1.721 2.258,2.504c0.738,0.787 1.521,1.425 2.163,1.996c0.641,0.575 1.258,0.966 1.658,1.271c0.421,0.279 0.662,0.441 0.662,0.441c0,0 -0.166,-0.237 -0.454,-0.654c-0.312,-0.392 -0.708,-0.996 -1.246,-1.654Z"
            style="fill: hsl(239, 57%, 85%); fill-rule: nonzero"
        />
        <path
            d="M410.62,323.304c-1.687,1.146 -3.641,2.513 -5.641,4.083c-1.988,1.575 -4.109,3.259 -6.225,4.942c-2.088,1.709 -4.196,3.384 -6.234,4.858c-2.054,1.451 -3.954,2.851 -5.704,3.846c-0.858,0.53 -1.658,0.992 -2.379,1.38c-0.717,0.408 -1.342,0.758 -1.887,0.991c-1.063,0.529 -1.667,0.829 -1.667,0.829c-0,0 0.646,-0.2 1.783,-0.554c0.571,-0.179 1.246,-0.433 2.013,-0.75c0.779,-0.296 1.646,-0.666 2.55,-1.142c1.841,-0.904 3.925,-2.083 6.05,-3.512c2.112,-1.446 4.287,-3.083 6.429,-4.754c2.079,-1.738 4.158,-3.475 6.104,-5.1c1.958,-1.604 3.717,-3.188 5.321,-4.421c1.583,-1.254 2.896,-2.325 3.858,-3.008c0.95,-0.717 1.492,-1.121 1.492,-1.121c-0,-0 -0.6,0.312 -1.65,0.866c-1.038,0.584 -2.529,1.413 -4.213,2.567Z"
            style="fill: hsl(239, 57%, 85%); fill-rule: nonzero"
        />
        <path
            d="M670.354,856.029c-9.35,-2.046 -20.7,-4.529 -33.717,-7.379c-13.017,-2.854 -27.704,-6.071 -43.754,-9.458c-16.038,-3.425 -33.417,-7.125 -51.817,-10.942c-18.4,-3.812 -37.804,-7.833 -57.875,-11.992c-20.087,-4.079 -40.825,-8.421 -61.937,-12.608c-21.104,-4.225 -42.546,-8.517 -63.984,-12.812c-21.458,-4.205 -42.916,-8.413 -64.037,-12.555c-21.117,-4.166 -41.933,-8.075 -62.063,-11.962c-20.141,-3.808 -39.612,-7.492 -58.075,-10.983c-18.479,-3.426 -35.95,-6.663 -52.075,-9.651c-16.125,-2.991 -30.929,-5.616 -44.05,-7.945c-13.12,-2.334 -24.562,-4.367 -33.979,-6.046c-9.416,-1.7 -16.837,-2.909 -21.887,-3.792c-5.054,-0.862 -7.75,-1.325 -7.75,-1.325c-0,0 2.666,0.604 7.666,1.729c5.005,1.113 12.33,2.825 21.68,4.842c9.35,2.046 20.7,4.525 33.716,7.371c13.021,2.854 27.704,6.075 43.754,9.458c16.046,3.388 33.43,7.058 51.817,10.942c18.4,3.812 37.804,7.833 57.875,11.996c20.088,4.083 40.825,8.412 61.938,12.612c21.104,4.225 42.541,8.521 63.983,12.817c21.454,4.208 42.912,8.412 64.033,12.558c21.117,4.179 41.938,8.079 62.063,11.967c20.141,3.812 39.612,7.496 58.079,10.987c18.462,3.492 35.937,6.696 52.071,9.646c16.125,2.992 30.929,5.621 44.054,7.946c13.121,2.329 24.558,4.363 33.979,6.037c9.417,1.701 16.838,2.913 21.888,3.792c5.054,0.863 7.75,1.325 7.75,1.325c-0,0 -2.667,-0.604 -7.671,-1.733c-5,-1.113 -12.325,-2.825 -21.675,-4.842Z"
            style="fill: hsl(239, 57%, 85%); fill-rule: nonzero"
        />
        <path
            d="M218.612,425.779c-1.029,-1.075 -2.321,-2.25 -3.821,-3.396c-1.558,-1.045 -3.316,-2.033 -5.166,-2.841c-1.905,-0.675 -3.65,-1.142 -4.88,-2.004c-1.295,-0.755 -2.433,-2.113 -3.67,-3.063c-1.321,-0.917 -2.65,-1.296 -3.571,-1.283c-0.463,0.029 -0.804,0.125 -1.025,0.204c-0.217,0.091 -0.329,0.137 -0.329,0.137c-0,0 0.52,-0.054 1.266,0.246c0.75,0.238 1.7,0.896 2.488,1.954c0.908,0.984 1.675,2.48 3.25,3.925c1.675,1.338 3.687,1.979 5.337,2.725c1.725,0.613 3.392,1.396 4.892,2.254c1.554,0.775 2.954,1.63 4.104,2.446c1.213,0.742 2.188,1.446 2.85,1.967c0.7,0.5 1.1,0.783 1.1,0.783c0,0 -0.242,-0.429 -0.662,-1.187c-0.475,-0.717 -1.196,-1.721 -2.163,-2.867Z"
            style="fill: hsl(239, 57%, 85%); fill-rule: nonzero"
        />
    </g>
</svg>
