<svg
    width="100%"
    height="100%"
    viewBox="0 0 365 875"
    version="1.1"
    xmlns="http://www.w3.org/2000/svg"
    xmlns:xlink="http://www.w3.org/1999/xlink"
    xml:space="preserve"
    xmlns:serif="http://www.serif.com/"
    style="
        fill-rule: evenodd;
        clip-rule: evenodd;
        stroke-linejoin: round;
        stroke-miterlimit: 2;
    "
>
    <g>
        <path
            d="M274.12,340.388c0.959,-3.205 1.934,-6.334 2.871,-9.33c2.571,-8.225 4.792,-15.325 5.842,-21.362c0.054,-0.317 0.108,-0.633 0.162,-0.95c1.367,3.133 2.713,6.087 3.951,8.621c3.483,7.125 6.837,15.741 9.795,25.008c-6.1,-0.529 -13.775,-1.204 -22.621,-1.987Zm-76.233,336.858c-1.175,12.242 -2.517,24.25 -3.896,35.871c-0.729,5.808 -1.446,11.516 -2.15,17.104c-0.787,5.579 -1.591,11.033 -2.437,16.329c-1.684,10.6 -3.392,20.604 -5.204,29.796c-0.842,4.604 -1.838,8.987 -2.692,13.171c-0.938,4.166 -1.908,8.104 -2.821,11.796c-1.929,7.37 -3.733,13.762 -5.496,18.941c-0.866,2.592 -1.625,4.913 -2.462,6.871c-0.809,1.963 -1.4,3.667 -2.071,4.975c-1.246,2.646 -1.913,4.058 -1.913,4.058c0,0 0.575,-1.45 1.65,-4.166c0.584,-1.338 1.067,-3.079 1.746,-5.079c0.688,-1.996 1.354,-4.334 2.092,-6.955c1.508,-5.225 3.004,-11.666 4.571,-19.079c1.466,-7.433 3.066,-15.833 4.575,-25.041c1.541,-9.2 2.954,-19.213 4.329,-29.817c1.321,-10.608 2.704,-21.8 3.996,-33.396c1.262,-11.6 2.487,-23.6 3.541,-35.8c1.092,-12.2 2.042,-24.637 3.042,-37.025c1.879,-24.812 3.038,-49.679 3.321,-73c0.154,-11.658 0.237,-22.929 0.008,-33.612c-0.208,-10.688 -0.65,-20.784 -1.321,-30.08c-0.708,-9.291 -1.483,-17.804 -2.595,-25.291c-1.096,-7.484 -2.442,-13.959 -4.046,-19.134c-1.592,-5.17 -3.479,-9.075 -5.492,-11.179c-2.012,-2.175 -3.867,-2.067 -3.792,-2.129c-0.079,0.067 1.775,-0.154 3.967,1.954c2.154,2.042 4.358,5.896 6.171,11.067c1.842,5.175 3.467,11.646 4.883,19.137c1.396,7.5 2.654,16.017 3.534,25.35c0.916,9.334 1.612,19.467 2.091,30.192c0.463,10.729 0.788,22.05 0.759,33.758c-0.088,23.421 -1.042,48.392 -2.721,73.305c-0.809,12.479 -1.963,24.879 -3.167,37.108Zm-33.35,174.529c0.158,0.163 0.096,0.154 0,0Zm-9.612,-122.212c-0,-0.092 0.004,-0.184 0.008,-0.271c7.454,-0.3 14.012,-5.025 16.579,-12.196l16.246,-45.429c-0.321,4.796 -0.721,10.346 -1.213,16.633c-0.95,11.796 -2.208,26.117 -3.97,42.492c-1.775,16.366 -4.084,34.808 -7.555,54.637c-1.758,9.9 -3.662,20.192 -6.258,30.546c-1.296,5.175 -2.717,10.371 -4.329,15.479c-1.096,3.438 -2.296,6.863 -3.6,10.067c-2.546,-10.325 -3.954,-22.2 -4.992,-34.142c-1.791,-24.937 -1.858,-51.204 -0.916,-77.816Zm-57.267,46.966c-1.383,9.167 -2.988,18.675 -4.988,28.338c-1.012,4.821 -2.108,9.687 -3.37,14.496c-0.38,1.42 -0.784,2.837 -1.205,4.25c-1.333,-8.317 -2.141,-17.271 -2.745,-26.3c-1.042,-16.071 -1.305,-32.713 -1.146,-49.634l8.321,-21.341l5.154,0.254c0.962,3.645 2.796,7 5.379,9.841c-1.529,12.363 -3.3,25.8 -5.4,40.096Zm-5.538,62.729c0.242,0.259 0.113,0.213 0,0Zm229.513,-417.616c-0.242,-1.092 -0.483,-2.104 -0.721,-3.084c1.038,0.792 2.113,1.488 3.208,2.059c4.15,2.121 8.384,3.695 12.08,5.041c-0.125,0.005 -0.255,0.009 -0.38,0.009c-7.141,-0 -13.625,-1.496 -14.187,-4.025Zm1.2,-54.505c0.475,1.826 1,4.205 1.263,6.705c0.674,5.216 0.108,10.662 0.108,10.662c-0,0 2.358,-4.921 3.554,-10.441c0.267,-1.117 0.471,-2.238 0.646,-3.334c2.5,2.067 4.537,4.467 5.966,7.267c3.859,7.558 2.734,15.75 0.055,20.158c-0.455,0.75 -0.755,1.538 -0.988,2.338l-0.075,-0.029c0,-0 -0.175,0.625 -0.392,1.641c-0.17,0.913 -0.42,2.217 -0.716,3.784c-0.296,1.42 -0.642,2.633 -1.196,3.22c-1.008,0.942 -2.571,1.613 -4.354,1.734c-0.85,0.071 -1.938,-0.046 -2.454,-0.109c-0.667,-0.066 -1.33,-0.483 -1.559,-1.141c-0.133,-0.321 -0.216,-0.634 -0.291,-1.017c-0.08,-0.475 -0.159,-0.942 -0.23,-1.392c-0.125,-0.912 -0.241,-1.779 -0.35,-2.575c-0.375,-3.204 -0.429,-5.379 -0.429,-5.379c0,0 -0.475,2.117 -0.9,5.371c-0.087,0.817 -0.187,1.704 -0.287,2.637c-0.042,0.471 -0.079,0.955 -0.121,1.45c-0.033,0.588 -0.046,1.267 0.062,1.921c0.167,1.342 1.105,2.559 2.43,3.192c1.458,0.688 2.504,1.013 3.791,1.271c2.504,0.475 5.354,0.192 7.763,-1.042c1.354,-0.675 2.416,-1.796 3.133,-2.775c0.158,0.104 0.288,0.238 0.45,0.338c1.583,0.962 3.334,1.421 5.063,1.421c1.3,-0.005 2.583,-0.271 3.779,-0.771c1.646,3.358 2.841,7.529 0.517,10.337c-1.271,-0.366 -2.742,-0.725 -4.405,-1.104c-4.795,-1.125 -11.187,-2.188 -17.046,-4.204c-1.458,-0.504 -2.825,-1.138 -3.929,-1.879l-0.737,-0.584c-0.129,-0.208 -0.267,-0.396 -0.442,-0.591c-0.3,-0.625 -0.583,-1.404 -0.808,-2.038c-0.954,-2.754 -1.375,-5.512 -1.484,-7.892c-0.091,-2.383 0.117,-4.391 0.355,-5.779c0.241,-1.391 0.458,-2.175 0.458,-2.175c-0,0 -0.325,0.742 -0.763,2.1c-0.437,1.359 -0.937,3.35 -1.195,5.821c-0.034,0.325 -0.046,0.679 -0.067,1.021c-1.033,-3.204 -1.829,-5.85 -2.196,-8.942c-0.512,-4.333 0.238,-10.12 -0.283,-13.729c-0.434,-2.996 -1.596,-4.783 -3.288,-13.333c-0.395,-2.017 -0.825,-4.004 -1.262,-5.979c4.912,0.746 9.208,2.041 12.854,3.845Zm-100.95,307.709c2.442,0.958 5.087,1.767 7.825,2.304c0.946,0.196 1.896,0.358 2.842,0.504c-4.967,0.95 -9.05,1.088 -9.688,1.104c-0.496,-0.045 -0.971,-0.095 -1.442,-0.145c0.163,-1.305 0.317,-2.559 0.463,-3.767Zm2.854,-25.967c0.713,0.088 1.421,0.188 2.138,0.259c5.345,0.516 10.779,0.516 14.85,0.22c2.012,-0.133 3.683,-0.3 4.87,-0.441c3.788,7.008 6.121,13.7 4.23,18.158c-1.246,0.333 -2.938,0.783 -4.963,1.325c-4.283,1.075 -9.925,2.375 -15.65,2.658c-2.65,0.159 -5.321,0.03 -7.837,-0.308c0.304,-2.542 0.57,-4.85 0.795,-6.837c0.717,-6.425 1.1,-9.855 1.1,-9.855l0,-0.033c0,-0 0.08,-0.858 0.234,-2.529c0.075,-0.713 0.154,-1.609 0.233,-2.617Zm-25.571,-197.641c-0.008,0.008 -0.033,0.025 -0.046,0.037c0.009,-0.008 0.03,-0.033 0.038,-0.042c0.029,-0.02 0.017,0.017 0.008,0.005Zm-30.571,-9.021c0.217,-1.463 1.338,-2.813 3.042,-3.938c-1.354,2.325 -2.458,4.546 -3.446,6.725c0.134,-0.946 0.267,-1.875 0.404,-2.787Zm-9.758,220.412l11.196,0.529l-13.842,38.705c0.709,-13.046 1.592,-26.138 2.646,-39.234Zm-83.208,-548.221c0.125,0.555 0.25,1.117 0.387,1.713c1.271,5.612 3.363,12.987 5.967,20.146c2.604,7.162 5.717,14.087 8.312,19.133c2.575,5.054 4.496,8.292 4.496,8.292c0,-0 -1.516,-3.454 -3.45,-8.75c-1.954,-5.284 -4.175,-12.45 -5.862,-19.717c-1.367,-5.917 -2.375,-11.867 -3.009,-16.858c4.384,13.487 12.792,29.508 28.83,39.241c2.47,5.817 12.341,28.117 21.162,34.88c2.338,1.799 4.129,4.504 6.025,7.37c1.763,2.667 3.692,5.559 6.317,8.167c-24.346,-3.633 -36.921,-13.592 -49.463,-10.787c-0.087,0.025 -0.171,0.058 -0.258,0.079c-0.329,-0.45 -0.663,-0.913 -1.021,-1.392c-3.392,-4.554 -8.429,-10.208 -14.233,-14.875c-5.754,-4.717 -12.179,-8.4 -17.221,-10.454c-2.5,-1.071 -4.646,-1.771 -6.15,-2.221c-1.508,-0.433 -2.371,-0.679 -2.371,-0.679c0,-0 0.792,0.421 2.171,1.15c1.367,0.75 3.292,1.862 5.454,3.387c4.371,2.971 9.604,7.684 13.896,13.054c4.354,5.342 7.721,11.292 9.825,15.871c0.025,0.055 0.046,0.1 0.071,0.155c-5.784,3.629 -10.438,9.158 -14.042,16.191c-1.692,-3.396 -3.675,-6.558 -5.329,-8.808c-1.667,-2.292 -2.9,-3.7 -2.9,-3.7c-0,-0 0.858,1.675 1.904,4.254c1.058,2.579 2.204,6.096 2.975,9.65c0.321,1.483 0.563,2.954 0.758,4.379c-3.62,9.179 -5.837,20.263 -6.733,32.629c-1.171,16.154 -4.029,28.63 -6.596,38.925c-0.625,-0.691 -1.362,-1.483 -2.233,-2.358c-2.763,-2.833 -6.854,-6.275 -11.425,-9.158c-4.567,-2.875 -9.575,-5.159 -13.496,-6.488c-1.279,-0.441 -2.417,-0.796 -3.392,-1.083c5.396,-27.734 12.859,-62.463 18.771,-91.171c5.554,-26.992 21.421,-54.317 31.863,-70.167Zm68.371,-107.075c8.716,7.342 27.308,16.038 38.329,30.125c-0.121,0.017 -0.246,0.004 -0.363,0.055c-3.454,1.437 -3.183,23.329 0.396,19.97c4.2,-3.937 4.967,-9.283 4.25,-13.466c0.779,1.454 1.496,2.941 2.088,4.5c7.945,20.933 8.833,66.008 -4.892,91.066c-4.667,8.521 -10.879,14.059 -16.813,17.65c-3.92,0.846 -8.054,1.496 -12.404,1.934c-53.308,5.37 -66.183,-37.459 -69.3,-58.488c0.009,-0.008 0.034,-0.037 0.034,-0.037c-2.446,-41.971 12.629,-57.046 26.075,-66.009c13.45,-8.966 32.6,-27.3 32.6,-27.3Zm81.075,636.775c0.204,-3.27 0.441,-7.325 0.695,-12.091c3.13,-0.584 6.163,-0.829 8.459,-0.8c0.387,-0 0.741,0.008 1.083,0.016c2.392,3.488 5.113,7.425 7.629,11.455c-0.65,0.175 -1.358,0.362 -2.137,0.554c-3.696,0.929 -8.742,1.825 -13.888,2.229c-0.646,0.05 -1.291,0.071 -1.941,0.104c0.033,-0.479 0.066,-0.946 0.1,-1.467Zm1.233,-22.883c0.929,-0.15 1.796,-0.254 2.567,-0.333c0.175,0.375 0.345,0.771 0.52,1.112c0.042,0.079 0.096,0.171 0.138,0.254c-1.083,0.525 -2.217,1.142 -3.358,1.8c0.041,-0.925 0.087,-1.87 0.133,-2.833Zm-23.383,-198.737l4.525,-61.35c0.008,-0.113 0.012,-0.221 0.016,-0.33c0.096,-2.32 -0.162,-4.587 -0.696,-6.754c16.063,1.413 32.042,2.833 46.588,4.125c1.937,0.171 3.825,0.338 5.692,0.504c-5.975,29.855 -14.442,61.259 -16.717,82.28c-4.358,40.233 -9.454,79.537 -14.625,110.075c-0.096,-11.196 -0.379,-23.125 -0.983,-35.746c-0.521,-10.492 -1.263,-21.442 -2.538,-32.909c-0.642,-5.737 -1.425,-11.604 -2.471,-17.658c-1.091,-6.083 -2.337,-12.275 -4.575,-19.142c-0.579,-1.729 -1.216,-3.5 -2.046,-5.404c-0.029,-0.067 -0.062,-0.137 -0.091,-0.204c-0.9,-7.433 -5.242,-13.587 -12.079,-17.487Zm-37.013,-0.551l0.833,-21.004l2.55,-39.341l-8.766,46.462l-3.475,3.979c-0.242,0.092 -0.559,0.184 -1,0.255c-1.175,0.204 -3.013,0.145 -4.892,-0.255c-1.85,-0.379 -3.729,-1.029 -5.125,-1.62l5.033,-22.509l21.063,-36.875c1.167,0.1 2.333,0.204 3.512,0.304c-0.033,1.675 1.192,3.129 2.888,3.288l18.729,1.754c0.321,1.296 0.492,2.646 0.433,4.042l-2.458,33.362l-1.9,-34.783l-10.612,58.967c-5.921,0.187 -11.78,1.537 -16.813,3.974Zm-73.779,194.888c5.621,-13.892 11.283,-29.708 14.008,-49.787c1.738,-12.796 2.617,-22.68 3.396,-31.4c1.442,-16.192 2.363,-26.396 7.704,-39.388c0.088,1.217 0.192,2.437 0.267,3.65c0.412,6.717 0.621,13.283 0.767,19.758l-14.117,131.63l-15.208,-0.721c0.941,-11.271 2.008,-22.529 3.183,-33.742Zm26.192,-250.292c-0.392,-0.337 -0.788,-0.679 -1.213,-1.004c-2.175,-1.666 -4.683,-3.204 -7.35,-4.433c-2.717,-1.121 -5.55,-1.917 -8.246,-2.375c-2.704,-0.463 -5.275,-0.425 -7.437,-0.321c-2.171,0.121 -3.942,0.542 -5.163,0.825c-1.216,0.321 -1.891,0.55 -1.891,0.55c-0,0 0.712,-0.058 1.958,-0.083c1.237,-0.088 3.008,-0.029 5.1,0.071c2.096,0.1 4.504,0.504 7.037,1.029c2.534,0.533 5.171,1.387 7.671,2.529c2.538,1.054 4.954,2.408 7.067,3.908c0.758,0.542 1.483,1.079 2.183,1.617c-0.196,1.583 -0.391,3.171 -0.596,4.771c-6.429,-4.85 -17.616,-10.58 -34.095,-10.038c0.17,-1.612 0.32,-3.162 0.454,-4.587c0.487,-5.184 1.037,-11.054 2.254,-12.396c0.187,-0.213 2.208,-2.046 14.004,-1.342c4.85,0.288 11.908,0.8 20.492,1.475c-0.659,6.288 -1.4,12.95 -2.229,19.804Zm57.5,-40.32c-6.346,-12.692 -10.638,-25.321 -15.288,-29.026c9.796,-9.891 26.046,-33.845 66.988,-27.108c-1.517,0.15 -3.067,0.338 -4.663,0.638c-4.321,0.8 -8.854,2.075 -13.229,3.8c-4.325,1.841 -8.45,4.112 -12.092,6.575c-3.646,2.458 -6.691,5.225 -9.187,7.67c-2.488,2.467 -4.271,4.78 -5.496,6.396c-1.196,1.642 -1.825,2.613 -1.825,2.613c-0,-0 0.771,-0.871 2.187,-2.309c1.367,-1.479 3.475,-3.445 6.059,-5.7c2.591,-2.258 5.837,-4.604 9.421,-6.912c3.591,-2.304 7.637,-4.404 11.854,-6.083c4.183,-1.763 8.546,-3.104 12.721,-3.98c3.633,-0.754 7.079,-1.295 10.179,-1.566c1.896,0.429 3.837,0.912 5.837,1.467c-9.033,-0.159 -18.262,1.929 -26.471,6.237c-24.037,12.621 -36.995,29.45 -36.995,47.288Zm-16.98,23.679c0.846,0.071 1.7,0.141 2.555,0.216l-3.084,5.392l0.529,-5.608Zm1.838,-19.471l1.521,-16.146c0.491,1.079 0.971,2.142 1.416,3.138c1.971,4.383 4.096,9.108 6.517,13.816c-3.196,-0.275 -6.354,-0.546 -9.454,-0.808Zm-6.171,101.383c-1.425,2.35 -2.417,4.988 -2.85,7.913c-5.537,37.521 -10.121,100.2 -13.054,147.541c-1.796,15.621 -3.304,31.355 -4.596,47.105l-0.946,3.679l13.004,-178.509l-33.679,206.696l21.704,-202.412l11.634,-52.029c1.008,1.095 2.325,2.383 3.866,3.562c1.75,1.35 3.805,2.492 5.634,3.071c0.058,0.017 0.108,0.025 0.162,0.041l-0.879,13.342Zm108.021,-92.446c-2.425,-0.216 -4.9,-0.433 -7.442,-0.662c-14.654,-1.3 -30.754,-2.729 -46.933,-4.154l0.042,-0.463c0.166,-1.775 -1.138,-3.35 -2.917,-3.516l-22.088,-2.067c-1.762,-21.275 19.434,-35.938 33.034,-43.075c12.537,-6.583 28.425,-7.15 40.475,-1.442c0.221,0.104 0.416,0.233 0.629,0.338c-0.404,-0.029 -0.8,-0.067 -1.225,-0.088c-6.188,-0.333 -14.517,0.667 -21.929,3.988c-7.463,3.204 -13.621,8.52 -17.363,13.045c-1.887,2.267 -3.246,4.305 -4.116,5.771c-0.88,1.459 -1.321,2.321 -1.321,2.321c-0,0 0.541,-0.808 1.579,-2.146c1.029,-1.341 2.6,-3.187 4.687,-5.166c4.155,-3.963 10.63,-8.288 17.809,-10.405c7.15,-2.233 14.679,-2.204 20.021,-1.279c2.683,0.459 4.854,1.071 6.337,1.575c0.638,0.213 1.125,0.384 1.504,0.525c3.125,11.763 2.092,28.459 -0.783,46.9Zm-109.225,-156.375c10.796,-0.812 3.792,-9.591 12.55,-11.016c1.737,-0.284 2.962,-0.075 3.892,0.404c-0.159,0.483 -0.259,0.983 -0.25,1.492c0.104,1.595 0.779,2.862 1.233,4.137c0.504,1.304 1.033,2.679 1.587,4.1c0.613,1.396 1.246,2.833 1.888,4.296c0.587,1.416 1.45,3.1 1.712,4.162c0.125,0.359 0.188,0.842 0.192,1.221c0.004,0.175 -0.021,0.342 -0.029,0.392c-0,0.012 0.004,0.029 -0,0.046c-0.129,0.187 -0.804,0.504 -1.758,0.746c-0.48,0.141 -1.025,0.295 -1.621,0.562c-0.604,0.258 -1.217,0.683 -1.654,1.079c-1.296,1.329 -2.013,2.458 -2.621,2.642c-0.517,0.329 -1.709,-0.179 -2.988,-0.625c-1.425,-0.408 -2.687,-0.238 -3.646,-0.158c-0.983,0.1 -1.779,0.12 -2.437,-0.005c-0.667,-0.075 -1.175,-0.287 -1.492,-0.479c-0.325,-0.192 -0.475,-0.341 -0.475,-0.341c0,-0 0.092,0.187 0.342,0.491c0.25,0.309 0.696,0.725 1.392,1.067c1.358,0.75 3.804,0.521 5.5,1.504c0.483,0.233 1.016,0.567 1.716,0.883c0.675,0.309 1.675,0.625 2.767,0.392c2.192,-0.542 3.179,-2.133 4.175,-2.737c0.546,-0.438 0.962,-0.546 1.95,-0.775c0.904,-0.234 2.196,-0.405 3.512,-1.563c0.005,-0.004 0.009,-0.008 0.013,-0.008c1.075,-0.263 2.458,-1.559 2.971,-2.334c1.141,-1.721 1.529,-3.825 1.737,-5.879c0.284,-2.804 0.246,-5.637 -0.033,-8.441c6.762,-2.167 15.583,-6.238 20.729,-10.05c-1.712,6.85 -3.887,12.604 -6.6,15.32c-3.604,3.613 -5.758,7.742 -7.846,11.734c-1.216,2.329 -2.366,4.504 -3.721,6.441c-2.77,2.459 -5.879,4.846 -9.062,6.796c-2.429,0.767 -5.371,1.192 -9.05,1.192l-0.108,-0c-14.934,-0.029 -19.246,-6.538 -23.809,-13.433c-2.112,-3.196 -4.296,-6.492 -7.508,-8.959c-1.579,-1.208 -3.288,-3.229 -5.029,-5.679c6.262,1.712 14.471,1.946 21.879,1.383Zm1.971,-17.004c23.287,-2.354 41.075,-10.379 53.146,-23.708c-0.163,1.566 -0.35,3.196 -0.555,4.871c-5.466,4.979 -19.541,15.57 -43.995,19.637c-21.063,3.504 -36.059,-0.8 -42.759,-3.45c-0.196,-0.404 -0.387,-0.808 -0.575,-1.204c7.121,2.729 15.4,4.354 25.079,4.354c3.075,0 6.296,-0.158 9.659,-0.5Zm50.633,-14.1c-1.492,1.163 -3.2,2.446 -5.146,3.734c-1.954,1.27 -4.108,2.587 -6.45,3.875c-2.358,1.258 -4.871,2.55 -7.562,3.674c-1.325,0.617 -2.725,1.105 -4.129,1.642c-1.392,0.558 -2.834,1.05 -4.3,1.492c-2.896,0.992 -5.946,1.725 -8.967,2.467c-3.013,0.629 -6.092,1.208 -9.138,1.57c-3.033,0.392 -6.037,0.688 -8.954,0.784c-1.458,0.087 -2.891,0.116 -4.3,0.091c-1.404,0.017 -2.775,-0.037 -4.112,-0.133c-2.671,-0.129 -5.188,-0.429 -7.492,-0.8c-4.617,-0.708 -8.35,-1.875 -10.875,-2.871c-2.529,-0.996 -3.854,-1.812 -3.854,-1.812c-0,-0 1.367,0.75 3.929,1.608c1.283,0.429 2.858,0.879 4.692,1.292c1.841,0.387 3.921,0.791 6.212,1.079c2.288,0.296 4.788,0.525 7.429,0.575c1.325,0.062 2.684,0.058 4.071,0.025c1.388,0.012 2.804,-0.029 4.246,-0.133c2.883,-0.121 5.854,-0.442 8.854,-0.855c3.009,-0.379 6.004,-1.012 9.063,-1.595c2.991,-0.713 5.975,-1.401 8.858,-2.359c1.454,-0.425 2.879,-0.896 4.267,-1.437c1.387,-0.521 2.779,-0.992 4.096,-1.592c2.67,-1.096 5.2,-2.271 7.562,-3.467c2.354,-1.216 4.525,-2.466 6.496,-3.679c1.95,-1.246 3.721,-2.412 5.25,-3.508c1.517,-1.113 2.812,-2.125 3.854,-2.988c2.075,-1.737 3.142,-2.866 3.142,-2.866c-0,-0 -1.013,1.179 -3.017,3.012c-1.004,0.913 -2.254,1.984 -3.725,3.175Zm72.8,-26.817c3.983,6.005 8,12.471 11.642,19.442c3.641,6.963 7.187,14.275 10.408,21.867c3.225,7.587 6.271,15.392 9.071,23.283c5.479,15.821 10.121,31.9 14.183,47.029c4.13,15.105 7.388,29.379 11.296,41.209c2.083,5.879 3.971,11.358 5.271,16.287c1.346,4.921 2.279,9.271 2.929,12.875c0.663,3.6 1,6.454 1.217,8.4c0.196,1.95 0.3,2.988 0.3,2.988c-0,-0 -0.15,-1.034 -0.429,-2.971c-0.296,-1.933 -0.792,-4.759 -1.55,-8.325c-0.767,-3.567 -1.838,-7.867 -3.338,-12.713c-1.462,-4.875 -3.5,-10.187 -5.692,-16.079c-2.112,-5.942 -4.012,-12.466 -5.987,-19.371c-1.925,-6.912 -3.958,-14.2 -6.058,-21.741c-4.155,-15.079 -8.888,-31.071 -14.446,-46.78c-2.742,-7.862 -5.713,-15.641 -8.867,-23.199c-3.15,-7.563 -6.617,-14.842 -10.183,-21.775c-3.604,-6.913 -7.425,-13.405 -11.254,-19.438c-3.98,-5.921 -7.867,-11.462 -11.938,-16.187c-3.962,-4.813 -7.946,-8.925 -11.6,-12.434c-3.712,-3.45 -7.071,-6.346 -10.025,-8.479c-2.867,-2.262 -5.292,-3.792 -6.929,-4.867c-1.633,-1.075 -2.504,-1.65 -2.504,-1.65c-0,0 0.896,0.534 2.575,1.538c1.679,1.008 4.2,2.404 7.137,4.592c3.038,2.045 6.509,4.841 10.359,8.191c3.804,3.404 7.962,7.421 12.037,12.217c4.2,4.687 8.238,10.191 12.375,16.091Zm-86.633,23.588c3.521,-2.613 8.458,-6.6 12.937,-12.596c2.242,-2.983 4.342,-6.462 6.138,-10.333c1.804,-3.846 3.346,-8.154 4.433,-12.654c2.221,-9.055 2.958,-19.109 2.367,-29.042c-0.296,-4.971 -0.921,-9.921 -1.925,-14.713c-0.988,-4.829 -2.363,-9.362 -4.184,-13.712c-3.379,-8.642 -9.304,-15.342 -14.966,-20.179c-5.704,-4.858 -11.092,-8.154 -14.959,-10.238c-3.866,-2.091 -6.208,-3.05 -6.208,-3.05c0,0 2.413,0.754 6.421,2.63c3.971,1.916 9.65,4.824 15.617,9.604c2.975,2.387 6.033,5.212 8.845,8.6c2.817,3.366 5.421,7.341 7.205,11.821c1.879,4.337 3.416,9.17 4.462,14.041c1.075,4.904 1.804,9.967 2.125,15.054c0.483,10.175 -0.383,20.421 -2.771,29.7c-1.187,4.675 -2.962,8.929 -4.925,12.875c-1.975,3.921 -4.237,7.425 -6.629,10.409c-4.808,5.991 -10.083,9.696 -13.725,12.154c-1.85,1.212 -3.346,2.087 -4.362,2.687c-1.021,0.596 -1.567,0.913 -1.567,0.913c-0,-0 2.117,-1.375 5.671,-3.971Zm7.975,-32.871c0.433,-1.2 1.05,-2.912 1.791,-4.966c1.505,-4.092 3.592,-9.496 5.475,-14.934c0.971,-2.708 1.838,-5.45 2.559,-8.025c0.696,-2.579 1.241,-5.017 1.346,-7.096c0.012,-1.029 0.033,-2 -0.205,-2.779c-0.166,-0.817 -0.587,-1.392 -0.987,-1.833c-0.454,-0.329 -0.871,-0.629 -1.221,-0.696c-0.321,-0.117 -0.496,-0.179 -0.496,-0.179c0,-0 0.184,0.017 0.525,0.05c0.346,-0.009 0.834,0.112 1.475,0.441c0.55,0.396 1.192,1.009 1.563,1.901c0.45,0.866 0.637,1.924 0.758,3.062c0.367,4.596 -1.092,10.425 -2.983,15.967c-1.942,5.546 -4.429,10.85 -6.513,14.704c-1.029,1.937 -2.008,3.487 -2.654,4.592c-0.671,1.091 -1.096,1.691 -1.096,1.691c0,0 0.242,-0.692 0.663,-1.9Zm-125.988,162.329c0.95,-7.391 1.846,-15.204 3.009,-23.275c1.22,-8.05 2.32,-16.446 5.137,-24.737c0.738,-2.063 1.621,-4.117 2.85,-6.05c1.246,-1.896 2.933,-3.746 5.246,-4.717c0.717,-0.283 1.05,-0.371 1.679,-0.529c0.583,-0.108 1.217,-0.267 1.754,-0.321c1.117,-0.162 2.221,-0.25 3.325,-0.342c2.2,-0.129 4.392,-0.195 6.575,-0.204c8.734,0.017 17.404,0.484 25.942,0.896c8.533,0.434 16.925,0.888 25.042,1.192c8.112,0.271 15.966,0.541 23.358,0.191c7.392,-0.216 14.108,-2.362 20.242,-4.4c6.116,-2.141 11.687,-4.32 16.733,-5.962c5.033,-1.667 9.542,-2.8 13.312,-3.371c3.767,-0.604 6.771,-0.666 8.805,-0.646c2.033,0.088 3.116,0.138 3.116,0.138c0,-0 -1.083,-0 -3.116,-0.009c-2.03,0.055 -5.005,0.284 -8.721,0.988c-3.721,0.679 -8.15,1.937 -13.1,3.762c-4.959,1.796 -10.438,4.151 -16.571,6.396c-6.133,2.167 -13.004,4.513 -20.592,4.88c-7.504,0.5 -15.396,0.412 -23.537,0.154c-8.146,-0.254 -16.55,-0.659 -25.079,-1.034c-8.53,-0.362 -17.2,-0.771 -25.825,-0.733c-2.155,-0.004 -4.3,0.05 -6.43,0.163c-1.058,0.079 -2.116,0.154 -3.141,0.3c-0.542,0.05 -0.959,0.17 -1.438,0.245c-0.425,0.084 -1.137,0.304 -1.416,0.421c-3.48,1.479 -5.467,5.542 -6.867,9.363c-2.746,7.895 -3.929,16.279 -5.188,24.275c-2.37,16.062 -4.22,31.183 -6.879,43.966c-2.579,12.792 -5.612,23.234 -7.633,30.55c-2.071,7.305 -3.258,11.48 -3.258,11.48c-0,-0 1.02,-4.217 2.8,-11.6c1.829,-7.371 4.383,-17.917 6.737,-30.692c1.183,-6.392 2.217,-13.334 3.129,-20.738Zm-10.8,81.284c-1.3,-7.375 1.925,-17.396 6.013,-30.084c3.733,-11.591 8.375,-26.016 10.758,-42.795c0.725,-5.105 1.375,-9.984 1.996,-14.609c1.992,-14.892 3.729,-27.837 6.362,-36.221c20.15,4.113 29.484,26.13 33.25,46.163c-1.666,-0.888 -3.358,-1.771 -5.066,-2.629c-3.546,-1.809 -7.142,-3.504 -10.542,-5.009c-3.4,-1.512 -6.592,-2.846 -9.367,-3.896c-2.758,-1.083 -5.079,-1.904 -6.716,-2.445c-1.625,-0.563 -2.554,-0.884 -2.554,-0.884c-0,0 0.85,0.496 2.337,1.359c1.492,0.85 3.6,2.095 6.075,3.679c2.492,1.546 5.333,3.45 8.321,5.554c2.992,2.096 6.125,4.404 9.179,6.804c3.467,2.7 6.833,5.492 9.879,8.129c0.638,6.238 0.767,11.846 0.571,16.067c-0.196,4.313 -0.654,10.792 -1.337,18.683c-8.884,-0.696 -16.188,-1.229 -21.205,-1.529c-31.291,-1.829 -35.05,11.854 -36.891,31.438c-0.129,1.4 -0.275,2.871 -0.429,4.379c-0.267,-0.654 -0.492,-1.354 -0.634,-2.154Zm-16.454,134.77c1.217,-2.295 3.363,-6.25 5.738,-10.129c3.595,-5.983 7.7,-11.72 7.7,-11.72c-0,-0 -3.55,2.937 -7.605,6.666c0.359,-1.417 0.68,-2.846 0.9,-4.296c2.055,-13.525 1.78,-33.829 1.467,-44.095c0.942,0.075 1.879,0.166 2.833,0.166c10.005,0 20.421,-4.308 25.671,-16.558c1.954,-4.563 3.734,-7.396 5.167,-9.675c3.637,-5.788 5.137,-8.842 2.675,-20.492c-1.096,-5.171 -3.833,-8.408 -7.117,-10.658c19.604,-0.429 29.55,9.554 31.654,11.979c-3.633,26.425 -8.308,52.875 -13.595,68.6c-11.684,34.754 -11.846,53.867 -15.209,92.138c-3.354,38.22 -17.987,71.045 -23.237,94.587c-3.434,1.512 -8.363,2.95 -13.667,2.088c-5.633,-0.925 -10.646,-4.375 -14.929,-10.205c-0.021,-0.2 -0.025,-0.4 -0.05,-0.6c-3.258,-25.262 -3.258,-74.158 -1.629,-98.604c1.046,-15.675 7.779,-27.662 13.233,-39.192Zm-6.767,176.459c-3.866,-1.933 -6.45,-5.017 -7.945,-9.334c1.754,-6.016 3.016,-12.125 3.404,-18.316c4.066,3.529 8.604,5.729 13.571,6.546c1.491,0.246 2.945,0.354 4.366,0.354c3.204,-0 6.188,-0.558 8.813,-1.338c-1.55,8.43 -2.425,16.225 -2.709,24.017c-6.141,0.867 -13.67,0.983 -19.5,-1.929Zm150.538,-98.529c-1.521,16.254 -5.075,28.475 -8.213,39.254c-3.245,11.158 -6.016,20.779 -4.687,30.146l-16.388,-0.775c9.184,-47.538 20.73,-106.846 30.088,-153.538c1.679,25.554 1.837,56.679 -0.8,84.913Zm-41.1,12.608c-0.946,12.321 -1.879,23.817 -2.742,33.671c-0.821,9.854 -1.696,18.058 -2.196,23.808c-0.583,5.746 -0.92,9.029 -0.92,9.029c-0,0 -0.059,-3.3 -0.025,-9.075c0.079,-5.77 0.079,-14.025 0.35,-23.916c0.237,-9.896 0.65,-21.429 1.245,-33.784c0.338,-6.175 0.584,-12.558 1.025,-19.037c0.421,-6.479 0.85,-13.063 1.28,-19.646c0.52,-6.575 1.041,-13.154 1.554,-19.625c0.483,-6.479 1.179,-12.833 1.758,-18.996c0.554,-6.158 1.288,-12.1 1.921,-17.733c0.6,-5.638 1.358,-10.954 2.004,-15.863c0.604,-4.912 1.358,-9.396 1.988,-13.37c0.616,-3.975 1.187,-7.438 1.716,-10.28c1.029,-5.687 1.688,-8.92 1.688,-8.92c-0,-0 -0.229,3.3 -0.746,9.045c-0.288,2.871 -0.567,6.363 -0.85,10.371c-0.3,4.004 -0.638,8.521 -1.004,13.45c-1.409,19.709 -3.284,45.992 -5.159,72.271c-0.983,13.142 -1.966,26.283 -2.887,38.6Zm157.717,-241.433c-0.763,-0.063 -1.634,-0.134 -2.55,-0.213c-3.525,-11.483 -7.45,-21.412 -11.117,-28.908c-0.304,-0.621 -0.617,-1.279 -0.933,-1.95l0.125,0.054c-0,0 0.42,-1.633 1.441,-4.029c1,-2.396 2.73,-5.508 4.921,-8.388c2.167,-2.9 4.779,-5.525 6.883,-7.354c2.105,-1.829 3.642,-2.925 3.642,-2.925c0,0 -1.746,0.688 -4.279,1.983c-2.533,1.292 -5.833,3.276 -8.858,5.742c-2.871,2.304 -5.455,5.021 -7.263,7.367c-4.312,-9.984 -8.8,-21.55 -10.666,-26.434c-0.692,-2.645 -1.388,-5.374 -2.096,-8.158c-2.05,-8.058 -4.18,-16.408 -6.525,-24.329c-0.588,-3.704 -1.009,-8.383 -0.959,-13.167c0.063,-5.3 0.696,-10.629 1.492,-14.583c0.771,-3.958 1.546,-6.563 1.546,-6.563c-0,0 -1.196,2.425 -2.646,6.25c-1.446,3.763 -2.979,8.938 -3.975,14.305c-4.2,-11.229 -9.171,-20.317 -15.488,-24.496c-0.145,-1.492 -0.275,-3.379 -0.237,-5.604c-0.029,-5.575 1.146,-13.188 3.912,-20.488c2.646,-7.342 6.855,-14.196 10.442,-19.037c1.804,-2.409 3.396,-4.384 4.588,-5.692c1.175,-1.333 1.846,-2.096 1.846,-2.096c-0,0 -0.8,0.629 -2.2,1.721c-1.426,1.079 -3.363,2.737 -5.626,4.821c-4.495,4.183 -10.133,10.371 -14.433,17.679c-4.404,7.225 -7.375,15.496 -8.562,21.992c-0.159,0.771 -0.288,1.512 -0.405,2.229c-1.216,-0.034 -2.508,0.029 -3.916,0.15c-4.829,0.425 -13.796,2 -23.234,4.175c18.95,-19.696 17.488,-52.558 31.588,-56.125c16.908,-4.279 27.5,-3.667 40.742,14.871c13.246,18.537 26.283,70.083 32.191,92.695c1.388,5.309 3.013,11.155 4.671,17.225c-0.783,0.238 -1.646,0.517 -2.583,0.842c-3.921,1.329 -8.929,3.613 -13.496,6.488c-4.571,2.883 -8.663,6.325 -11.425,9.158c-2.788,2.813 -4.379,4.879 -4.379,4.879c-0,0 2,-1.7 5.237,-3.829c3.221,-2.154 7.771,-4.567 12.504,-6.317c4.742,-1.745 9.621,-2.82 13.284,-3.25c1.104,-0.141 2.079,-0.233 2.925,-0.3c4.7,17.663 9.016,36.204 8.337,48.854c-0.279,5.205 0.263,11.45 1.196,17.78c-6.483,-3.459 -14.858,-6.142 -25.662,-7.025Zm-273.371,43.746c-0.438,-2.58 -1.004,-6.334 -1.359,-10.146c-0.704,-6.834 -0.687,-13.796 -0.687,-13.796c-0,-0 -1.838,6.708 -2.975,13.658c-0.046,0.267 -0.092,0.538 -0.138,0.804c-8.454,-10.904 -13.3,-43.462 -9.354,-69.908c0.988,-6.604 2.429,-14.792 4.167,-23.988c0.9,0.067 1.962,0.167 3.179,0.321c3.663,0.43 8.542,1.505 13.283,3.25c4.734,1.75 9.284,4.163 12.505,6.317c1.137,0.746 2.112,1.438 2.912,2.025c-0.504,2.008 -0.992,3.946 -1.454,5.796c-1.463,-1.429 -3.117,-2.842 -4.883,-4.059c-3.109,-2.187 -6.405,-3.858 -8.884,-5.037c-2.487,-1.167 -4.166,-1.858 -4.166,-1.858c-0,-0 1.454,1.104 3.537,2.841c2.075,1.742 4.771,4.15 7.013,6.825c2.279,2.65 4.008,5.555 4.937,7.813c0.229,0.541 0.421,1.037 0.583,1.487c-0.683,3.325 -1.17,6.438 -1.316,9.4c-0.659,13.225 -0.604,31.188 6.246,43.734c1.075,3.741 3.17,6.325 5.7,8.229c-0.167,1.017 -0.33,2.025 -0.538,3.079c-0.887,4.558 1.554,8.971 5.617,10.783c-0.079,-0.004 -0.154,0 -0.234,-0.008c-0.27,0.033 -1.245,-0.171 -1.554,-0.229c-0.408,-0.067 -0.916,-0.217 -1.346,-0.392c-0.887,-0.346 -1.683,-0.854 -2.345,-1.521c-1.325,-1.337 -2.03,-3.27 -2.321,-4.983c-0.296,-1.729 -0.259,-3.258 -0.184,-4.312c0.08,-1.059 0.2,-1.663 0.2,-1.663c0,-0 -0.266,0.55 -0.62,1.579c-0.342,1.025 -0.784,2.529 -0.955,4.459c-0.15,1.899 -0.029,4.345 1.317,6.762c0.671,1.188 1.658,2.296 2.833,3.167c0.592,0.446 1.184,0.816 1.909,1.166c0.825,0.38 1.016,0.525 1.933,0.817c2.583,0.942 5.65,1.342 8.596,0.746c2.958,-0.567 5.508,-2.146 7.254,-3.746c0.825,-0.75 1.492,-1.492 2.058,-2.2c0.13,0.4 0.271,0.779 0.363,1.221c1.204,5.687 1.358,8.446 0.662,10.754c-0.666,0.133 -1.42,0.292 -2.245,0.517c-1.48,0.412 -3.242,0.795 -5.067,1.387c-1.813,0.559 -3.817,1.279 -5.658,1.75c-1.83,0.596 -3.559,0.625 -5.155,-0.012c-1.579,-0.613 -3.083,-1.563 -4.354,-2.421c-1.266,-0.875 -2.471,-1.463 -3.296,-1.846c-0.85,-0.35 -1.358,-0.471 -1.358,-0.471c0,0 0.442,0.283 1.108,0.879c0.709,0.542 1.567,1.475 2.696,2.517c1.146,1.004 2.417,2.417 4.388,3.296c0.975,0.442 2.091,0.725 3.25,0.8c1.158,0.054 2.3,-0.125 3.358,-0.384c2.092,-0.662 3.9,-1.441 5.721,-2.112c1.796,-0.679 3.408,-1.483 4.821,-2.087c0.504,-0.221 0.929,-0.438 1.358,-0.655c-0.479,1.088 -1.15,2.167 -2,3.521c-0.871,1.383 -1.929,3.079 -3.096,5.263c-0.737,0.1 -1.646,0.212 -2.658,0.433c-1.396,0.317 -3.058,0.571 -4.775,1.046c-1.717,0.467 -3.55,0.962 -5.379,1.458c-1.754,0.617 -3.296,0.838 -4.834,0.454c-1.512,-0.35 -2.983,-0.991 -4.15,-1.725c-1.17,-0.733 -2.208,-1.345 -2.887,-1.833c-0.713,-0.458 -1.117,-0.717 -1.117,-0.717c0,0 0.279,0.396 0.771,1.088c0.538,0.642 1.242,1.654 2.354,2.637c1.113,0.95 2.492,2.163 4.442,2.734c1.917,0.646 4.3,0.421 6.154,-0.138c1.804,-0.612 3.613,-1.225 5.304,-1.8c1.688,-0.571 3.209,-1.287 4.542,-1.804c0.621,-0.25 1.171,-0.508 1.671,-0.75c-0.646,1.267 -1.317,2.667 -2.004,4.275c-0.563,1.308 -1.213,2.442 -1.896,3.5c-0.146,0.025 -0.279,0.046 -0.429,0.071c-1.567,0.312 -3.421,0.562 -5.359,1.029c-1.933,0.462 -3.996,0.958 -6.058,1.45c-2,0.621 -3.817,0.892 -5.592,0.542c-1.75,-0.346 -3.437,-0.946 -4.791,-1.7c-1.359,-0.738 -2.538,-1.375 -3.325,-1.875c-0.813,-0.475 -1.28,-0.746 -1.28,-0.746c0,-0 0.35,0.412 0.959,1.137c0.658,0.667 1.529,1.725 2.85,2.713c1.304,0.975 2.958,2.15 5.108,2.679c2.133,0.575 4.65,0.312 6.729,-0.229c2.038,-0.609 4.075,-1.221 5.988,-1.788c1.354,-0.404 2.579,-0.858 3.737,-1.287c-6.458,7.716 -16.258,7.279 -21.062,6.467c-2.238,-0.934 -6.267,-3.013 -11.484,-7.442c-6.216,-5.275 -4.625,-18.629 -7.491,-29.008Zm-16.992,316.25c2.95,-10.009 7.679,-20.438 11.667,-31.213c2.096,2.533 4.7,4.583 7.796,6.129c4.991,2.492 10.683,3.329 16.095,3.329c2.45,0 4.83,-0.179 7.071,-0.445c0.084,4.929 0.392,9.954 0.888,15.225c-0.754,0.2 -1.625,0.416 -2.617,0.641c-3.337,0.775 -7.908,1.438 -12.571,1.571c-4.654,0.133 -9.366,-0.271 -12.871,-0.879c-3.512,-0.579 -5.825,-1.213 -5.825,-1.213c0,0 2.142,1.059 5.53,2.321c3.383,1.284 8.062,2.629 12.912,3.429c4.842,0.8 9.817,1.046 13.563,0.913c0.954,-0.025 1.825,-0.071 2.595,-0.117c0.117,0.959 0.225,1.908 0.355,2.888c0.033,0.287 0.066,0.571 0.104,0.862c-3.363,0.321 -9.579,0.771 -15.9,0.463c-9.334,-0.288 -18.638,-2.25 -18.638,-2.25c0,-0 8.75,3.687 18.15,5.804c6.821,1.658 13.85,2.425 17.163,2.717c0.133,1.258 0.254,2.504 0.371,3.745c-3.763,0.354 -9.713,0.725 -15.775,0.342c-10.005,-0.425 -19.909,-2.962 -19.909,-2.962c0,-0 2.3,1.079 5.875,2.462c3.571,1.4 8.454,3 13.479,4.225c6.363,1.625 12.925,2.396 16.888,2.746c0.725,10.454 0.796,20.175 0.129,28.712c-0.287,0.055 -0.562,0.109 -0.862,0.167c-4.396,0.813 -10.238,1.796 -16.134,2.008c-5.883,0.259 -11.808,-0.458 -16.125,-1.658c-2.158,-0.587 -3.916,-1.25 -5.125,-1.771c-1.212,-0.516 -1.887,-0.854 -1.887,-0.854c-0,0 0.612,0.438 1.741,1.133c1.125,0.705 2.788,1.638 4.888,2.571c4.183,1.888 10.192,3.575 16.358,4.242c5.963,0.696 11.946,0.629 16.479,0.496c-0.345,2.575 -0.762,5.025 -1.27,7.304c-1.463,6.512 -6.221,13.771 -12.48,18.887c-2.52,0.95 -5.483,1.888 -8.725,2.196c-2.366,0.238 -4.837,0.054 -7.27,-0.775c-2.455,-0.841 -4.963,-2.425 -7.188,-4.633c-4.542,-4.388 -7.462,-11.163 -8.729,-18.513c-0.658,-3.679 -0.958,-7.441 -1.092,-11.27c-0.154,-3.813 -0.196,-7.571 -0.129,-11.213c0.158,-7.279 0.779,-14.079 1.575,-19.883c0.8,-5.809 1.708,-10.625 2.388,-13.992c0.704,-3.362 1.108,-5.283 1.108,-5.283c-0,-0 -0.592,1.875 -1.629,5.154c-1.004,3.287 -2.396,8.004 -3.775,13.762c-1.384,5.754 -2.696,12.571 -3.592,19.963c-0.437,3.7 -0.775,7.537 -1.004,11.446c-0.25,3.887 -0.342,7.987 -0.017,12.096c0.317,4.108 1.054,8.287 2.434,12.304c0.758,2.221 1.75,4.366 2.916,6.404c-15.187,-20.146 -4.266,-63.142 0.621,-79.733Zm75.883,3.504c-2.612,-0.125 -5.133,0.35 -7.47,1.237c0.587,-13.391 1.404,-26.871 2.387,-40.366l14.692,0.695l-4.15,38.705l-5.459,-0.271Zm97,-65.288c-0.016,0.204 -0.033,0.384 -0.05,0.584l-4.462,-0.213c-2.175,-10.846 2.912,-22.654 7.446,-40.054c-0.259,4.35 -0.525,8.471 -0.788,12.3c-0.816,11.8 -1.596,21.067 -2.146,27.383Zm162.071,-272.371c-1.462,-2.866 -3.741,-6.412 -7.141,-9.958c2.32,-15.767 4.737,-34.304 4.662,-41.933c0.575,-11.159 -0.916,-23.767 -6.542,-38.667c-2.816,-7.462 -5.87,-18.812 -9.4,-31.954c-14.866,-55.313 -39.587,-147.267 -106.658,-176.225c-3.154,-10.508 -13.933,-39.942 -37.95,-49.854c-24.858,-10.259 -40.95,-19.45 -41.108,-19.542c-1.142,-0.654 -2.4,-0.975 -3.654,-0.975c-1.846,-0 -3.671,0.696 -5.075,2.033c-0.184,0.18 -18.846,18 -31.592,26.496c-14.733,9.825 -31.275,26.629 -29.467,69.813c-7.016,9.454 -33.508,46.983 -41.283,84.754c-1.933,9.375 -4.029,19.396 -6.167,29.612c-7.454,35.634 -15.166,72.488 -18.354,93.834c-3.871,25.954 0.117,63.933 12.038,76.937c1.483,1.617 2.4,4.083 3.037,6.938c-0.017,0.229 -0.025,0.362 -0.025,0.362l0.096,-0.008c0.579,2.717 0.925,5.75 1.262,8.742c0.921,8.266 1.875,16.816 8.105,22.1c4.437,3.762 8.212,6.1 11.054,7.537c0.316,9.346 0.741,30.775 -1.338,44.429c-1.083,7.121 -4.516,14.209 -8.154,21.709c-5.092,10.512 -10.867,22.424 -11.875,37.579c-1.6,23.97 -1.733,73.62 1.671,100.029c2.058,15.958 -4.396,32.129 -10.642,47.767c-2.7,6.754 -5.487,13.741 -7.487,20.524c-5.013,17.005 -9.388,37.567 -8.638,55.692c-0.654,1.229 -1.083,2.604 -1.154,4.088c-0.129,2.583 0.779,4.966 2.329,6.796c1.35,7.391 3.842,14.095 7.925,19.554c6.813,9.112 16.988,13.733 30.238,13.733c10.116,0 17.425,-1.933 22.779,-5.196c0.037,0.909 0.05,1.829 0.096,2.734c0.679,12.091 1.533,23.908 3.916,36.162c0.638,3.096 1.371,6.217 2.513,9.6c0.583,1.696 1.279,3.483 2.329,5.488c0.258,0.495 0.538,1.008 0.896,1.57c0.312,0.53 0.687,1.1 1.158,1.717c0.846,1.15 2.1,2.571 3.959,3.917c0.525,0.358 1.066,0.696 1.616,1.004c0.192,0.121 0.771,0.396 1.229,0.583c0.484,0.2 0.984,0.379 1.484,0.534c0.408,0.133 1.212,0.325 1.3,0.337l0.508,0.1c-0.317,-0.017 2.808,0.333 2.096,0.2c1.671,0.042 3.137,-0.212 4.542,-0.612c1.212,-0.38 2.525,-0.942 3.341,-1.45c3.642,-2.205 5.096,-4.238 6.463,-5.95c2.537,-3.459 3.921,-6.396 5.287,-9.259c2.629,-5.704 4.454,-11.062 6.196,-16.346c1.738,-5.266 3.233,-10.42 4.625,-15.491c2.746,-10.134 5.05,-19.909 7.104,-29.3c2.188,-9.929 4.013,-19.429 5.579,-28.459c0.18,19.042 0.809,37.855 2.359,56.371c1.071,13.175 2.35,26.046 5.637,39.446c0.875,3.379 1.863,6.792 3.442,10.517c0.817,1.875 1.708,3.791 3.137,5.966c1.48,2.117 3.25,4.709 7.405,7.163l0.791,0.425c0.279,0.142 0.467,0.25 0.963,0.45c0.854,0.346 1.746,0.637 2.641,0.858l0.805,0.179l0.275,0.05l0.279,0.055c-0.271,-0.013 2.625,0.295 1.937,0.183c2.95,0.137 5.492,-0.588 7.604,-1.463c3.98,-1.841 6.038,-3.983 7.75,-5.787c1.675,-1.854 2.884,-3.563 3.938,-5.204c1.071,-1.65 1.954,-3.225 2.783,-4.784c3.221,-6.191 5.446,-12.012 7.492,-17.758c2.004,-5.729 3.725,-11.342 5.287,-16.854c3.113,-11.025 5.834,-21.621 8.146,-31.838c4.609,-20.42 8.121,-39.179 10.984,-55.837c2.862,-16.658 4.945,-31.229 6.545,-43.242c0.275,-2.083 0.534,-4.058 0.784,-5.987c3.558,0.404 7.558,0.654 12.225,0.716c1.075,0.013 2.121,0.021 3.129,0.021c15.792,0 26.6,-1.483 31.679,-8.858c4.75,-6.888 2.125,-15.396 -0.966,-23.521c-2.938,-7.708 -8.288,-15.562 -13.463,-23.162c-6.658,-9.78 -13.542,-19.888 -13.363,-27.005c0.409,-15.795 15.125,-75.341 22.2,-103.958c9.067,-36.675 11.292,-78.592 5.805,-109.392c-1.755,-9.845 -0.742,-20.562 1.412,-31.1c14.288,1.267 25.825,2.284 33.104,2.896c0.638,2.742 1.242,5.484 1.779,8.217c1.046,5.279 1.905,8.154 2.53,10.254c0.396,1.329 0.591,2 0.695,2.704c0.171,1.188 0.121,3.3 0.071,5.342c-0.062,2.708 -0.133,5.508 0.188,8.2c0.496,4.187 1.604,7.592 2.891,11.533c1.221,3.75 2.609,7.996 4.055,14.504c1.791,8.071 12.595,9.767 21.345,9.767c6.671,-0 22.588,-1.154 26.301,-11.858c4.766,-13.725 0.27,-25.917 -5.826,-35.842c-0.416,-5.55 -1.904,-11.1 -4.504,-16.192Z"
            style="fill: hsl(239, 57%, 85%); fill-rule: nonzero"
        />
        <path
            d="M57.795,651.608c-0.562,0.025 -1.379,-0.054 -2.316,-0.041c-0.938,0.046 -2.038,-0.113 -3.184,-0.109c-1.154,-0.025 -2.375,-0.129 -3.583,-0.304c-1.221,-0.079 -2.437,-0.229 -3.571,-0.441c-1.125,-0.234 -2.229,-0.313 -3.137,-0.55c-0.917,-0.209 -1.734,-0.3 -2.275,-0.442c-0.571,-0.1 -0.896,-0.158 -0.896,-0.158c-0,-0 0.25,0.216 0.692,0.595c0.466,0.325 1.112,0.88 2,1.313c0.879,0.446 1.92,0.987 3.116,1.337c1.196,0.334 2.496,0.617 3.813,0.817c1.329,0.075 2.658,0.071 3.896,-0.008c1.241,-0.088 2.375,-0.409 3.325,-0.663c0.958,-0.241 1.704,-0.65 2.229,-0.875c0.508,-0.279 0.8,-0.437 0.8,-0.437c-0,-0 -0.329,-0.013 -0.909,-0.034Z"
            style="fill: hsl(239, 57%, 85%); fill-rule: nonzero"
        />
        <path
            d="M73.837,591.421c1.092,-3.596 2.271,-7.817 3.488,-12.367c1.029,-4.583 2.041,-9.496 2.966,-14.425c0.688,-4.966 1.292,-9.946 1.775,-14.621c0.296,-4.696 0.521,-9.075 0.629,-12.833c-0.025,-3.767 -0.108,-6.904 -0.179,-9.096c-0.158,-2.196 -0.25,-3.45 -0.25,-3.45c0,0 -0.25,1.234 -0.691,3.388c-0.359,2.158 -0.888,5.237 -1.6,8.912c-0.538,3.692 -1.267,7.979 -2.092,12.558c-0.683,4.601 -1.496,9.488 -2.392,14.359c-0.7,4.904 -1.487,9.796 -2.304,14.371c-0.675,4.604 -1.35,8.904 -2.017,12.571c-0.491,3.712 -0.97,6.799 -1.316,8.958c-0.267,2.187 -0.421,3.433 -0.421,3.433c-0,0 0.487,-1.162 1.337,-3.191c0.767,-2.055 1.846,-5 3.067,-8.567Z"
            style="fill: hsl(239, 57%, 85%); fill-rule: nonzero"
        />
        <path
            d="M90.012,260.913c0.758,0.579 1.567,1.366 2.533,2.054c0.946,0.704 1.959,1.462 2.967,2.216c1.054,0.7 2.104,1.396 3.088,2.055c0.966,0.683 1.983,1.175 2.787,1.691c0.808,0.509 1.575,0.825 2.063,1.104c0.525,0.242 0.825,0.38 0.825,0.38c-0,-0 -0.192,-0.267 -0.521,-0.742c-0.367,-0.433 -0.829,-1.129 -1.513,-1.813c-0.687,-0.679 -1.433,-1.545 -2.371,-2.308c-0.941,-0.75 -1.95,-1.554 -2.954,-2.354c-1.096,-0.679 -2.187,-1.358 -3.212,-1.992c-1.038,-0.621 -2.104,-1.037 -2.975,-1.454c-0.871,-0.413 -1.679,-0.617 -2.213,-0.817c-0.554,-0.154 -0.875,-0.241 -0.875,-0.241c0,-0 0.234,0.233 0.638,0.645c0.429,0.367 0.987,0.98 1.733,1.576Z"
            style="fill: hsl(239, 57%, 85%); fill-rule: nonzero"
        />
        <path
            d="M62.233,164.638c1.971,1.008 4.117,2.449 6.454,3.891c2.313,1.483 4.688,3.204 6.963,5.046c2.312,1.788 4.533,3.704 6.512,5.617c1.938,1.941 3.838,3.696 5.271,5.383c1.471,1.65 2.729,3.025 3.533,4.046c0.85,1 1.334,1.571 1.334,1.571c-0,-0 -0.342,-0.667 -0.938,-1.834c-0.646,-1.141 -1.529,-2.812 -2.858,-4.637c-1.304,-1.842 -2.9,-3.954 -4.842,-6.017c-1.962,-2.042 -4.179,-4.1 -6.504,-6.037c-2.421,-1.817 -4.938,-3.5 -7.375,-4.938c-2.458,-1.408 -4.879,-2.483 -6.971,-3.325c-2.079,-0.875 -3.912,-1.35 -5.167,-1.716c-1.275,-0.313 -2,-0.488 -2,-0.488c0,0 0.667,0.337 1.834,0.929c1.179,0.55 2.808,1.454 4.754,2.509Z"
            style="fill: hsl(239, 57%, 85%); fill-rule: nonzero"
        />
        <path
            d="M259.087,157.154c-1.5,1.163 -3.25,2.542 -4.946,4.217c-1.679,1.683 -3.396,3.562 -5.029,5.512c-1.525,2.034 -2.962,4.134 -4.217,6.155c-1.241,2.033 -2.187,4.05 -2.975,5.775c-0.808,1.72 -1.27,3.245 -1.637,4.287c-0.317,1.058 -0.496,1.667 -0.496,1.667c0,-0 0.333,-0.534 0.925,-1.471c0.542,-0.954 1.429,-2.254 2.413,-3.838c0.95,-1.604 2.258,-3.346 3.537,-5.275c1.308,-1.908 2.792,-3.883 4.354,-5.791c1.5,-1.954 3.088,-3.85 4.65,-5.559c1.588,-1.683 2.979,-3.358 4.325,-4.65c1.321,-1.316 2.384,-2.479 3.188,-3.225c0.775,-0.787 1.216,-1.237 1.216,-1.237c0,-0 -0.55,0.312 -1.508,0.862c-0.929,0.596 -2.312,1.392 -3.8,2.571Z"
            style="fill: hsl(239, 57%, 85%); fill-rule: nonzero"
        />
        <path
            d="M160.545,206.008c1.275,0.255 2.788,0.575 4.421,0.605c1.634,0.025 3.371,-0.059 5.1,-0.209c1.713,-0.312 3.4,-0.7 4.963,-1.125c1.562,-0.433 2.937,-1.104 4.116,-1.621c1.188,-0.504 2.084,-1.154 2.734,-1.529c0.621,-0.446 0.979,-0.696 0.979,-0.696c-0,0 -0.433,0.05 -1.188,0.142c-0.729,0.146 -1.808,0.229 -3.037,0.467c-1.221,0.271 -2.696,0.375 -4.2,0.687c-1.517,0.288 -3.142,0.525 -4.771,0.692c-1.608,0.271 -3.233,0.479 -4.758,0.579c-1.525,0.088 -2.967,0.325 -4.204,0.325c-1.242,0.037 -2.309,0.158 -3.05,0.137c-0.755,0.038 -1.188,0.063 -1.188,0.063c0,-0 0.392,0.183 1.079,0.512c0.709,0.259 1.725,0.73 3.004,0.971Z"
            style="fill: hsl(239, 57%, 85%); fill-rule: nonzero"
        />
        <path
            d="M170.375,142.537c-0,0 16.725,-70.079 2.479,-54.212c-14.246,15.867 -2.479,54.212 -2.479,54.212Z"
            style="fill: hsl(239, 57%, 85%); fill-rule: nonzero"
        />
        <path
            d="M189.95,64.146c-7.513,7.154 -1.155,46.941 -1.155,46.941c0,0 8.671,-54.091 1.155,-46.941Z"
            style="fill: hsl(239, 57%, 85%); fill-rule: nonzero"
        />
        <path
            d="M171.687,66.346c1.613,-5.834 -0.937,-31.633 -4.275,-30.696c-3.333,0.938 -6.129,36.633 -4.729,43.346c-0,-0 7.392,-6.821 9.004,-12.65Z"
            style="fill: hsl(239, 57%, 85%); fill-rule: nonzero"
        />
        <path
            d="M129.42,92.071c-16.75,-13.192 11.73,52.987 11.73,52.987c-0,0 5.025,-39.795 -11.73,-52.987Z"
            style="fill: hsl(239, 57%, 85%); fill-rule: nonzero"
        />
        <path
            d="M108.437,71.179c-8.629,-5.762 9.175,46.046 9.175,46.046c0,0 -0.546,-40.288 -9.175,-46.046Z"
            style="fill: hsl(239, 57%, 85%); fill-rule: nonzero"
        />
        <path
            d="M94.412,84.908c-11.408,3.154 16.054,40.25 16.054,40.25c0,0 -9.8,-41.983 -16.054,-40.25Z"
            style="fill: hsl(239, 57%, 85%); fill-rule: nonzero"
        />
        <path
            d="M137.845,81.138c0.23,-6.855 -8.637,-41.542 -12.083,-41.896c-3.446,-0.354 -1.542,25.504 1.046,30.975c2.587,5.466 11.037,10.921 11.037,10.921Z"
            style="fill: hsl(239, 57%, 85%); fill-rule: nonzero"
        />
        <path
            d="M148.887,64.113c0,-0 -4.492,0.712 -4.158,4.587c0.333,3.871 6.233,19.467 6.233,19.467c0,-0 3.142,-16.375 2.808,-20.25c-0.333,-3.871 -4.883,-3.804 -4.883,-3.804Z"
            style="fill: hsl(239, 57%, 85%); fill-rule: nonzero"
        />
        <path
            d="M146.966,41.833c18.35,-15.408 -1.796,-20.825 -1.796,-20.825c0,0 -18.92,8.788 1.796,20.825Z"
            style="fill: hsl(239, 57%, 85%); fill-rule: nonzero"
        />
        <path
            d="M114.77,63.313c4.1,2.695 0.621,-18.921 -3.025,-19.742c-3.65,-0.825 -6.6,13.417 3.025,19.742Z"
            style="fill: hsl(239, 57%, 85%); fill-rule: nonzero"
        />
    </g>
</svg>
